%TF.GenerationSoftware,KiCad,Pcbnew,8.0.1*%
%TF.CreationDate,2024-04-13T17:17:52+05:30*%
%TF.ProjectId,piso,7069736f-2e6b-4696-9361-645f70636258,rev?*%
%TF.SameCoordinates,Original*%
%TF.FileFunction,Copper,L1,Top*%
%TF.FilePolarity,Positive*%
%FSLAX46Y46*%
G04 Gerber Fmt 4.6, Leading zero omitted, Abs format (unit mm)*
G04 Created by KiCad (PCBNEW 8.0.1) date 2024-04-13 17:17:52*
%MOMM*%
%LPD*%
G01*
G04 APERTURE LIST*
G04 Aperture macros list*
%AMRoundRect*
0 Rectangle with rounded corners*
0 $1 Rounding radius*
0 $2 $3 $4 $5 $6 $7 $8 $9 X,Y pos of 4 corners*
0 Add a 4 corners polygon primitive as box body*
4,1,4,$2,$3,$4,$5,$6,$7,$8,$9,$2,$3,0*
0 Add four circle primitives for the rounded corners*
1,1,$1+$1,$2,$3*
1,1,$1+$1,$4,$5*
1,1,$1+$1,$6,$7*
1,1,$1+$1,$8,$9*
0 Add four rect primitives between the rounded corners*
20,1,$1+$1,$2,$3,$4,$5,0*
20,1,$1+$1,$4,$5,$6,$7,0*
20,1,$1+$1,$6,$7,$8,$9,0*
20,1,$1+$1,$8,$9,$2,$3,0*%
G04 Aperture macros list end*
%ADD10C,0.300000*%
%TA.AperFunction,NonConductor*%
%ADD11C,0.300000*%
%TD*%
%ADD12C,0.250000*%
%TA.AperFunction,NonConductor*%
%ADD13C,0.250000*%
%TD*%
%TA.AperFunction,ComponentPad*%
%ADD14R,1.800000X1.800000*%
%TD*%
%TA.AperFunction,ComponentPad*%
%ADD15C,1.800000*%
%TD*%
%TA.AperFunction,SMDPad,CuDef*%
%ADD16RoundRect,0.020500X-0.959500X-0.184500X0.959500X-0.184500X0.959500X0.184500X-0.959500X0.184500X0*%
%TD*%
%TA.AperFunction,SMDPad,CuDef*%
%ADD17R,1.100000X1.500000*%
%TD*%
%TA.AperFunction,SMDPad,CuDef*%
%ADD18RoundRect,0.090000X-0.895000X-0.210000X0.895000X-0.210000X0.895000X0.210000X-0.895000X0.210000X0*%
%TD*%
%TA.AperFunction,ComponentPad*%
%ADD19R,1.605000X1.605000*%
%TD*%
%TA.AperFunction,ComponentPad*%
%ADD20C,1.605000*%
%TD*%
%TA.AperFunction,ComponentPad*%
%ADD21R,1.498000X1.498000*%
%TD*%
%TA.AperFunction,ComponentPad*%
%ADD22C,1.498000*%
%TD*%
%TA.AperFunction,ViaPad*%
%ADD23C,0.600000*%
%TD*%
%TA.AperFunction,Conductor*%
%ADD24C,0.200000*%
%TD*%
G04 APERTURE END LIST*
D10*
D11*
X113157971Y-101088346D02*
X113229400Y-101159774D01*
X113229400Y-101159774D02*
X113300828Y-101374060D01*
X113300828Y-101374060D02*
X113300828Y-101516917D01*
X113300828Y-101516917D02*
X113229400Y-101731203D01*
X113229400Y-101731203D02*
X113086542Y-101874060D01*
X113086542Y-101874060D02*
X112943685Y-101945489D01*
X112943685Y-101945489D02*
X112657971Y-102016917D01*
X112657971Y-102016917D02*
X112443685Y-102016917D01*
X112443685Y-102016917D02*
X112157971Y-101945489D01*
X112157971Y-101945489D02*
X112015114Y-101874060D01*
X112015114Y-101874060D02*
X111872257Y-101731203D01*
X111872257Y-101731203D02*
X111800828Y-101516917D01*
X111800828Y-101516917D02*
X111800828Y-101374060D01*
X111800828Y-101374060D02*
X111872257Y-101159774D01*
X111872257Y-101159774D02*
X111943685Y-101088346D01*
X113300828Y-99731203D02*
X113300828Y-100445489D01*
X113300828Y-100445489D02*
X111800828Y-100445489D01*
X113300828Y-99231203D02*
X111800828Y-99231203D01*
X113300828Y-98374060D02*
X112443685Y-99016917D01*
X111800828Y-98374060D02*
X112657971Y-99231203D01*
D12*
D13*
X153864619Y-108597431D02*
X152864619Y-108597431D01*
X152864619Y-108597431D02*
X152864619Y-108359336D01*
X152864619Y-108359336D02*
X152912238Y-108216479D01*
X152912238Y-108216479D02*
X153007476Y-108121241D01*
X153007476Y-108121241D02*
X153102714Y-108073622D01*
X153102714Y-108073622D02*
X153293190Y-108026003D01*
X153293190Y-108026003D02*
X153436047Y-108026003D01*
X153436047Y-108026003D02*
X153626523Y-108073622D01*
X153626523Y-108073622D02*
X153721761Y-108121241D01*
X153721761Y-108121241D02*
X153817000Y-108216479D01*
X153817000Y-108216479D02*
X153864619Y-108359336D01*
X153864619Y-108359336D02*
X153864619Y-108597431D01*
X153864619Y-107597431D02*
X153197952Y-107597431D01*
X152864619Y-107597431D02*
X152912238Y-107645050D01*
X152912238Y-107645050D02*
X152959857Y-107597431D01*
X152959857Y-107597431D02*
X152912238Y-107549812D01*
X152912238Y-107549812D02*
X152864619Y-107597431D01*
X152864619Y-107597431D02*
X152959857Y-107597431D01*
X153197952Y-107121241D02*
X153864619Y-107121241D01*
X153293190Y-107121241D02*
X153245571Y-107073622D01*
X153245571Y-107073622D02*
X153197952Y-106978384D01*
X153197952Y-106978384D02*
X153197952Y-106835527D01*
X153197952Y-106835527D02*
X153245571Y-106740289D01*
X153245571Y-106740289D02*
X153340809Y-106692670D01*
X153340809Y-106692670D02*
X153864619Y-106692670D01*
X152864619Y-106026003D02*
X152864619Y-105930765D01*
X152864619Y-105930765D02*
X152912238Y-105835527D01*
X152912238Y-105835527D02*
X152959857Y-105787908D01*
X152959857Y-105787908D02*
X153055095Y-105740289D01*
X153055095Y-105740289D02*
X153245571Y-105692670D01*
X153245571Y-105692670D02*
X153483666Y-105692670D01*
X153483666Y-105692670D02*
X153674142Y-105740289D01*
X153674142Y-105740289D02*
X153769380Y-105787908D01*
X153769380Y-105787908D02*
X153817000Y-105835527D01*
X153817000Y-105835527D02*
X153864619Y-105930765D01*
X153864619Y-105930765D02*
X153864619Y-106026003D01*
X153864619Y-106026003D02*
X153817000Y-106121241D01*
X153817000Y-106121241D02*
X153769380Y-106168860D01*
X153769380Y-106168860D02*
X153674142Y-106216479D01*
X153674142Y-106216479D02*
X153483666Y-106264098D01*
X153483666Y-106264098D02*
X153245571Y-106264098D01*
X153245571Y-106264098D02*
X153055095Y-106216479D01*
X153055095Y-106216479D02*
X152959857Y-106168860D01*
X152959857Y-106168860D02*
X152912238Y-106121241D01*
X152912238Y-106121241D02*
X152864619Y-106026003D01*
D12*
D13*
X151864619Y-108597431D02*
X150864619Y-108597431D01*
X150864619Y-108597431D02*
X150864619Y-108359336D01*
X150864619Y-108359336D02*
X150912238Y-108216479D01*
X150912238Y-108216479D02*
X151007476Y-108121241D01*
X151007476Y-108121241D02*
X151102714Y-108073622D01*
X151102714Y-108073622D02*
X151293190Y-108026003D01*
X151293190Y-108026003D02*
X151436047Y-108026003D01*
X151436047Y-108026003D02*
X151626523Y-108073622D01*
X151626523Y-108073622D02*
X151721761Y-108121241D01*
X151721761Y-108121241D02*
X151817000Y-108216479D01*
X151817000Y-108216479D02*
X151864619Y-108359336D01*
X151864619Y-108359336D02*
X151864619Y-108597431D01*
X151864619Y-107597431D02*
X151197952Y-107597431D01*
X150864619Y-107597431D02*
X150912238Y-107645050D01*
X150912238Y-107645050D02*
X150959857Y-107597431D01*
X150959857Y-107597431D02*
X150912238Y-107549812D01*
X150912238Y-107549812D02*
X150864619Y-107597431D01*
X150864619Y-107597431D02*
X150959857Y-107597431D01*
X151197952Y-107121241D02*
X151864619Y-107121241D01*
X151293190Y-107121241D02*
X151245571Y-107073622D01*
X151245571Y-107073622D02*
X151197952Y-106978384D01*
X151197952Y-106978384D02*
X151197952Y-106835527D01*
X151197952Y-106835527D02*
X151245571Y-106740289D01*
X151245571Y-106740289D02*
X151340809Y-106692670D01*
X151340809Y-106692670D02*
X151864619Y-106692670D01*
X151864619Y-105692670D02*
X151864619Y-106264098D01*
X151864619Y-105978384D02*
X150864619Y-105978384D01*
X150864619Y-105978384D02*
X151007476Y-106073622D01*
X151007476Y-106073622D02*
X151102714Y-106168860D01*
X151102714Y-106168860D02*
X151150333Y-106264098D01*
D12*
D13*
X149364619Y-108597431D02*
X148364619Y-108597431D01*
X148364619Y-108597431D02*
X148364619Y-108359336D01*
X148364619Y-108359336D02*
X148412238Y-108216479D01*
X148412238Y-108216479D02*
X148507476Y-108121241D01*
X148507476Y-108121241D02*
X148602714Y-108073622D01*
X148602714Y-108073622D02*
X148793190Y-108026003D01*
X148793190Y-108026003D02*
X148936047Y-108026003D01*
X148936047Y-108026003D02*
X149126523Y-108073622D01*
X149126523Y-108073622D02*
X149221761Y-108121241D01*
X149221761Y-108121241D02*
X149317000Y-108216479D01*
X149317000Y-108216479D02*
X149364619Y-108359336D01*
X149364619Y-108359336D02*
X149364619Y-108597431D01*
X149364619Y-107597431D02*
X148697952Y-107597431D01*
X148364619Y-107597431D02*
X148412238Y-107645050D01*
X148412238Y-107645050D02*
X148459857Y-107597431D01*
X148459857Y-107597431D02*
X148412238Y-107549812D01*
X148412238Y-107549812D02*
X148364619Y-107597431D01*
X148364619Y-107597431D02*
X148459857Y-107597431D01*
X148697952Y-107121241D02*
X149364619Y-107121241D01*
X148793190Y-107121241D02*
X148745571Y-107073622D01*
X148745571Y-107073622D02*
X148697952Y-106978384D01*
X148697952Y-106978384D02*
X148697952Y-106835527D01*
X148697952Y-106835527D02*
X148745571Y-106740289D01*
X148745571Y-106740289D02*
X148840809Y-106692670D01*
X148840809Y-106692670D02*
X149364619Y-106692670D01*
X148459857Y-106264098D02*
X148412238Y-106216479D01*
X148412238Y-106216479D02*
X148364619Y-106121241D01*
X148364619Y-106121241D02*
X148364619Y-105883146D01*
X148364619Y-105883146D02*
X148412238Y-105787908D01*
X148412238Y-105787908D02*
X148459857Y-105740289D01*
X148459857Y-105740289D02*
X148555095Y-105692670D01*
X148555095Y-105692670D02*
X148650333Y-105692670D01*
X148650333Y-105692670D02*
X148793190Y-105740289D01*
X148793190Y-105740289D02*
X149364619Y-106311717D01*
X149364619Y-106311717D02*
X149364619Y-105692670D01*
D12*
D13*
X144864619Y-108597431D02*
X143864619Y-108597431D01*
X143864619Y-108597431D02*
X143864619Y-108359336D01*
X143864619Y-108359336D02*
X143912238Y-108216479D01*
X143912238Y-108216479D02*
X144007476Y-108121241D01*
X144007476Y-108121241D02*
X144102714Y-108073622D01*
X144102714Y-108073622D02*
X144293190Y-108026003D01*
X144293190Y-108026003D02*
X144436047Y-108026003D01*
X144436047Y-108026003D02*
X144626523Y-108073622D01*
X144626523Y-108073622D02*
X144721761Y-108121241D01*
X144721761Y-108121241D02*
X144817000Y-108216479D01*
X144817000Y-108216479D02*
X144864619Y-108359336D01*
X144864619Y-108359336D02*
X144864619Y-108597431D01*
X144864619Y-107597431D02*
X144197952Y-107597431D01*
X143864619Y-107597431D02*
X143912238Y-107645050D01*
X143912238Y-107645050D02*
X143959857Y-107597431D01*
X143959857Y-107597431D02*
X143912238Y-107549812D01*
X143912238Y-107549812D02*
X143864619Y-107597431D01*
X143864619Y-107597431D02*
X143959857Y-107597431D01*
X144197952Y-107121241D02*
X144864619Y-107121241D01*
X144293190Y-107121241D02*
X144245571Y-107073622D01*
X144245571Y-107073622D02*
X144197952Y-106978384D01*
X144197952Y-106978384D02*
X144197952Y-106835527D01*
X144197952Y-106835527D02*
X144245571Y-106740289D01*
X144245571Y-106740289D02*
X144340809Y-106692670D01*
X144340809Y-106692670D02*
X144864619Y-106692670D01*
X143864619Y-106311717D02*
X143864619Y-105692670D01*
X143864619Y-105692670D02*
X144245571Y-106026003D01*
X144245571Y-106026003D02*
X144245571Y-105883146D01*
X144245571Y-105883146D02*
X144293190Y-105787908D01*
X144293190Y-105787908D02*
X144340809Y-105740289D01*
X144340809Y-105740289D02*
X144436047Y-105692670D01*
X144436047Y-105692670D02*
X144674142Y-105692670D01*
X144674142Y-105692670D02*
X144769380Y-105740289D01*
X144769380Y-105740289D02*
X144817000Y-105787908D01*
X144817000Y-105787908D02*
X144864619Y-105883146D01*
X144864619Y-105883146D02*
X144864619Y-106168860D01*
X144864619Y-106168860D02*
X144817000Y-106264098D01*
X144817000Y-106264098D02*
X144769380Y-106311717D01*
D12*
D13*
X142340809Y-107597431D02*
X142340809Y-107264098D01*
X142864619Y-107121241D02*
X142864619Y-107597431D01*
X142864619Y-107597431D02*
X141864619Y-107597431D01*
X141864619Y-107597431D02*
X141864619Y-107121241D01*
X142197952Y-106692669D02*
X142864619Y-106692669D01*
X142293190Y-106692669D02*
X142245571Y-106645050D01*
X142245571Y-106645050D02*
X142197952Y-106549812D01*
X142197952Y-106549812D02*
X142197952Y-106406955D01*
X142197952Y-106406955D02*
X142245571Y-106311717D01*
X142245571Y-106311717D02*
X142340809Y-106264098D01*
X142340809Y-106264098D02*
X142864619Y-106264098D01*
D12*
D13*
X139364619Y-107526003D02*
X138888428Y-107859336D01*
X139364619Y-108097431D02*
X138364619Y-108097431D01*
X138364619Y-108097431D02*
X138364619Y-107716479D01*
X138364619Y-107716479D02*
X138412238Y-107621241D01*
X138412238Y-107621241D02*
X138459857Y-107573622D01*
X138459857Y-107573622D02*
X138555095Y-107526003D01*
X138555095Y-107526003D02*
X138697952Y-107526003D01*
X138697952Y-107526003D02*
X138793190Y-107573622D01*
X138793190Y-107573622D02*
X138840809Y-107621241D01*
X138840809Y-107621241D02*
X138888428Y-107716479D01*
X138888428Y-107716479D02*
X138888428Y-108097431D01*
X139317000Y-107145050D02*
X139364619Y-107002193D01*
X139364619Y-107002193D02*
X139364619Y-106764098D01*
X139364619Y-106764098D02*
X139317000Y-106668860D01*
X139317000Y-106668860D02*
X139269380Y-106621241D01*
X139269380Y-106621241D02*
X139174142Y-106573622D01*
X139174142Y-106573622D02*
X139078904Y-106573622D01*
X139078904Y-106573622D02*
X138983666Y-106621241D01*
X138983666Y-106621241D02*
X138936047Y-106668860D01*
X138936047Y-106668860D02*
X138888428Y-106764098D01*
X138888428Y-106764098D02*
X138840809Y-106954574D01*
X138840809Y-106954574D02*
X138793190Y-107049812D01*
X138793190Y-107049812D02*
X138745571Y-107097431D01*
X138745571Y-107097431D02*
X138650333Y-107145050D01*
X138650333Y-107145050D02*
X138555095Y-107145050D01*
X138555095Y-107145050D02*
X138459857Y-107097431D01*
X138459857Y-107097431D02*
X138412238Y-107049812D01*
X138412238Y-107049812D02*
X138364619Y-106954574D01*
X138364619Y-106954574D02*
X138364619Y-106716479D01*
X138364619Y-106716479D02*
X138412238Y-106573622D01*
X138364619Y-106287907D02*
X138364619Y-105716479D01*
X139364619Y-106002193D02*
X138364619Y-106002193D01*
D14*
%TO.P,D2,1,K*%
%TO.N,GND*%
X133000000Y-150500000D03*
D15*
%TO.P,D2,2,A*%
%TO.N,D2*%
X130460000Y-150500000D03*
%TD*%
D16*
%TO.P,U2,1,IN*%
%TO.N,En*%
X143020000Y-118260000D03*
%TO.P,U2,2,S1A*%
%TO.N,Net-(U2-S1A)*%
X143020000Y-118900000D03*
%TO.P,U2,3,S1B*%
%TO.N,Net-(U2-S1B)*%
X143020000Y-119540000D03*
%TO.P,U2,4,D1*%
%TO.N,D0*%
X143020000Y-120180000D03*
%TO.P,U2,5,S2A*%
%TO.N,Net-(U2-S2A)*%
X143020000Y-120820000D03*
%TO.P,U2,6,S2B*%
%TO.N,Net-(U2-S2B)*%
X143020000Y-121460000D03*
%TO.P,U2,7,D2*%
%TO.N,D1*%
X143020000Y-122100000D03*
%TO.P,U2,8,GND*%
%TO.N,GND*%
X143020000Y-122740000D03*
%TO.P,U2,9,D3*%
%TO.N,D2*%
X147980000Y-122740000D03*
%TO.P,U2,10,S3B*%
%TO.N,Net-(U2-S3B)*%
X147980000Y-122100000D03*
%TO.P,U2,11,S3A*%
%TO.N,Net-(U2-S3A)*%
X147980000Y-121460000D03*
%TO.P,U2,12,D4*%
%TO.N,D3*%
X147980000Y-120820000D03*
%TO.P,U2,13,S4B*%
%TO.N,GND*%
X147980000Y-120180000D03*
%TO.P,U2,14,S4A*%
%TO.N,Net-(U2-S4A)*%
X147980000Y-119540000D03*
%TO.P,U2,15,EN\u002A*%
%TO.N,GND*%
X147980000Y-118900000D03*
%TO.P,U2,16,VDD*%
%TO.N,Vdd*%
X147980000Y-118260000D03*
%TD*%
D14*
%TO.P,D0,1,K*%
%TO.N,GND*%
X148000000Y-150500000D03*
D15*
%TO.P,D0,2,A*%
%TO.N,D0*%
X145460000Y-150500000D03*
%TD*%
D17*
%TO.P,S1,1A*%
%TO.N,Vdd*%
X144000000Y-95050000D03*
%TO.P,S1,1B*%
%TO.N,Net-(U2-S4A)*%
X144000000Y-103950000D03*
%TO.P,S1,2A*%
%TO.N,Vdd*%
X141460000Y-95050000D03*
%TO.P,S1,2B*%
%TO.N,En*%
X141460000Y-103950000D03*
%TO.P,S1,3A*%
%TO.N,Vdd*%
X138920000Y-95050000D03*
%TO.P,S1,3B*%
%TO.N,RST*%
X138920000Y-103950000D03*
%TD*%
D18*
%TO.P,U3,1,Q1*%
%TO.N,Net-(U2-S2B)*%
X117500000Y-122500000D03*
%TO.P,U3,2,~{Q1}*%
%TO.N,Net-(U3-~{Q1})*%
X117500000Y-123770000D03*
%TO.P,U3,3,CLK1*%
%TO.N,CLK*%
X117500000Y-125040000D03*
%TO.P,U3,4,RESET1*%
%TO.N,RST*%
X117500000Y-126310000D03*
%TO.P,U3,5,D1*%
%TO.N,D2*%
X117500000Y-127580000D03*
%TO.P,U3,6,SET1*%
%TO.N,GND*%
X117500000Y-128850000D03*
%TO.P,U3,7,VSS*%
X117500000Y-130120000D03*
%TO.P,U3,8,SET2*%
X122450000Y-130120000D03*
%TO.P,U3,9,D2*%
%TO.N,D3*%
X122450000Y-128850000D03*
%TO.P,U3,10,RESET2*%
%TO.N,RST*%
X122450000Y-127580000D03*
%TO.P,U3,11,CLK2*%
%TO.N,CLK*%
X122450000Y-126310000D03*
%TO.P,U3,12,~{Q2}*%
%TO.N,Net-(U3-~{Q2})*%
X122450000Y-125040000D03*
%TO.P,U3,13,Q2*%
%TO.N,Net-(U2-S3B)*%
X122450000Y-123770000D03*
%TO.P,U3,14,VDD*%
%TO.N,Vdd*%
X122450000Y-122500000D03*
%TD*%
D19*
%TO.P,J1,1,1*%
%TO.N,GND*%
X98000000Y-129810000D03*
D20*
%TO.P,J1,2,2*%
%TO.N,Vdd*%
X98000000Y-127270000D03*
%TO.P,J1,3,3*%
X98000000Y-124730000D03*
%TO.P,J1,4,4*%
%TO.N,GND*%
X98000000Y-122190000D03*
%TD*%
D14*
%TO.P,Dout,1,K*%
%TO.N,GND*%
X174500000Y-150500000D03*
D15*
%TO.P,Dout,2,A*%
%TO.N,Dout*%
X171960000Y-150500000D03*
%TD*%
D14*
%TO.P,D3,1,K*%
%TO.N,GND*%
X125500000Y-150500000D03*
D15*
%TO.P,D3,2,A*%
%TO.N,D3*%
X122960000Y-150500000D03*
%TD*%
D17*
%TO.P,S2,1A*%
%TO.N,Vdd*%
X154000000Y-95000000D03*
%TO.P,S2,1B*%
%TO.N,Net-(U2-S1A)*%
X154000000Y-103900000D03*
%TO.P,S2,2A*%
%TO.N,Vdd*%
X151460000Y-95000000D03*
%TO.P,S2,2B*%
%TO.N,Net-(U2-S2A)*%
X151460000Y-103900000D03*
%TO.P,S2,3A*%
%TO.N,Vdd*%
X148920000Y-95000000D03*
%TO.P,S2,3B*%
%TO.N,Net-(U2-S3A)*%
X148920000Y-103900000D03*
%TD*%
D21*
%TO.P,SW1,1*%
%TO.N,CLK*%
X121750000Y-102250000D03*
D22*
%TO.P,SW1,2*%
%TO.N,unconnected-(SW1-Pad2)*%
X115250000Y-102250000D03*
%TO.P,SW1,3*%
%TO.N,Vdd*%
X121750000Y-97750000D03*
%TO.P,SW1,4*%
%TO.N,unconnected-(SW1-Pad4)*%
X115250000Y-97750000D03*
%TD*%
D18*
%TO.P,U4,1,Q1*%
%TO.N,Dout*%
X171050000Y-122500000D03*
%TO.P,U4,2,~{Q1}*%
%TO.N,Net-(U4-~{Q1})*%
X171050000Y-123770000D03*
%TO.P,U4,3,CLK1*%
%TO.N,CLK*%
X171050000Y-125040000D03*
%TO.P,U4,4,RESET1*%
%TO.N,RST*%
X171050000Y-126310000D03*
%TO.P,U4,5,D1*%
%TO.N,D0*%
X171050000Y-127580000D03*
%TO.P,U4,6,SET1*%
%TO.N,GND*%
X171050000Y-128850000D03*
%TO.P,U4,7,VSS*%
X171050000Y-130120000D03*
%TO.P,U4,8,SET2*%
X176000000Y-130120000D03*
%TO.P,U4,9,D2*%
%TO.N,D1*%
X176000000Y-128850000D03*
%TO.P,U4,10,RESET2*%
%TO.N,RST*%
X176000000Y-127580000D03*
%TO.P,U4,11,CLK2*%
%TO.N,CLK*%
X176000000Y-126310000D03*
%TO.P,U4,12,~{Q2}*%
%TO.N,Net-(U4-~{Q2})*%
X176000000Y-125040000D03*
%TO.P,U4,13,Q2*%
%TO.N,Net-(U2-S1B)*%
X176000000Y-123770000D03*
%TO.P,U4,14,VDD*%
%TO.N,Vdd*%
X176000000Y-122500000D03*
%TD*%
D14*
%TO.P,D1,1,K*%
%TO.N,GND*%
X140500000Y-150500000D03*
D15*
%TO.P,D1,2,A*%
%TO.N,D1*%
X137960000Y-150500000D03*
%TD*%
D23*
%TO.N,D0*%
X140000000Y-120000000D03*
X167000000Y-129000000D03*
%TO.N,D1*%
X160000000Y-128500000D03*
X140000000Y-122500000D03*
%TO.N,D2*%
X146000000Y-124500000D03*
X117500000Y-127500000D03*
%TO.N,D3*%
X122500000Y-129000000D03*
X150500000Y-121000000D03*
%TO.N,Vdd*%
X189000000Y-122500000D03*
X176500000Y-122500000D03*
X122500000Y-122500000D03*
%TO.N,GND*%
X176000000Y-130000000D03*
X174500000Y-163000000D03*
X125500000Y-163000000D03*
X140500000Y-163000000D03*
X133000000Y-163000000D03*
X117500000Y-130000000D03*
X148000000Y-163000000D03*
X192000000Y-130000000D03*
X94500000Y-133500000D03*
X143000000Y-124500000D03*
%TO.N,Net-(U2-S4A)*%
X151000000Y-119000000D03*
X144000000Y-104000000D03*
%TO.N,Net-(U2-S2A)*%
X138500000Y-120500000D03*
X151500000Y-104000000D03*
%TO.N,Net-(U2-S3A)*%
X149000000Y-104000000D03*
X146000000Y-121500000D03*
%TD*%
D24*
%TO.N,Net-(U2-S2B)*%
X119500000Y-121000000D02*
X119960000Y-121460000D01*
X117500000Y-122500000D02*
X119000000Y-121000000D01*
X119960000Y-121460000D02*
X143020000Y-121460000D01*
X119000000Y-121000000D02*
X119500000Y-121000000D01*
%TO.N,D0*%
X167000000Y-128960000D02*
X167000000Y-129000000D01*
X143020000Y-120180000D02*
X140180000Y-120180000D01*
X166960000Y-129000000D02*
X145460000Y-150500000D01*
X140180000Y-120180000D02*
X140000000Y-120000000D01*
X167000000Y-129000000D02*
X166960000Y-129000000D01*
X171050000Y-127580000D02*
X168380000Y-127580000D01*
X168380000Y-127580000D02*
X167000000Y-128960000D01*
%TO.N,D1*%
X161480000Y-126980000D02*
X160000000Y-128460000D01*
X174350000Y-128850000D02*
X172480000Y-126980000D01*
X160000000Y-128460000D02*
X160000000Y-128500000D01*
X172480000Y-126980000D02*
X161480000Y-126980000D01*
X159960000Y-128500000D02*
X137960000Y-150500000D01*
X140400000Y-122100000D02*
X140000000Y-122500000D01*
X160000000Y-128500000D02*
X159960000Y-128500000D01*
X143020000Y-122100000D02*
X140400000Y-122100000D01*
X176000000Y-128850000D02*
X174350000Y-128850000D01*
%TO.N,D2*%
X117500000Y-127500000D02*
X117080000Y-127580000D01*
X117500000Y-127580000D02*
X117500000Y-127500000D01*
X147980000Y-122740000D02*
X146220000Y-124500000D01*
X116215000Y-128445000D02*
X116215000Y-136255000D01*
X116215000Y-136255000D02*
X130460000Y-150500000D01*
X117080000Y-127580000D02*
X116215000Y-128445000D01*
X146220000Y-124500000D02*
X146000000Y-124500000D01*
X117500000Y-127580000D02*
X118484999Y-127580000D01*
%TO.N,D3*%
X150320000Y-120820000D02*
X150500000Y-121000000D01*
X147980000Y-120820000D02*
X150320000Y-120820000D01*
%TO.N,Dout*%
X177140000Y-125640000D02*
X177285000Y-125785000D01*
X177285000Y-125785000D02*
X177285000Y-145175000D01*
X177285000Y-145175000D02*
X171960000Y-150500000D01*
X171050000Y-122500000D02*
X171800964Y-122500000D01*
X171800964Y-122500000D02*
X174940964Y-125640000D01*
X174940964Y-125640000D02*
X177140000Y-125640000D01*
%TO.N,CLK*%
X120810000Y-126310000D02*
X122450000Y-126310000D01*
X173040000Y-125040000D02*
X174310000Y-126310000D01*
X122450000Y-126310000D02*
X122850000Y-125910000D01*
X174310000Y-126310000D02*
X176000000Y-126310000D01*
X119250000Y-102250000D02*
X121750000Y-102250000D01*
X114040000Y-125040000D02*
X111500000Y-122500000D01*
X171050000Y-125040000D02*
X173040000Y-125040000D01*
X111500000Y-110000000D02*
X119250000Y-102250000D01*
X117500000Y-125040000D02*
X114040000Y-125040000D01*
X119540000Y-125040000D02*
X120810000Y-126310000D01*
X117500000Y-125040000D02*
X119540000Y-125040000D01*
X122850000Y-125910000D02*
X169195001Y-125910000D01*
X111500000Y-122500000D02*
X111500000Y-110000000D01*
X170065001Y-125040000D02*
X171050000Y-125040000D01*
X169195001Y-125910000D02*
X170065001Y-125040000D01*
%TO.N,RST*%
X111100000Y-123100000D02*
X114310000Y-126310000D01*
X136171000Y-101201000D02*
X119299000Y-101201000D01*
X172810000Y-126310000D02*
X174080000Y-127580000D01*
X174080000Y-127580000D02*
X176000000Y-127580000D01*
X171050000Y-126310000D02*
X172810000Y-126310000D01*
X111100000Y-109400000D02*
X111100000Y-123100000D01*
X122450000Y-127580000D02*
X160314314Y-127580000D01*
X138920000Y-103950000D02*
X136171000Y-101201000D01*
X119310000Y-126310000D02*
X120580000Y-127580000D01*
X114310000Y-126310000D02*
X117500000Y-126310000D01*
X160314314Y-127580000D02*
X161584314Y-126310000D01*
X117500000Y-126310000D02*
X119310000Y-126310000D01*
X119299000Y-101201000D02*
X111100000Y-109400000D01*
X161584314Y-126310000D02*
X171050000Y-126310000D01*
X120580000Y-127580000D02*
X122450000Y-127580000D01*
%TO.N,En*%
X141460000Y-103950000D02*
X141460000Y-116700000D01*
X141460000Y-116700000D02*
X143020000Y-118260000D01*
%TO.N,Vdd*%
X99500000Y-156500000D02*
X99500000Y-128770000D01*
X189000000Y-122500000D02*
X189000000Y-155500000D01*
X189000000Y-96500000D02*
X189000000Y-122500000D01*
X189000000Y-155500000D02*
X184500000Y-160000000D01*
X154040000Y-93040000D02*
X154000000Y-93000000D01*
X121750000Y-97750000D02*
X121750000Y-93250000D01*
X138790000Y-95050000D02*
X154040000Y-95050000D01*
X99102500Y-123627500D02*
X99102500Y-94897500D01*
X157000000Y-109240000D02*
X157000000Y-95500000D01*
X101000000Y-93000000D02*
X122000000Y-93000000D01*
X154000000Y-93000000D02*
X185500000Y-93000000D01*
X103000000Y-160000000D02*
X99500000Y-156500000D01*
X184500000Y-160000000D02*
X103000000Y-160000000D01*
X147980000Y-118260000D02*
X157000000Y-109240000D01*
X156500000Y-95000000D02*
X154000000Y-95000000D01*
X99500000Y-128770000D02*
X98000000Y-127270000D01*
X99102500Y-94897500D02*
X101000000Y-93000000D01*
X122000000Y-93000000D02*
X154000000Y-93000000D01*
X157000000Y-95500000D02*
X156500000Y-95000000D01*
X121750000Y-93250000D02*
X122000000Y-93000000D01*
X98000000Y-124730000D02*
X99102500Y-123627500D01*
X154040000Y-95050000D02*
X154040000Y-93040000D01*
X185500000Y-93000000D02*
X189000000Y-96500000D01*
%TO.N,GND*%
X148000000Y-163000000D02*
X140500000Y-163000000D01*
X143977824Y-122740000D02*
X144300000Y-122417824D01*
X94000000Y-120500000D02*
X95500000Y-122000000D01*
X94500000Y-131000000D02*
X95690000Y-129810000D01*
X117500000Y-128850000D02*
X117500000Y-130000000D01*
X94000000Y-92500000D02*
X94000000Y-120500000D01*
X140500000Y-163000000D02*
X100000000Y-163000000D01*
X95500000Y-122000000D02*
X95500000Y-122190000D01*
X147980000Y-120180000D02*
X147000001Y-120180000D01*
X95500000Y-122190000D02*
X98000000Y-122190000D01*
X171050000Y-128850000D02*
X171050000Y-130120000D01*
X144300000Y-122417824D02*
X144300000Y-120700000D01*
X143020000Y-122740000D02*
X143020000Y-124480000D01*
X147000001Y-120180000D02*
X146700000Y-119879999D01*
X144820000Y-120180000D02*
X147980000Y-120180000D01*
X94500000Y-133500000D02*
X94500000Y-131000000D01*
X95690000Y-129810000D02*
X98000000Y-129810000D01*
X192000000Y-157000000D02*
X192000000Y-92500000D01*
X100000000Y-163000000D02*
X94500000Y-157500000D01*
X117500000Y-130000000D02*
X117500000Y-130120000D01*
X147000001Y-118900000D02*
X147980000Y-118900000D01*
X146700000Y-119200001D02*
X147000001Y-118900000D01*
X94500000Y-157500000D02*
X94500000Y-133500000D01*
X143020000Y-124480000D02*
X143000000Y-124500000D01*
X171050000Y-130120000D02*
X176000000Y-130000000D01*
X192000000Y-92500000D02*
X189500000Y-90000000D01*
X146700000Y-119879999D02*
X146700000Y-119200001D01*
X189500000Y-90000000D02*
X96500000Y-90000000D01*
X176000000Y-130000000D02*
X176000000Y-130120000D01*
X148000000Y-163000000D02*
X186000000Y-163000000D01*
X144300000Y-120700000D02*
X144820000Y-120180000D01*
X186000000Y-163000000D02*
X192000000Y-157000000D01*
X96500000Y-90000000D02*
X94000000Y-92500000D01*
X143020000Y-122740000D02*
X143977824Y-122740000D01*
X122450000Y-130120000D02*
X117500000Y-130120000D01*
%TO.N,Net-(U2-S4A)*%
X150460000Y-119540000D02*
X151000000Y-119000000D01*
X147980000Y-119540000D02*
X150460000Y-119540000D01*
%TO.N,Net-(U2-S2A)*%
X143020000Y-120820000D02*
X138820000Y-120820000D01*
X138820000Y-120820000D02*
X138500000Y-120500000D01*
%TO.N,Net-(U2-S1A)*%
X143020000Y-118900000D02*
X143999999Y-118900000D01*
X154000000Y-108899999D02*
X154000000Y-103900000D01*
X143999999Y-118900000D02*
X154000000Y-108899999D01*
%TO.N,Net-(U2-S3A)*%
X147980000Y-121460000D02*
X146040000Y-121460000D01*
X146040000Y-121460000D02*
X146000000Y-121500000D01*
%TO.N,Net-(U2-S1B)*%
X118559036Y-123100000D02*
X116440964Y-123100000D01*
X123509036Y-124370000D02*
X119829036Y-124370000D01*
X146848529Y-125500000D02*
X124639036Y-125500000D01*
X176000000Y-123770000D02*
X176984999Y-123770000D01*
X141792176Y-119540000D02*
X143020000Y-119540000D01*
X116215000Y-122125964D02*
X118940964Y-119400000D01*
X116215000Y-122874036D02*
X116215000Y-122125964D01*
X141652176Y-119400000D02*
X141792176Y-119540000D01*
X118940964Y-119400000D02*
X141652176Y-119400000D01*
X173910507Y-118751471D02*
X153597058Y-118751471D01*
X124639036Y-125500000D02*
X123509036Y-124370000D01*
X119829036Y-124370000D02*
X118559036Y-123100000D01*
X116440964Y-123100000D02*
X116215000Y-122874036D01*
X177285000Y-123469999D02*
X177285000Y-122125964D01*
X176984999Y-123770000D02*
X177285000Y-123469999D01*
X153597058Y-118751471D02*
X146848529Y-125500000D01*
X177285000Y-122125964D02*
X173910507Y-118751471D01*
%TO.N,Net-(U2-S3B)*%
X143900000Y-125100000D02*
X146900000Y-122100000D01*
X122450000Y-123770000D02*
X141421471Y-123770000D01*
X141421471Y-123770000D02*
X142751471Y-125100000D01*
X142751471Y-125100000D02*
X143900000Y-125100000D01*
X146900000Y-122100000D02*
X147980000Y-122100000D01*
%TD*%
M02*
