%TF.GenerationSoftware,KiCad,Pcbnew,8.0.1*%
%TF.CreationDate,2024-04-13T17:17:53+05:30*%
%TF.ProjectId,piso,7069736f-2e6b-4696-9361-645f70636258,rev?*%
%TF.SameCoordinates,Original*%
%TF.FileFunction,Legend,Top*%
%TF.FilePolarity,Positive*%
%FSLAX46Y46*%
G04 Gerber Fmt 4.6, Leading zero omitted, Abs format (unit mm)*
G04 Created by KiCad (PCBNEW 8.0.1) date 2024-04-13 17:17:53*
%MOMM*%
%LPD*%
G01*
G04 APERTURE LIST*
%ADD10C,0.150000*%
%ADD11C,0.120000*%
%ADD12C,0.127000*%
%ADD13C,0.200000*%
G04 APERTURE END LIST*
D10*
X130991905Y-154914819D02*
X130991905Y-153914819D01*
X130991905Y-153914819D02*
X131230000Y-153914819D01*
X131230000Y-153914819D02*
X131372857Y-153962438D01*
X131372857Y-153962438D02*
X131468095Y-154057676D01*
X131468095Y-154057676D02*
X131515714Y-154152914D01*
X131515714Y-154152914D02*
X131563333Y-154343390D01*
X131563333Y-154343390D02*
X131563333Y-154486247D01*
X131563333Y-154486247D02*
X131515714Y-154676723D01*
X131515714Y-154676723D02*
X131468095Y-154771961D01*
X131468095Y-154771961D02*
X131372857Y-154867200D01*
X131372857Y-154867200D02*
X131230000Y-154914819D01*
X131230000Y-154914819D02*
X130991905Y-154914819D01*
X131944286Y-154010057D02*
X131991905Y-153962438D01*
X131991905Y-153962438D02*
X132087143Y-153914819D01*
X132087143Y-153914819D02*
X132325238Y-153914819D01*
X132325238Y-153914819D02*
X132420476Y-153962438D01*
X132420476Y-153962438D02*
X132468095Y-154010057D01*
X132468095Y-154010057D02*
X132515714Y-154105295D01*
X132515714Y-154105295D02*
X132515714Y-154200533D01*
X132515714Y-154200533D02*
X132468095Y-154343390D01*
X132468095Y-154343390D02*
X131896667Y-154914819D01*
X131896667Y-154914819D02*
X132515714Y-154914819D01*
X143817935Y-116103363D02*
X143817935Y-116980753D01*
X143817935Y-116980753D02*
X143869547Y-117083975D01*
X143869547Y-117083975D02*
X143921158Y-117135587D01*
X143921158Y-117135587D02*
X144024380Y-117187198D01*
X144024380Y-117187198D02*
X144230825Y-117187198D01*
X144230825Y-117187198D02*
X144334047Y-117135587D01*
X144334047Y-117135587D02*
X144385659Y-117083975D01*
X144385659Y-117083975D02*
X144437270Y-116980753D01*
X144437270Y-116980753D02*
X144437270Y-116103363D01*
X144901770Y-116206585D02*
X144953381Y-116154974D01*
X144953381Y-116154974D02*
X145056604Y-116103363D01*
X145056604Y-116103363D02*
X145314660Y-116103363D01*
X145314660Y-116103363D02*
X145417882Y-116154974D01*
X145417882Y-116154974D02*
X145469493Y-116206585D01*
X145469493Y-116206585D02*
X145521105Y-116309807D01*
X145521105Y-116309807D02*
X145521105Y-116413030D01*
X145521105Y-116413030D02*
X145469493Y-116567863D01*
X145469493Y-116567863D02*
X144850159Y-117187198D01*
X144850159Y-117187198D02*
X145521105Y-117187198D01*
X145991905Y-154914819D02*
X145991905Y-153914819D01*
X145991905Y-153914819D02*
X146230000Y-153914819D01*
X146230000Y-153914819D02*
X146372857Y-153962438D01*
X146372857Y-153962438D02*
X146468095Y-154057676D01*
X146468095Y-154057676D02*
X146515714Y-154152914D01*
X146515714Y-154152914D02*
X146563333Y-154343390D01*
X146563333Y-154343390D02*
X146563333Y-154486247D01*
X146563333Y-154486247D02*
X146515714Y-154676723D01*
X146515714Y-154676723D02*
X146468095Y-154771961D01*
X146468095Y-154771961D02*
X146372857Y-154867200D01*
X146372857Y-154867200D02*
X146230000Y-154914819D01*
X146230000Y-154914819D02*
X145991905Y-154914819D01*
X147182381Y-153914819D02*
X147277619Y-153914819D01*
X147277619Y-153914819D02*
X147372857Y-153962438D01*
X147372857Y-153962438D02*
X147420476Y-154010057D01*
X147420476Y-154010057D02*
X147468095Y-154105295D01*
X147468095Y-154105295D02*
X147515714Y-154295771D01*
X147515714Y-154295771D02*
X147515714Y-154533866D01*
X147515714Y-154533866D02*
X147468095Y-154724342D01*
X147468095Y-154724342D02*
X147420476Y-154819580D01*
X147420476Y-154819580D02*
X147372857Y-154867200D01*
X147372857Y-154867200D02*
X147277619Y-154914819D01*
X147277619Y-154914819D02*
X147182381Y-154914819D01*
X147182381Y-154914819D02*
X147087143Y-154867200D01*
X147087143Y-154867200D02*
X147039524Y-154819580D01*
X147039524Y-154819580D02*
X146991905Y-154724342D01*
X146991905Y-154724342D02*
X146944286Y-154533866D01*
X146944286Y-154533866D02*
X146944286Y-154295771D01*
X146944286Y-154295771D02*
X146991905Y-154105295D01*
X146991905Y-154105295D02*
X147039524Y-154010057D01*
X147039524Y-154010057D02*
X147087143Y-153962438D01*
X147087143Y-153962438D02*
X147182381Y-153914819D01*
X141867200Y-100261904D02*
X141914819Y-100119047D01*
X141914819Y-100119047D02*
X141914819Y-99880952D01*
X141914819Y-99880952D02*
X141867200Y-99785714D01*
X141867200Y-99785714D02*
X141819580Y-99738095D01*
X141819580Y-99738095D02*
X141724342Y-99690476D01*
X141724342Y-99690476D02*
X141629104Y-99690476D01*
X141629104Y-99690476D02*
X141533866Y-99738095D01*
X141533866Y-99738095D02*
X141486247Y-99785714D01*
X141486247Y-99785714D02*
X141438628Y-99880952D01*
X141438628Y-99880952D02*
X141391009Y-100071428D01*
X141391009Y-100071428D02*
X141343390Y-100166666D01*
X141343390Y-100166666D02*
X141295771Y-100214285D01*
X141295771Y-100214285D02*
X141200533Y-100261904D01*
X141200533Y-100261904D02*
X141105295Y-100261904D01*
X141105295Y-100261904D02*
X141010057Y-100214285D01*
X141010057Y-100214285D02*
X140962438Y-100166666D01*
X140962438Y-100166666D02*
X140914819Y-100071428D01*
X140914819Y-100071428D02*
X140914819Y-99833333D01*
X140914819Y-99833333D02*
X140962438Y-99690476D01*
X141914819Y-98738095D02*
X141914819Y-99309523D01*
X141914819Y-99023809D02*
X140914819Y-99023809D01*
X140914819Y-99023809D02*
X141057676Y-99119047D01*
X141057676Y-99119047D02*
X141152914Y-99214285D01*
X141152914Y-99214285D02*
X141200533Y-99309523D01*
X118788095Y-120329819D02*
X118788095Y-121139342D01*
X118788095Y-121139342D02*
X118835714Y-121234580D01*
X118835714Y-121234580D02*
X118883333Y-121282200D01*
X118883333Y-121282200D02*
X118978571Y-121329819D01*
X118978571Y-121329819D02*
X119169047Y-121329819D01*
X119169047Y-121329819D02*
X119264285Y-121282200D01*
X119264285Y-121282200D02*
X119311904Y-121234580D01*
X119311904Y-121234580D02*
X119359523Y-121139342D01*
X119359523Y-121139342D02*
X119359523Y-120329819D01*
X119740476Y-120329819D02*
X120359523Y-120329819D01*
X120359523Y-120329819D02*
X120026190Y-120710771D01*
X120026190Y-120710771D02*
X120169047Y-120710771D01*
X120169047Y-120710771D02*
X120264285Y-120758390D01*
X120264285Y-120758390D02*
X120311904Y-120806009D01*
X120311904Y-120806009D02*
X120359523Y-120901247D01*
X120359523Y-120901247D02*
X120359523Y-121139342D01*
X120359523Y-121139342D02*
X120311904Y-121234580D01*
X120311904Y-121234580D02*
X120264285Y-121282200D01*
X120264285Y-121282200D02*
X120169047Y-121329819D01*
X120169047Y-121329819D02*
X119883333Y-121329819D01*
X119883333Y-121329819D02*
X119788095Y-121282200D01*
X119788095Y-121282200D02*
X119740476Y-121234580D01*
X95354295Y-129286666D02*
X95925723Y-129286666D01*
X95925723Y-129286666D02*
X96040009Y-129324761D01*
X96040009Y-129324761D02*
X96116200Y-129400952D01*
X96116200Y-129400952D02*
X96154295Y-129515237D01*
X96154295Y-129515237D02*
X96154295Y-129591428D01*
X96154295Y-128486666D02*
X96154295Y-128943809D01*
X96154295Y-128715237D02*
X95354295Y-128715237D01*
X95354295Y-128715237D02*
X95468580Y-128791428D01*
X95468580Y-128791428D02*
X95544771Y-128867618D01*
X95544771Y-128867618D02*
X95582866Y-128943809D01*
X171777619Y-154914819D02*
X171777619Y-153914819D01*
X171777619Y-153914819D02*
X172015714Y-153914819D01*
X172015714Y-153914819D02*
X172158571Y-153962438D01*
X172158571Y-153962438D02*
X172253809Y-154057676D01*
X172253809Y-154057676D02*
X172301428Y-154152914D01*
X172301428Y-154152914D02*
X172349047Y-154343390D01*
X172349047Y-154343390D02*
X172349047Y-154486247D01*
X172349047Y-154486247D02*
X172301428Y-154676723D01*
X172301428Y-154676723D02*
X172253809Y-154771961D01*
X172253809Y-154771961D02*
X172158571Y-154867200D01*
X172158571Y-154867200D02*
X172015714Y-154914819D01*
X172015714Y-154914819D02*
X171777619Y-154914819D01*
X172920476Y-154914819D02*
X172825238Y-154867200D01*
X172825238Y-154867200D02*
X172777619Y-154819580D01*
X172777619Y-154819580D02*
X172730000Y-154724342D01*
X172730000Y-154724342D02*
X172730000Y-154438628D01*
X172730000Y-154438628D02*
X172777619Y-154343390D01*
X172777619Y-154343390D02*
X172825238Y-154295771D01*
X172825238Y-154295771D02*
X172920476Y-154248152D01*
X172920476Y-154248152D02*
X173063333Y-154248152D01*
X173063333Y-154248152D02*
X173158571Y-154295771D01*
X173158571Y-154295771D02*
X173206190Y-154343390D01*
X173206190Y-154343390D02*
X173253809Y-154438628D01*
X173253809Y-154438628D02*
X173253809Y-154724342D01*
X173253809Y-154724342D02*
X173206190Y-154819580D01*
X173206190Y-154819580D02*
X173158571Y-154867200D01*
X173158571Y-154867200D02*
X173063333Y-154914819D01*
X173063333Y-154914819D02*
X172920476Y-154914819D01*
X174110952Y-154248152D02*
X174110952Y-154914819D01*
X173682381Y-154248152D02*
X173682381Y-154771961D01*
X173682381Y-154771961D02*
X173730000Y-154867200D01*
X173730000Y-154867200D02*
X173825238Y-154914819D01*
X173825238Y-154914819D02*
X173968095Y-154914819D01*
X173968095Y-154914819D02*
X174063333Y-154867200D01*
X174063333Y-154867200D02*
X174110952Y-154819580D01*
X174444286Y-154248152D02*
X174825238Y-154248152D01*
X174587143Y-153914819D02*
X174587143Y-154771961D01*
X174587143Y-154771961D02*
X174634762Y-154867200D01*
X174634762Y-154867200D02*
X174730000Y-154914819D01*
X174730000Y-154914819D02*
X174825238Y-154914819D01*
X123491905Y-154914819D02*
X123491905Y-153914819D01*
X123491905Y-153914819D02*
X123730000Y-153914819D01*
X123730000Y-153914819D02*
X123872857Y-153962438D01*
X123872857Y-153962438D02*
X123968095Y-154057676D01*
X123968095Y-154057676D02*
X124015714Y-154152914D01*
X124015714Y-154152914D02*
X124063333Y-154343390D01*
X124063333Y-154343390D02*
X124063333Y-154486247D01*
X124063333Y-154486247D02*
X124015714Y-154676723D01*
X124015714Y-154676723D02*
X123968095Y-154771961D01*
X123968095Y-154771961D02*
X123872857Y-154867200D01*
X123872857Y-154867200D02*
X123730000Y-154914819D01*
X123730000Y-154914819D02*
X123491905Y-154914819D01*
X124396667Y-153914819D02*
X125015714Y-153914819D01*
X125015714Y-153914819D02*
X124682381Y-154295771D01*
X124682381Y-154295771D02*
X124825238Y-154295771D01*
X124825238Y-154295771D02*
X124920476Y-154343390D01*
X124920476Y-154343390D02*
X124968095Y-154391009D01*
X124968095Y-154391009D02*
X125015714Y-154486247D01*
X125015714Y-154486247D02*
X125015714Y-154724342D01*
X125015714Y-154724342D02*
X124968095Y-154819580D01*
X124968095Y-154819580D02*
X124920476Y-154867200D01*
X124920476Y-154867200D02*
X124825238Y-154914819D01*
X124825238Y-154914819D02*
X124539524Y-154914819D01*
X124539524Y-154914819D02*
X124444286Y-154867200D01*
X124444286Y-154867200D02*
X124396667Y-154819580D01*
X151867200Y-100211904D02*
X151914819Y-100069047D01*
X151914819Y-100069047D02*
X151914819Y-99830952D01*
X151914819Y-99830952D02*
X151867200Y-99735714D01*
X151867200Y-99735714D02*
X151819580Y-99688095D01*
X151819580Y-99688095D02*
X151724342Y-99640476D01*
X151724342Y-99640476D02*
X151629104Y-99640476D01*
X151629104Y-99640476D02*
X151533866Y-99688095D01*
X151533866Y-99688095D02*
X151486247Y-99735714D01*
X151486247Y-99735714D02*
X151438628Y-99830952D01*
X151438628Y-99830952D02*
X151391009Y-100021428D01*
X151391009Y-100021428D02*
X151343390Y-100116666D01*
X151343390Y-100116666D02*
X151295771Y-100164285D01*
X151295771Y-100164285D02*
X151200533Y-100211904D01*
X151200533Y-100211904D02*
X151105295Y-100211904D01*
X151105295Y-100211904D02*
X151010057Y-100164285D01*
X151010057Y-100164285D02*
X150962438Y-100116666D01*
X150962438Y-100116666D02*
X150914819Y-100021428D01*
X150914819Y-100021428D02*
X150914819Y-99783333D01*
X150914819Y-99783333D02*
X150962438Y-99640476D01*
X151010057Y-99259523D02*
X150962438Y-99211904D01*
X150962438Y-99211904D02*
X150914819Y-99116666D01*
X150914819Y-99116666D02*
X150914819Y-98878571D01*
X150914819Y-98878571D02*
X150962438Y-98783333D01*
X150962438Y-98783333D02*
X151010057Y-98735714D01*
X151010057Y-98735714D02*
X151105295Y-98688095D01*
X151105295Y-98688095D02*
X151200533Y-98688095D01*
X151200533Y-98688095D02*
X151343390Y-98735714D01*
X151343390Y-98735714D02*
X151914819Y-99307142D01*
X151914819Y-99307142D02*
X151914819Y-98688095D01*
X117659143Y-100253917D02*
X117749235Y-100283947D01*
X117749235Y-100283947D02*
X117899388Y-100283947D01*
X117899388Y-100283947D02*
X117959449Y-100253917D01*
X117959449Y-100253917D02*
X117989480Y-100223886D01*
X117989480Y-100223886D02*
X118019510Y-100163825D01*
X118019510Y-100163825D02*
X118019510Y-100103763D01*
X118019510Y-100103763D02*
X117989480Y-100043702D01*
X117989480Y-100043702D02*
X117959449Y-100013672D01*
X117959449Y-100013672D02*
X117899388Y-99983641D01*
X117899388Y-99983641D02*
X117779265Y-99953610D01*
X117779265Y-99953610D02*
X117719204Y-99923580D01*
X117719204Y-99923580D02*
X117689174Y-99893549D01*
X117689174Y-99893549D02*
X117659143Y-99833488D01*
X117659143Y-99833488D02*
X117659143Y-99773427D01*
X117659143Y-99773427D02*
X117689174Y-99713365D01*
X117689174Y-99713365D02*
X117719204Y-99683335D01*
X117719204Y-99683335D02*
X117779265Y-99653304D01*
X117779265Y-99653304D02*
X117929419Y-99653304D01*
X117929419Y-99653304D02*
X118019510Y-99683335D01*
X118229724Y-99653304D02*
X118379877Y-100283947D01*
X118379877Y-100283947D02*
X118500000Y-99833488D01*
X118500000Y-99833488D02*
X118620122Y-100283947D01*
X118620122Y-100283947D02*
X118770276Y-99653304D01*
X119340857Y-100283947D02*
X118980490Y-100283947D01*
X119160674Y-100283947D02*
X119160674Y-99653304D01*
X119160674Y-99653304D02*
X119100612Y-99743396D01*
X119100612Y-99743396D02*
X119040551Y-99803457D01*
X119040551Y-99803457D02*
X118980490Y-99833488D01*
X172338095Y-120329819D02*
X172338095Y-121139342D01*
X172338095Y-121139342D02*
X172385714Y-121234580D01*
X172385714Y-121234580D02*
X172433333Y-121282200D01*
X172433333Y-121282200D02*
X172528571Y-121329819D01*
X172528571Y-121329819D02*
X172719047Y-121329819D01*
X172719047Y-121329819D02*
X172814285Y-121282200D01*
X172814285Y-121282200D02*
X172861904Y-121234580D01*
X172861904Y-121234580D02*
X172909523Y-121139342D01*
X172909523Y-121139342D02*
X172909523Y-120329819D01*
X173814285Y-120663152D02*
X173814285Y-121329819D01*
X173576190Y-120282200D02*
X173338095Y-120996485D01*
X173338095Y-120996485D02*
X173957142Y-120996485D01*
X138491905Y-154914819D02*
X138491905Y-153914819D01*
X138491905Y-153914819D02*
X138730000Y-153914819D01*
X138730000Y-153914819D02*
X138872857Y-153962438D01*
X138872857Y-153962438D02*
X138968095Y-154057676D01*
X138968095Y-154057676D02*
X139015714Y-154152914D01*
X139015714Y-154152914D02*
X139063333Y-154343390D01*
X139063333Y-154343390D02*
X139063333Y-154486247D01*
X139063333Y-154486247D02*
X139015714Y-154676723D01*
X139015714Y-154676723D02*
X138968095Y-154771961D01*
X138968095Y-154771961D02*
X138872857Y-154867200D01*
X138872857Y-154867200D02*
X138730000Y-154914819D01*
X138730000Y-154914819D02*
X138491905Y-154914819D01*
X140015714Y-154914819D02*
X139444286Y-154914819D01*
X139730000Y-154914819D02*
X139730000Y-153914819D01*
X139730000Y-153914819D02*
X139634762Y-154057676D01*
X139634762Y-154057676D02*
X139539524Y-154152914D01*
X139539524Y-154152914D02*
X139444286Y-154200533D01*
D11*
%TO.C,D2*%
X134290000Y-152045000D02*
X134290000Y-148955000D01*
X128740000Y-150500462D02*
G75*
G02*
X134290000Y-148955170I2990000J462D01*
G01*
X134289999Y-152044830D02*
G75*
G02*
X128740001Y-150499538I-2559999J1544830D01*
G01*
X134230000Y-150500000D02*
G75*
G02*
X129230000Y-150500000I-2500000J0D01*
G01*
X129230000Y-150500000D02*
G75*
G02*
X134230000Y-150500000I2500000J0D01*
G01*
D12*
%TO.C,U2*%
X143545000Y-117925000D02*
X147455000Y-117925000D01*
X143545000Y-123075000D02*
X147455000Y-123075000D01*
D13*
X141560000Y-118050000D02*
G75*
G02*
X141360000Y-118050000I-100000J0D01*
G01*
X141360000Y-118050000D02*
G75*
G02*
X141560000Y-118050000I100000J0D01*
G01*
D11*
%TO.C,D0*%
X149290000Y-152045000D02*
X149290000Y-148955000D01*
X143740000Y-150500462D02*
G75*
G02*
X149290000Y-148955170I2990000J462D01*
G01*
X149289999Y-152044830D02*
G75*
G02*
X143740001Y-150499538I-2559999J1544830D01*
G01*
X149230000Y-150500000D02*
G75*
G02*
X144230000Y-150500000I-2500000J0D01*
G01*
X144230000Y-150500000D02*
G75*
G02*
X149230000Y-150500000I2500000J0D01*
G01*
D12*
%TO.C,S1*%
X137150000Y-96400000D02*
X145770000Y-96400000D01*
X137150000Y-102600000D02*
X137150000Y-96400000D01*
X145770000Y-96400000D02*
X145770000Y-102600000D01*
X145770000Y-102600000D02*
X137150000Y-102600000D01*
D13*
X144530000Y-93750000D02*
G75*
G02*
X144330000Y-93750000I-100000J0D01*
G01*
X144330000Y-93750000D02*
G75*
G02*
X144530000Y-93750000I100000J0D01*
G01*
D12*
%TO.C,U3*%
X118805000Y-121985000D02*
X121145000Y-121985000D01*
X118805000Y-130635000D02*
X121145000Y-130635000D01*
D13*
X116025000Y-122210000D02*
G75*
G02*
X115825000Y-122210000I-100000J0D01*
G01*
X115825000Y-122210000D02*
G75*
G02*
X116025000Y-122210000I100000J0D01*
G01*
D12*
%TO.C,J1*%
X96730000Y-120670000D02*
X96730000Y-131330000D01*
X96730000Y-131330000D02*
X99270000Y-131330000D01*
X99270000Y-120670000D02*
X96730000Y-120670000D01*
X99270000Y-131330000D02*
X99270000Y-120670000D01*
D13*
X98150000Y-131960000D02*
G75*
G02*
X97950000Y-131960000I-100000J0D01*
G01*
X97950000Y-131960000D02*
G75*
G02*
X98150000Y-131960000I100000J0D01*
G01*
D11*
%TO.C,Dout*%
X175790000Y-152045000D02*
X175790000Y-148955000D01*
X170240000Y-150500462D02*
G75*
G02*
X175790000Y-148955170I2990000J462D01*
G01*
X175789999Y-152044830D02*
G75*
G02*
X170240001Y-150499538I-2559999J1544830D01*
G01*
X175730000Y-150500000D02*
G75*
G02*
X170730000Y-150500000I-2500000J0D01*
G01*
X170730000Y-150500000D02*
G75*
G02*
X175730000Y-150500000I2500000J0D01*
G01*
%TO.C,D3*%
X126790000Y-152045000D02*
X126790000Y-148955000D01*
X121240000Y-150500462D02*
G75*
G02*
X126790000Y-148955170I2990000J462D01*
G01*
X126789999Y-152044830D02*
G75*
G02*
X121240001Y-150499538I-2559999J1544830D01*
G01*
X126730000Y-150500000D02*
G75*
G02*
X121730000Y-150500000I-2500000J0D01*
G01*
X121730000Y-150500000D02*
G75*
G02*
X126730000Y-150500000I2500000J0D01*
G01*
D12*
%TO.C,S2*%
X147150000Y-96350000D02*
X155770000Y-96350000D01*
X147150000Y-102550000D02*
X147150000Y-96350000D01*
X155770000Y-96350000D02*
X155770000Y-102550000D01*
X155770000Y-102550000D02*
X147150000Y-102550000D01*
D13*
X154530000Y-93700000D02*
G75*
G02*
X154330000Y-93700000I-100000J0D01*
G01*
X154330000Y-93700000D02*
G75*
G02*
X154530000Y-93700000I100000J0D01*
G01*
D12*
%TO.C,SW1*%
X115500000Y-101150000D02*
X115500000Y-98850000D01*
X116200000Y-97005000D02*
X120800000Y-97005000D01*
X120700000Y-102995000D02*
X116200000Y-102995000D01*
X121495000Y-101150000D02*
X121495000Y-98850000D01*
X120255000Y-100000000D02*
G75*
G02*
X116745000Y-100000000I-1755000J0D01*
G01*
X116745000Y-100000000D02*
G75*
G02*
X120255000Y-100000000I1755000J0D01*
G01*
D13*
X123045000Y-102250000D02*
G75*
G02*
X122845000Y-102250000I-100000J0D01*
G01*
X122845000Y-102250000D02*
G75*
G02*
X123045000Y-102250000I100000J0D01*
G01*
D12*
%TO.C,U4*%
X172355000Y-121985000D02*
X174695000Y-121985000D01*
X172355000Y-130635000D02*
X174695000Y-130635000D01*
D13*
X169575000Y-122210000D02*
G75*
G02*
X169375000Y-122210000I-100000J0D01*
G01*
X169375000Y-122210000D02*
G75*
G02*
X169575000Y-122210000I100000J0D01*
G01*
D11*
%TO.C,D1*%
X141790000Y-152045000D02*
X141790000Y-148955000D01*
X136240000Y-150500462D02*
G75*
G02*
X141790000Y-148955170I2990000J462D01*
G01*
X141789999Y-152044830D02*
G75*
G02*
X136240001Y-150499538I-2559999J1544830D01*
G01*
X141730000Y-150500000D02*
G75*
G02*
X136730000Y-150500000I-2500000J0D01*
G01*
X136730000Y-150500000D02*
G75*
G02*
X141730000Y-150500000I2500000J0D01*
G01*
%TD*%
M02*
