%TF.GenerationSoftware,KiCad,Pcbnew,8.0.1*%
%TF.CreationDate,2024-04-13T21:36:45+05:30*%
%TF.ProjectId,piso,7069736f-2e6b-4696-9361-645f70636258,rev?*%
%TF.SameCoordinates,Original*%
%TF.FileFunction,Paste,Top*%
%TF.FilePolarity,Positive*%
%FSLAX46Y46*%
G04 Gerber Fmt 4.6, Leading zero omitted, Abs format (unit mm)*
G04 Created by KiCad (PCBNEW 8.0.1) date 2024-04-13 21:36:45*
%MOMM*%
%LPD*%
G01*
G04 APERTURE LIST*
G04 Aperture macros list*
%AMRoundRect*
0 Rectangle with rounded corners*
0 $1 Rounding radius*
0 $2 $3 $4 $5 $6 $7 $8 $9 X,Y pos of 4 corners*
0 Add a 4 corners polygon primitive as box body*
4,1,4,$2,$3,$4,$5,$6,$7,$8,$9,$2,$3,0*
0 Add four circle primitives for the rounded corners*
1,1,$1+$1,$2,$3*
1,1,$1+$1,$4,$5*
1,1,$1+$1,$6,$7*
1,1,$1+$1,$8,$9*
0 Add four rect primitives between the rounded corners*
20,1,$1+$1,$2,$3,$4,$5,0*
20,1,$1+$1,$4,$5,$6,$7,0*
20,1,$1+$1,$6,$7,$8,$9,0*
20,1,$1+$1,$8,$9,$2,$3,0*%
G04 Aperture macros list end*
%ADD10RoundRect,0.094000X0.416000X-0.376000X0.416000X0.376000X-0.416000X0.376000X-0.416000X-0.376000X0*%
%ADD11RoundRect,0.020500X-0.959500X-0.184500X0.959500X-0.184500X0.959500X0.184500X-0.959500X0.184500X0*%
%ADD12R,1.100000X1.500000*%
%ADD13RoundRect,0.090000X-0.895000X-0.210000X0.895000X-0.210000X0.895000X0.210000X-0.895000X0.210000X0*%
G04 APERTURE END LIST*
D10*
%TO.C,R5*%
X172000000Y-146080000D03*
X172000000Y-144500000D03*
%TD*%
%TO.C,R4*%
X147000000Y-145790000D03*
X147000000Y-144210000D03*
%TD*%
%TO.C,R3*%
X138500000Y-145580000D03*
X138500000Y-144000000D03*
%TD*%
%TO.C,R2*%
X130000000Y-144580000D03*
X130000000Y-143000000D03*
%TD*%
%TO.C,R1*%
X123000000Y-146080000D03*
X123000000Y-144500000D03*
%TD*%
D11*
%TO.C,U2*%
X143020000Y-118260000D03*
X143020000Y-118900000D03*
X143020000Y-119540000D03*
X143020000Y-120180000D03*
X143020000Y-120820000D03*
X143020000Y-121460000D03*
X143020000Y-122100000D03*
X143020000Y-122740000D03*
X147980000Y-122740000D03*
X147980000Y-122100000D03*
X147980000Y-121460000D03*
X147980000Y-120820000D03*
X147980000Y-120180000D03*
X147980000Y-119540000D03*
X147980000Y-118900000D03*
X147980000Y-118260000D03*
%TD*%
D12*
%TO.C,S1*%
X144000000Y-95050000D03*
X144000000Y-103950000D03*
X141460000Y-95050000D03*
X141460000Y-103950000D03*
X138920000Y-95050000D03*
X138920000Y-103950000D03*
%TD*%
D13*
%TO.C,U3*%
X117500000Y-122500000D03*
X117500000Y-123770000D03*
X117500000Y-125040000D03*
X117500000Y-126310000D03*
X117500000Y-127580000D03*
X117500000Y-128850000D03*
X117500000Y-130120000D03*
X122450000Y-130120000D03*
X122450000Y-128850000D03*
X122450000Y-127580000D03*
X122450000Y-126310000D03*
X122450000Y-125040000D03*
X122450000Y-123770000D03*
X122450000Y-122500000D03*
%TD*%
D12*
%TO.C,S2*%
X154000000Y-95000000D03*
X154000000Y-103900000D03*
X151460000Y-95000000D03*
X151460000Y-103900000D03*
X148920000Y-95000000D03*
X148920000Y-103900000D03*
%TD*%
D13*
%TO.C,U4*%
X171050000Y-122500000D03*
X171050000Y-123770000D03*
X171050000Y-125040000D03*
X171050000Y-126310000D03*
X171050000Y-127580000D03*
X171050000Y-128850000D03*
X171050000Y-130120000D03*
X176000000Y-130120000D03*
X176000000Y-128850000D03*
X176000000Y-127580000D03*
X176000000Y-126310000D03*
X176000000Y-125040000D03*
X176000000Y-123770000D03*
X176000000Y-122500000D03*
%TD*%
M02*
