M48
; DRILL file {KiCad 8.0.1} date 2024-04-13T21:36:53+0530
; FORMAT={-:-/ absolute / metric / decimal}
; #@! TF.CreationDate,2024-04-13T21:36:53+05:30
; #@! TF.GenerationSoftware,Kicad,Pcbnew,8.0.1
; #@! TF.FileFunction,Plated,1,2,PTH
FMAT,2
METRIC
; #@! TA.AperFunction,Plated,PTH,ViaDrill
T1C0.300
; #@! TA.AperFunction,Plated,PTH,ComponentDrill
T2C0.900
; #@! TA.AperFunction,Plated,PTH,ComponentDrill
T3C0.990
; #@! TA.AperFunction,Plated,PTH,ComponentDrill
T4C1.070
%
G90
G05
T1
X94.5Y-133.5
X117.5Y-127.5
X117.5Y-130.0
X122.5Y-122.5
X122.5Y-129.0
X123.0Y-144.5
X125.5Y-163.0
X133.0Y-163.0
X138.5Y-120.5
X140.0Y-120.0
X140.0Y-122.5
X140.5Y-163.0
X143.0Y-124.5
X144.0Y-104.0
X146.0Y-121.5
X146.0Y-124.5
X148.0Y-163.0
X149.0Y-104.0
X150.5Y-121.0
X151.0Y-119.0
X151.5Y-104.0
X160.0Y-128.5
X167.0Y-129.0
X174.5Y-163.0
X176.0Y-130.0
X176.5Y-122.5
X189.0Y-122.5
X192.0Y-130.0
T2
X122.96Y-150.5
X125.5Y-150.5
X130.46Y-150.5
X133.0Y-150.5
X137.96Y-150.5
X140.5Y-150.5
X145.46Y-150.5
X148.0Y-150.5
X171.96Y-150.5
X174.5Y-150.5
T3
X115.25Y-97.75
X115.25Y-102.25
X121.75Y-97.75
X121.75Y-102.25
T4
X98.0Y-122.19
X98.0Y-124.73
X98.0Y-127.27
X98.0Y-129.81
M30
