%TF.GenerationSoftware,KiCad,Pcbnew,8.0.1*%
%TF.CreationDate,2024-04-13T17:18:03+05:30*%
%TF.ProjectId,piso,7069736f-2e6b-4696-9361-645f70636258,rev?*%
%TF.SameCoordinates,Original*%
%TF.FileFunction,Drillmap*%
%TF.FilePolarity,Positive*%
%FSLAX45Y45*%
G04 Gerber Fmt 4.5, Leading zero omitted, Abs format (unit mm)*
G04 Created by KiCad (PCBNEW 8.0.1) date 2024-04-13 17:18:03*
%MOMM*%
%LPD*%
G01*
G04 APERTURE LIST*
%ADD10C,0.050000*%
%ADD11C,0.200000*%
%ADD12C,0.100000*%
%ADD13C,0.107000*%
G04 APERTURE END LIST*
D10*
X9250000Y-8850000D02*
X19350000Y-8850000D01*
X19350000Y-16450000D01*
X9250000Y-16450000D01*
X9250000Y-8850000D01*
D11*
D12*
X9435000Y-13335000D02*
X9465000Y-13365000D01*
X9465000Y-13335000D02*
X9435000Y-13365000D01*
X11735000Y-12735000D02*
X11765000Y-12765000D01*
X11765000Y-12735000D02*
X11735000Y-12765000D01*
X11735000Y-12985000D02*
X11765000Y-13015000D01*
X11765000Y-12985000D02*
X11735000Y-13015000D01*
X12235000Y-12235000D02*
X12265000Y-12265000D01*
X12265000Y-12235000D02*
X12235000Y-12265000D01*
X12235000Y-12885000D02*
X12265000Y-12915000D01*
X12265000Y-12885000D02*
X12235000Y-12915000D01*
X12535000Y-16285000D02*
X12565000Y-16315000D01*
X12565000Y-16285000D02*
X12535000Y-16315000D01*
X13285000Y-16285000D02*
X13315000Y-16315000D01*
X13315000Y-16285000D02*
X13285000Y-16315000D01*
X13835000Y-12035000D02*
X13865000Y-12065000D01*
X13865000Y-12035000D02*
X13835000Y-12065000D01*
X13985000Y-11985000D02*
X14015000Y-12015000D01*
X14015000Y-11985000D02*
X13985000Y-12015000D01*
X13985000Y-12235000D02*
X14015000Y-12265000D01*
X14015000Y-12235000D02*
X13985000Y-12265000D01*
X14035000Y-16285000D02*
X14065000Y-16315000D01*
X14065000Y-16285000D02*
X14035000Y-16315000D01*
X14285000Y-12435000D02*
X14315000Y-12465000D01*
X14315000Y-12435000D02*
X14285000Y-12465000D01*
X14385000Y-10385000D02*
X14415000Y-10415000D01*
X14415000Y-10385000D02*
X14385000Y-10415000D01*
X14585000Y-12135000D02*
X14615000Y-12165000D01*
X14615000Y-12135000D02*
X14585000Y-12165000D01*
X14585000Y-12435000D02*
X14615000Y-12465000D01*
X14615000Y-12435000D02*
X14585000Y-12465000D01*
X14785000Y-16285000D02*
X14815000Y-16315000D01*
X14815000Y-16285000D02*
X14785000Y-16315000D01*
X14885000Y-10385000D02*
X14915000Y-10415000D01*
X14915000Y-10385000D02*
X14885000Y-10415000D01*
X15035000Y-12085000D02*
X15065000Y-12115000D01*
X15065000Y-12085000D02*
X15035000Y-12115000D01*
X15085000Y-11885000D02*
X15115000Y-11915000D01*
X15115000Y-11885000D02*
X15085000Y-11915000D01*
X15135000Y-10385000D02*
X15165000Y-10415000D01*
X15165000Y-10385000D02*
X15135000Y-10415000D01*
X15985000Y-12835000D02*
X16015000Y-12865000D01*
X16015000Y-12835000D02*
X15985000Y-12865000D01*
X16685000Y-12885000D02*
X16715000Y-12915000D01*
X16715000Y-12885000D02*
X16685000Y-12915000D01*
X17435000Y-16285000D02*
X17465000Y-16315000D01*
X17465000Y-16285000D02*
X17435000Y-16315000D01*
X17585000Y-12985000D02*
X17615000Y-13015000D01*
X17615000Y-12985000D02*
X17585000Y-13015000D01*
X17635000Y-12235000D02*
X17665000Y-12265000D01*
X17665000Y-12235000D02*
X17635000Y-12265000D01*
X18885000Y-12235000D02*
X18915000Y-12265000D01*
X18915000Y-12235000D02*
X18885000Y-12265000D01*
X19185000Y-12985000D02*
X19215000Y-13015000D01*
X19215000Y-12985000D02*
X19185000Y-13015000D01*
X12341000Y-15050000D02*
G75*
G02*
X12251000Y-15050000I-45000J0D01*
G01*
X12251000Y-15050000D02*
G75*
G02*
X12341000Y-15050000I45000J0D01*
G01*
X12595000Y-15050000D02*
G75*
G02*
X12505000Y-15050000I-45000J0D01*
G01*
X12505000Y-15050000D02*
G75*
G02*
X12595000Y-15050000I45000J0D01*
G01*
X13091000Y-15050000D02*
G75*
G02*
X13001000Y-15050000I-45000J0D01*
G01*
X13001000Y-15050000D02*
G75*
G02*
X13091000Y-15050000I45000J0D01*
G01*
X13345000Y-15050000D02*
G75*
G02*
X13255000Y-15050000I-45000J0D01*
G01*
X13255000Y-15050000D02*
G75*
G02*
X13345000Y-15050000I45000J0D01*
G01*
X13841000Y-15050000D02*
G75*
G02*
X13751000Y-15050000I-45000J0D01*
G01*
X13751000Y-15050000D02*
G75*
G02*
X13841000Y-15050000I45000J0D01*
G01*
X14095000Y-15050000D02*
G75*
G02*
X14005000Y-15050000I-45000J0D01*
G01*
X14005000Y-15050000D02*
G75*
G02*
X14095000Y-15050000I45000J0D01*
G01*
X14591000Y-15050000D02*
G75*
G02*
X14501000Y-15050000I-45000J0D01*
G01*
X14501000Y-15050000D02*
G75*
G02*
X14591000Y-15050000I45000J0D01*
G01*
X14845000Y-15050000D02*
G75*
G02*
X14755000Y-15050000I-45000J0D01*
G01*
X14755000Y-15050000D02*
G75*
G02*
X14845000Y-15050000I45000J0D01*
G01*
X17241000Y-15050000D02*
G75*
G02*
X17151000Y-15050000I-45000J0D01*
G01*
X17151000Y-15050000D02*
G75*
G02*
X17241000Y-15050000I45000J0D01*
G01*
X17495000Y-15050000D02*
G75*
G02*
X17405000Y-15050000I-45000J0D01*
G01*
X17405000Y-15050000D02*
G75*
G02*
X17495000Y-15050000I45000J0D01*
G01*
X11525000Y-9725500D02*
X11525000Y-9824500D01*
X11475500Y-9775000D02*
X11574500Y-9775000D01*
X11525000Y-10175500D02*
X11525000Y-10274500D01*
X11475500Y-10225000D02*
X11574500Y-10225000D01*
X12175000Y-9725500D02*
X12175000Y-9824500D01*
X12125500Y-9775000D02*
X12224500Y-9775000D01*
X12175000Y-10175500D02*
X12175000Y-10274500D01*
X12125500Y-10225000D02*
X12224500Y-10225000D01*
D13*
X9837831Y-12256831D02*
X9837831Y-12181169D01*
X9762169Y-12181169D01*
X9762169Y-12256831D01*
X9837831Y-12256831D01*
X9837831Y-12510831D02*
X9837831Y-12435169D01*
X9762169Y-12435169D01*
X9762169Y-12510831D01*
X9837831Y-12510831D01*
X9837831Y-12764831D02*
X9837831Y-12689169D01*
X9762169Y-12689169D01*
X9762169Y-12764831D01*
X9837831Y-12764831D01*
X9837831Y-13018831D02*
X9837831Y-12943169D01*
X9762169Y-12943169D01*
X9762169Y-13018831D01*
X9837831Y-13018831D01*
D11*
X9508277Y-16763984D02*
X9508277Y-16563984D01*
X9508277Y-16563984D02*
X9555896Y-16563984D01*
X9555896Y-16563984D02*
X9584467Y-16573508D01*
X9584467Y-16573508D02*
X9603515Y-16592555D01*
X9603515Y-16592555D02*
X9613039Y-16611603D01*
X9613039Y-16611603D02*
X9622563Y-16649698D01*
X9622563Y-16649698D02*
X9622563Y-16678269D01*
X9622563Y-16678269D02*
X9613039Y-16716365D01*
X9613039Y-16716365D02*
X9603515Y-16735412D01*
X9603515Y-16735412D02*
X9584467Y-16754460D01*
X9584467Y-16754460D02*
X9555896Y-16763984D01*
X9555896Y-16763984D02*
X9508277Y-16763984D01*
X9708277Y-16763984D02*
X9708277Y-16630650D01*
X9708277Y-16668746D02*
X9717801Y-16649698D01*
X9717801Y-16649698D02*
X9727324Y-16640174D01*
X9727324Y-16640174D02*
X9746372Y-16630650D01*
X9746372Y-16630650D02*
X9765420Y-16630650D01*
X9832086Y-16763984D02*
X9832086Y-16630650D01*
X9832086Y-16563984D02*
X9822563Y-16573508D01*
X9822563Y-16573508D02*
X9832086Y-16583031D01*
X9832086Y-16583031D02*
X9841610Y-16573508D01*
X9841610Y-16573508D02*
X9832086Y-16563984D01*
X9832086Y-16563984D02*
X9832086Y-16583031D01*
X9955896Y-16763984D02*
X9936848Y-16754460D01*
X9936848Y-16754460D02*
X9927324Y-16735412D01*
X9927324Y-16735412D02*
X9927324Y-16563984D01*
X10060658Y-16763984D02*
X10041610Y-16754460D01*
X10041610Y-16754460D02*
X10032086Y-16735412D01*
X10032086Y-16735412D02*
X10032086Y-16563984D01*
X10289229Y-16763984D02*
X10289229Y-16563984D01*
X10289229Y-16563984D02*
X10355896Y-16706841D01*
X10355896Y-16706841D02*
X10422563Y-16563984D01*
X10422563Y-16563984D02*
X10422563Y-16763984D01*
X10603515Y-16763984D02*
X10603515Y-16659222D01*
X10603515Y-16659222D02*
X10593991Y-16640174D01*
X10593991Y-16640174D02*
X10574944Y-16630650D01*
X10574944Y-16630650D02*
X10536848Y-16630650D01*
X10536848Y-16630650D02*
X10517801Y-16640174D01*
X10603515Y-16754460D02*
X10584467Y-16763984D01*
X10584467Y-16763984D02*
X10536848Y-16763984D01*
X10536848Y-16763984D02*
X10517801Y-16754460D01*
X10517801Y-16754460D02*
X10508277Y-16735412D01*
X10508277Y-16735412D02*
X10508277Y-16716365D01*
X10508277Y-16716365D02*
X10517801Y-16697317D01*
X10517801Y-16697317D02*
X10536848Y-16687793D01*
X10536848Y-16687793D02*
X10584467Y-16687793D01*
X10584467Y-16687793D02*
X10603515Y-16678269D01*
X10698753Y-16630650D02*
X10698753Y-16830650D01*
X10698753Y-16640174D02*
X10717801Y-16630650D01*
X10717801Y-16630650D02*
X10755896Y-16630650D01*
X10755896Y-16630650D02*
X10774944Y-16640174D01*
X10774944Y-16640174D02*
X10784467Y-16649698D01*
X10784467Y-16649698D02*
X10793991Y-16668746D01*
X10793991Y-16668746D02*
X10793991Y-16725888D01*
X10793991Y-16725888D02*
X10784467Y-16744936D01*
X10784467Y-16744936D02*
X10774944Y-16754460D01*
X10774944Y-16754460D02*
X10755896Y-16763984D01*
X10755896Y-16763984D02*
X10717801Y-16763984D01*
X10717801Y-16763984D02*
X10698753Y-16754460D01*
X10879705Y-16744936D02*
X10889229Y-16754460D01*
X10889229Y-16754460D02*
X10879705Y-16763984D01*
X10879705Y-16763984D02*
X10870182Y-16754460D01*
X10870182Y-16754460D02*
X10879705Y-16744936D01*
X10879705Y-16744936D02*
X10879705Y-16763984D01*
X10879705Y-16640174D02*
X10889229Y-16649698D01*
X10889229Y-16649698D02*
X10879705Y-16659222D01*
X10879705Y-16659222D02*
X10870182Y-16649698D01*
X10870182Y-16649698D02*
X10879705Y-16640174D01*
X10879705Y-16640174D02*
X10879705Y-16659222D01*
D12*
X9217500Y-17077500D02*
X9247500Y-17107500D01*
X9247500Y-17077500D02*
X9217500Y-17107500D01*
D11*
X9546372Y-16983984D02*
X9565420Y-16983984D01*
X9565420Y-16983984D02*
X9584467Y-16993508D01*
X9584467Y-16993508D02*
X9593991Y-17003031D01*
X9593991Y-17003031D02*
X9603515Y-17022079D01*
X9603515Y-17022079D02*
X9613039Y-17060174D01*
X9613039Y-17060174D02*
X9613039Y-17107793D01*
X9613039Y-17107793D02*
X9603515Y-17145889D01*
X9603515Y-17145889D02*
X9593991Y-17164936D01*
X9593991Y-17164936D02*
X9584467Y-17174460D01*
X9584467Y-17174460D02*
X9565420Y-17183984D01*
X9565420Y-17183984D02*
X9546372Y-17183984D01*
X9546372Y-17183984D02*
X9527324Y-17174460D01*
X9527324Y-17174460D02*
X9517801Y-17164936D01*
X9517801Y-17164936D02*
X9508277Y-17145889D01*
X9508277Y-17145889D02*
X9498753Y-17107793D01*
X9498753Y-17107793D02*
X9498753Y-17060174D01*
X9498753Y-17060174D02*
X9508277Y-17022079D01*
X9508277Y-17022079D02*
X9517801Y-17003031D01*
X9517801Y-17003031D02*
X9527324Y-16993508D01*
X9527324Y-16993508D02*
X9546372Y-16983984D01*
X9698753Y-17164936D02*
X9708277Y-17174460D01*
X9708277Y-17174460D02*
X9698753Y-17183984D01*
X9698753Y-17183984D02*
X9689229Y-17174460D01*
X9689229Y-17174460D02*
X9698753Y-17164936D01*
X9698753Y-17164936D02*
X9698753Y-17183984D01*
X9774944Y-16983984D02*
X9898753Y-16983984D01*
X9898753Y-16983984D02*
X9832086Y-17060174D01*
X9832086Y-17060174D02*
X9860658Y-17060174D01*
X9860658Y-17060174D02*
X9879705Y-17069698D01*
X9879705Y-17069698D02*
X9889229Y-17079222D01*
X9889229Y-17079222D02*
X9898753Y-17098270D01*
X9898753Y-17098270D02*
X9898753Y-17145889D01*
X9898753Y-17145889D02*
X9889229Y-17164936D01*
X9889229Y-17164936D02*
X9879705Y-17174460D01*
X9879705Y-17174460D02*
X9860658Y-17183984D01*
X9860658Y-17183984D02*
X9803515Y-17183984D01*
X9803515Y-17183984D02*
X9784467Y-17174460D01*
X9784467Y-17174460D02*
X9774944Y-17164936D01*
X10022563Y-16983984D02*
X10041610Y-16983984D01*
X10041610Y-16983984D02*
X10060658Y-16993508D01*
X10060658Y-16993508D02*
X10070182Y-17003031D01*
X10070182Y-17003031D02*
X10079705Y-17022079D01*
X10079705Y-17022079D02*
X10089229Y-17060174D01*
X10089229Y-17060174D02*
X10089229Y-17107793D01*
X10089229Y-17107793D02*
X10079705Y-17145889D01*
X10079705Y-17145889D02*
X10070182Y-17164936D01*
X10070182Y-17164936D02*
X10060658Y-17174460D01*
X10060658Y-17174460D02*
X10041610Y-17183984D01*
X10041610Y-17183984D02*
X10022563Y-17183984D01*
X10022563Y-17183984D02*
X10003515Y-17174460D01*
X10003515Y-17174460D02*
X9993991Y-17164936D01*
X9993991Y-17164936D02*
X9984467Y-17145889D01*
X9984467Y-17145889D02*
X9974944Y-17107793D01*
X9974944Y-17107793D02*
X9974944Y-17060174D01*
X9974944Y-17060174D02*
X9984467Y-17022079D01*
X9984467Y-17022079D02*
X9993991Y-17003031D01*
X9993991Y-17003031D02*
X10003515Y-16993508D01*
X10003515Y-16993508D02*
X10022563Y-16983984D01*
X10213039Y-16983984D02*
X10232086Y-16983984D01*
X10232086Y-16983984D02*
X10251134Y-16993508D01*
X10251134Y-16993508D02*
X10260658Y-17003031D01*
X10260658Y-17003031D02*
X10270182Y-17022079D01*
X10270182Y-17022079D02*
X10279705Y-17060174D01*
X10279705Y-17060174D02*
X10279705Y-17107793D01*
X10279705Y-17107793D02*
X10270182Y-17145889D01*
X10270182Y-17145889D02*
X10260658Y-17164936D01*
X10260658Y-17164936D02*
X10251134Y-17174460D01*
X10251134Y-17174460D02*
X10232086Y-17183984D01*
X10232086Y-17183984D02*
X10213039Y-17183984D01*
X10213039Y-17183984D02*
X10193991Y-17174460D01*
X10193991Y-17174460D02*
X10184467Y-17164936D01*
X10184467Y-17164936D02*
X10174944Y-17145889D01*
X10174944Y-17145889D02*
X10165420Y-17107793D01*
X10165420Y-17107793D02*
X10165420Y-17060174D01*
X10165420Y-17060174D02*
X10174944Y-17022079D01*
X10174944Y-17022079D02*
X10184467Y-17003031D01*
X10184467Y-17003031D02*
X10193991Y-16993508D01*
X10193991Y-16993508D02*
X10213039Y-16983984D01*
X10365420Y-17183984D02*
X10365420Y-17050650D01*
X10365420Y-17069698D02*
X10374944Y-17060174D01*
X10374944Y-17060174D02*
X10393991Y-17050650D01*
X10393991Y-17050650D02*
X10422563Y-17050650D01*
X10422563Y-17050650D02*
X10441610Y-17060174D01*
X10441610Y-17060174D02*
X10451134Y-17079222D01*
X10451134Y-17079222D02*
X10451134Y-17183984D01*
X10451134Y-17079222D02*
X10460658Y-17060174D01*
X10460658Y-17060174D02*
X10479705Y-17050650D01*
X10479705Y-17050650D02*
X10508277Y-17050650D01*
X10508277Y-17050650D02*
X10527325Y-17060174D01*
X10527325Y-17060174D02*
X10536848Y-17079222D01*
X10536848Y-17079222D02*
X10536848Y-17183984D01*
X10632086Y-17183984D02*
X10632086Y-17050650D01*
X10632086Y-17069698D02*
X10641610Y-17060174D01*
X10641610Y-17060174D02*
X10660658Y-17050650D01*
X10660658Y-17050650D02*
X10689229Y-17050650D01*
X10689229Y-17050650D02*
X10708277Y-17060174D01*
X10708277Y-17060174D02*
X10717801Y-17079222D01*
X10717801Y-17079222D02*
X10717801Y-17183984D01*
X10717801Y-17079222D02*
X10727325Y-17060174D01*
X10727325Y-17060174D02*
X10746372Y-17050650D01*
X10746372Y-17050650D02*
X10774944Y-17050650D01*
X10774944Y-17050650D02*
X10793991Y-17060174D01*
X10793991Y-17060174D02*
X10803515Y-17079222D01*
X10803515Y-17079222D02*
X10803515Y-17183984D01*
X11193991Y-16974460D02*
X11022563Y-17231603D01*
X11451134Y-16983984D02*
X11470182Y-16983984D01*
X11470182Y-16983984D02*
X11489229Y-16993508D01*
X11489229Y-16993508D02*
X11498753Y-17003031D01*
X11498753Y-17003031D02*
X11508277Y-17022079D01*
X11508277Y-17022079D02*
X11517801Y-17060174D01*
X11517801Y-17060174D02*
X11517801Y-17107793D01*
X11517801Y-17107793D02*
X11508277Y-17145889D01*
X11508277Y-17145889D02*
X11498753Y-17164936D01*
X11498753Y-17164936D02*
X11489229Y-17174460D01*
X11489229Y-17174460D02*
X11470182Y-17183984D01*
X11470182Y-17183984D02*
X11451134Y-17183984D01*
X11451134Y-17183984D02*
X11432086Y-17174460D01*
X11432086Y-17174460D02*
X11422563Y-17164936D01*
X11422563Y-17164936D02*
X11413039Y-17145889D01*
X11413039Y-17145889D02*
X11403515Y-17107793D01*
X11403515Y-17107793D02*
X11403515Y-17060174D01*
X11403515Y-17060174D02*
X11413039Y-17022079D01*
X11413039Y-17022079D02*
X11422563Y-17003031D01*
X11422563Y-17003031D02*
X11432086Y-16993508D01*
X11432086Y-16993508D02*
X11451134Y-16983984D01*
X11603515Y-17164936D02*
X11613039Y-17174460D01*
X11613039Y-17174460D02*
X11603515Y-17183984D01*
X11603515Y-17183984D02*
X11593991Y-17174460D01*
X11593991Y-17174460D02*
X11603515Y-17164936D01*
X11603515Y-17164936D02*
X11603515Y-17183984D01*
X11736848Y-16983984D02*
X11755896Y-16983984D01*
X11755896Y-16983984D02*
X11774944Y-16993508D01*
X11774944Y-16993508D02*
X11784467Y-17003031D01*
X11784467Y-17003031D02*
X11793991Y-17022079D01*
X11793991Y-17022079D02*
X11803515Y-17060174D01*
X11803515Y-17060174D02*
X11803515Y-17107793D01*
X11803515Y-17107793D02*
X11793991Y-17145889D01*
X11793991Y-17145889D02*
X11784467Y-17164936D01*
X11784467Y-17164936D02*
X11774944Y-17174460D01*
X11774944Y-17174460D02*
X11755896Y-17183984D01*
X11755896Y-17183984D02*
X11736848Y-17183984D01*
X11736848Y-17183984D02*
X11717801Y-17174460D01*
X11717801Y-17174460D02*
X11708277Y-17164936D01*
X11708277Y-17164936D02*
X11698753Y-17145889D01*
X11698753Y-17145889D02*
X11689229Y-17107793D01*
X11689229Y-17107793D02*
X11689229Y-17060174D01*
X11689229Y-17060174D02*
X11698753Y-17022079D01*
X11698753Y-17022079D02*
X11708277Y-17003031D01*
X11708277Y-17003031D02*
X11717801Y-16993508D01*
X11717801Y-16993508D02*
X11736848Y-16983984D01*
X11993991Y-17183984D02*
X11879706Y-17183984D01*
X11936848Y-17183984D02*
X11936848Y-16983984D01*
X11936848Y-16983984D02*
X11917801Y-17012555D01*
X11917801Y-17012555D02*
X11898753Y-17031603D01*
X11898753Y-17031603D02*
X11879706Y-17041127D01*
X12184467Y-17183984D02*
X12070182Y-17183984D01*
X12127325Y-17183984D02*
X12127325Y-16983984D01*
X12127325Y-16983984D02*
X12108277Y-17012555D01*
X12108277Y-17012555D02*
X12089229Y-17031603D01*
X12089229Y-17031603D02*
X12070182Y-17041127D01*
X12298753Y-17069698D02*
X12279706Y-17060174D01*
X12279706Y-17060174D02*
X12270182Y-17050650D01*
X12270182Y-17050650D02*
X12260658Y-17031603D01*
X12260658Y-17031603D02*
X12260658Y-17022079D01*
X12260658Y-17022079D02*
X12270182Y-17003031D01*
X12270182Y-17003031D02*
X12279706Y-16993508D01*
X12279706Y-16993508D02*
X12298753Y-16983984D01*
X12298753Y-16983984D02*
X12336848Y-16983984D01*
X12336848Y-16983984D02*
X12355896Y-16993508D01*
X12355896Y-16993508D02*
X12365420Y-17003031D01*
X12365420Y-17003031D02*
X12374944Y-17022079D01*
X12374944Y-17022079D02*
X12374944Y-17031603D01*
X12374944Y-17031603D02*
X12365420Y-17050650D01*
X12365420Y-17050650D02*
X12355896Y-17060174D01*
X12355896Y-17060174D02*
X12336848Y-17069698D01*
X12336848Y-17069698D02*
X12298753Y-17069698D01*
X12298753Y-17069698D02*
X12279706Y-17079222D01*
X12279706Y-17079222D02*
X12270182Y-17088746D01*
X12270182Y-17088746D02*
X12260658Y-17107793D01*
X12260658Y-17107793D02*
X12260658Y-17145889D01*
X12260658Y-17145889D02*
X12270182Y-17164936D01*
X12270182Y-17164936D02*
X12279706Y-17174460D01*
X12279706Y-17174460D02*
X12298753Y-17183984D01*
X12298753Y-17183984D02*
X12336848Y-17183984D01*
X12336848Y-17183984D02*
X12355896Y-17174460D01*
X12355896Y-17174460D02*
X12365420Y-17164936D01*
X12365420Y-17164936D02*
X12374944Y-17145889D01*
X12374944Y-17145889D02*
X12374944Y-17107793D01*
X12374944Y-17107793D02*
X12365420Y-17088746D01*
X12365420Y-17088746D02*
X12355896Y-17079222D01*
X12355896Y-17079222D02*
X12336848Y-17069698D01*
X12451134Y-16983984D02*
X12451134Y-17022079D01*
X12527325Y-16983984D02*
X12527325Y-17022079D01*
X12822563Y-17260174D02*
X12813039Y-17250650D01*
X12813039Y-17250650D02*
X12793991Y-17222079D01*
X12793991Y-17222079D02*
X12784468Y-17203031D01*
X12784468Y-17203031D02*
X12774944Y-17174460D01*
X12774944Y-17174460D02*
X12765420Y-17126841D01*
X12765420Y-17126841D02*
X12765420Y-17088746D01*
X12765420Y-17088746D02*
X12774944Y-17041127D01*
X12774944Y-17041127D02*
X12784468Y-17012555D01*
X12784468Y-17012555D02*
X12793991Y-16993508D01*
X12793991Y-16993508D02*
X12813039Y-16964936D01*
X12813039Y-16964936D02*
X12822563Y-16955412D01*
X12889229Y-17003031D02*
X12898753Y-16993508D01*
X12898753Y-16993508D02*
X12917801Y-16983984D01*
X12917801Y-16983984D02*
X12965420Y-16983984D01*
X12965420Y-16983984D02*
X12984468Y-16993508D01*
X12984468Y-16993508D02*
X12993991Y-17003031D01*
X12993991Y-17003031D02*
X13003515Y-17022079D01*
X13003515Y-17022079D02*
X13003515Y-17041127D01*
X13003515Y-17041127D02*
X12993991Y-17069698D01*
X12993991Y-17069698D02*
X12879706Y-17183984D01*
X12879706Y-17183984D02*
X13003515Y-17183984D01*
X13070182Y-16983984D02*
X13203515Y-16983984D01*
X13203515Y-16983984D02*
X13117801Y-17183984D01*
X13432087Y-17183984D02*
X13432087Y-16983984D01*
X13517801Y-17183984D02*
X13517801Y-17079222D01*
X13517801Y-17079222D02*
X13508277Y-17060174D01*
X13508277Y-17060174D02*
X13489230Y-17050650D01*
X13489230Y-17050650D02*
X13460658Y-17050650D01*
X13460658Y-17050650D02*
X13441610Y-17060174D01*
X13441610Y-17060174D02*
X13432087Y-17069698D01*
X13641610Y-17183984D02*
X13622563Y-17174460D01*
X13622563Y-17174460D02*
X13613039Y-17164936D01*
X13613039Y-17164936D02*
X13603515Y-17145889D01*
X13603515Y-17145889D02*
X13603515Y-17088746D01*
X13603515Y-17088746D02*
X13613039Y-17069698D01*
X13613039Y-17069698D02*
X13622563Y-17060174D01*
X13622563Y-17060174D02*
X13641610Y-17050650D01*
X13641610Y-17050650D02*
X13670182Y-17050650D01*
X13670182Y-17050650D02*
X13689230Y-17060174D01*
X13689230Y-17060174D02*
X13698753Y-17069698D01*
X13698753Y-17069698D02*
X13708277Y-17088746D01*
X13708277Y-17088746D02*
X13708277Y-17145889D01*
X13708277Y-17145889D02*
X13698753Y-17164936D01*
X13698753Y-17164936D02*
X13689230Y-17174460D01*
X13689230Y-17174460D02*
X13670182Y-17183984D01*
X13670182Y-17183984D02*
X13641610Y-17183984D01*
X13822563Y-17183984D02*
X13803515Y-17174460D01*
X13803515Y-17174460D02*
X13793991Y-17155412D01*
X13793991Y-17155412D02*
X13793991Y-16983984D01*
X13974944Y-17174460D02*
X13955896Y-17183984D01*
X13955896Y-17183984D02*
X13917801Y-17183984D01*
X13917801Y-17183984D02*
X13898753Y-17174460D01*
X13898753Y-17174460D02*
X13889230Y-17155412D01*
X13889230Y-17155412D02*
X13889230Y-17079222D01*
X13889230Y-17079222D02*
X13898753Y-17060174D01*
X13898753Y-17060174D02*
X13917801Y-17050650D01*
X13917801Y-17050650D02*
X13955896Y-17050650D01*
X13955896Y-17050650D02*
X13974944Y-17060174D01*
X13974944Y-17060174D02*
X13984468Y-17079222D01*
X13984468Y-17079222D02*
X13984468Y-17098270D01*
X13984468Y-17098270D02*
X13889230Y-17117317D01*
X14060658Y-17174460D02*
X14079706Y-17183984D01*
X14079706Y-17183984D02*
X14117801Y-17183984D01*
X14117801Y-17183984D02*
X14136849Y-17174460D01*
X14136849Y-17174460D02*
X14146372Y-17155412D01*
X14146372Y-17155412D02*
X14146372Y-17145889D01*
X14146372Y-17145889D02*
X14136849Y-17126841D01*
X14136849Y-17126841D02*
X14117801Y-17117317D01*
X14117801Y-17117317D02*
X14089230Y-17117317D01*
X14089230Y-17117317D02*
X14070182Y-17107793D01*
X14070182Y-17107793D02*
X14060658Y-17088746D01*
X14060658Y-17088746D02*
X14060658Y-17079222D01*
X14060658Y-17079222D02*
X14070182Y-17060174D01*
X14070182Y-17060174D02*
X14089230Y-17050650D01*
X14089230Y-17050650D02*
X14117801Y-17050650D01*
X14117801Y-17050650D02*
X14136849Y-17060174D01*
X14213039Y-17260174D02*
X14222563Y-17250650D01*
X14222563Y-17250650D02*
X14241611Y-17222079D01*
X14241611Y-17222079D02*
X14251134Y-17203031D01*
X14251134Y-17203031D02*
X14260658Y-17174460D01*
X14260658Y-17174460D02*
X14270182Y-17126841D01*
X14270182Y-17126841D02*
X14270182Y-17088746D01*
X14270182Y-17088746D02*
X14260658Y-17041127D01*
X14260658Y-17041127D02*
X14251134Y-17012555D01*
X14251134Y-17012555D02*
X14241611Y-16993508D01*
X14241611Y-16993508D02*
X14222563Y-16964936D01*
X14222563Y-16964936D02*
X14213039Y-16955412D01*
D12*
X9247500Y-17356500D02*
G75*
G02*
X9157500Y-17356500I-45000J0D01*
G01*
X9157500Y-17356500D02*
G75*
G02*
X9247500Y-17356500I45000J0D01*
G01*
D11*
X9546372Y-17247984D02*
X9565420Y-17247984D01*
X9565420Y-17247984D02*
X9584467Y-17257508D01*
X9584467Y-17257508D02*
X9593991Y-17267031D01*
X9593991Y-17267031D02*
X9603515Y-17286079D01*
X9603515Y-17286079D02*
X9613039Y-17324174D01*
X9613039Y-17324174D02*
X9613039Y-17371793D01*
X9613039Y-17371793D02*
X9603515Y-17409889D01*
X9603515Y-17409889D02*
X9593991Y-17428936D01*
X9593991Y-17428936D02*
X9584467Y-17438460D01*
X9584467Y-17438460D02*
X9565420Y-17447984D01*
X9565420Y-17447984D02*
X9546372Y-17447984D01*
X9546372Y-17447984D02*
X9527324Y-17438460D01*
X9527324Y-17438460D02*
X9517801Y-17428936D01*
X9517801Y-17428936D02*
X9508277Y-17409889D01*
X9508277Y-17409889D02*
X9498753Y-17371793D01*
X9498753Y-17371793D02*
X9498753Y-17324174D01*
X9498753Y-17324174D02*
X9508277Y-17286079D01*
X9508277Y-17286079D02*
X9517801Y-17267031D01*
X9517801Y-17267031D02*
X9527324Y-17257508D01*
X9527324Y-17257508D02*
X9546372Y-17247984D01*
X9698753Y-17428936D02*
X9708277Y-17438460D01*
X9708277Y-17438460D02*
X9698753Y-17447984D01*
X9698753Y-17447984D02*
X9689229Y-17438460D01*
X9689229Y-17438460D02*
X9698753Y-17428936D01*
X9698753Y-17428936D02*
X9698753Y-17447984D01*
X9803515Y-17447984D02*
X9841610Y-17447984D01*
X9841610Y-17447984D02*
X9860658Y-17438460D01*
X9860658Y-17438460D02*
X9870182Y-17428936D01*
X9870182Y-17428936D02*
X9889229Y-17400365D01*
X9889229Y-17400365D02*
X9898753Y-17362270D01*
X9898753Y-17362270D02*
X9898753Y-17286079D01*
X9898753Y-17286079D02*
X9889229Y-17267031D01*
X9889229Y-17267031D02*
X9879705Y-17257508D01*
X9879705Y-17257508D02*
X9860658Y-17247984D01*
X9860658Y-17247984D02*
X9822563Y-17247984D01*
X9822563Y-17247984D02*
X9803515Y-17257508D01*
X9803515Y-17257508D02*
X9793991Y-17267031D01*
X9793991Y-17267031D02*
X9784467Y-17286079D01*
X9784467Y-17286079D02*
X9784467Y-17333698D01*
X9784467Y-17333698D02*
X9793991Y-17352746D01*
X9793991Y-17352746D02*
X9803515Y-17362270D01*
X9803515Y-17362270D02*
X9822563Y-17371793D01*
X9822563Y-17371793D02*
X9860658Y-17371793D01*
X9860658Y-17371793D02*
X9879705Y-17362270D01*
X9879705Y-17362270D02*
X9889229Y-17352746D01*
X9889229Y-17352746D02*
X9898753Y-17333698D01*
X10022563Y-17247984D02*
X10041610Y-17247984D01*
X10041610Y-17247984D02*
X10060658Y-17257508D01*
X10060658Y-17257508D02*
X10070182Y-17267031D01*
X10070182Y-17267031D02*
X10079705Y-17286079D01*
X10079705Y-17286079D02*
X10089229Y-17324174D01*
X10089229Y-17324174D02*
X10089229Y-17371793D01*
X10089229Y-17371793D02*
X10079705Y-17409889D01*
X10079705Y-17409889D02*
X10070182Y-17428936D01*
X10070182Y-17428936D02*
X10060658Y-17438460D01*
X10060658Y-17438460D02*
X10041610Y-17447984D01*
X10041610Y-17447984D02*
X10022563Y-17447984D01*
X10022563Y-17447984D02*
X10003515Y-17438460D01*
X10003515Y-17438460D02*
X9993991Y-17428936D01*
X9993991Y-17428936D02*
X9984467Y-17409889D01*
X9984467Y-17409889D02*
X9974944Y-17371793D01*
X9974944Y-17371793D02*
X9974944Y-17324174D01*
X9974944Y-17324174D02*
X9984467Y-17286079D01*
X9984467Y-17286079D02*
X9993991Y-17267031D01*
X9993991Y-17267031D02*
X10003515Y-17257508D01*
X10003515Y-17257508D02*
X10022563Y-17247984D01*
X10213039Y-17247984D02*
X10232086Y-17247984D01*
X10232086Y-17247984D02*
X10251134Y-17257508D01*
X10251134Y-17257508D02*
X10260658Y-17267031D01*
X10260658Y-17267031D02*
X10270182Y-17286079D01*
X10270182Y-17286079D02*
X10279705Y-17324174D01*
X10279705Y-17324174D02*
X10279705Y-17371793D01*
X10279705Y-17371793D02*
X10270182Y-17409889D01*
X10270182Y-17409889D02*
X10260658Y-17428936D01*
X10260658Y-17428936D02*
X10251134Y-17438460D01*
X10251134Y-17438460D02*
X10232086Y-17447984D01*
X10232086Y-17447984D02*
X10213039Y-17447984D01*
X10213039Y-17447984D02*
X10193991Y-17438460D01*
X10193991Y-17438460D02*
X10184467Y-17428936D01*
X10184467Y-17428936D02*
X10174944Y-17409889D01*
X10174944Y-17409889D02*
X10165420Y-17371793D01*
X10165420Y-17371793D02*
X10165420Y-17324174D01*
X10165420Y-17324174D02*
X10174944Y-17286079D01*
X10174944Y-17286079D02*
X10184467Y-17267031D01*
X10184467Y-17267031D02*
X10193991Y-17257508D01*
X10193991Y-17257508D02*
X10213039Y-17247984D01*
X10365420Y-17447984D02*
X10365420Y-17314650D01*
X10365420Y-17333698D02*
X10374944Y-17324174D01*
X10374944Y-17324174D02*
X10393991Y-17314650D01*
X10393991Y-17314650D02*
X10422563Y-17314650D01*
X10422563Y-17314650D02*
X10441610Y-17324174D01*
X10441610Y-17324174D02*
X10451134Y-17343222D01*
X10451134Y-17343222D02*
X10451134Y-17447984D01*
X10451134Y-17343222D02*
X10460658Y-17324174D01*
X10460658Y-17324174D02*
X10479705Y-17314650D01*
X10479705Y-17314650D02*
X10508277Y-17314650D01*
X10508277Y-17314650D02*
X10527325Y-17324174D01*
X10527325Y-17324174D02*
X10536848Y-17343222D01*
X10536848Y-17343222D02*
X10536848Y-17447984D01*
X10632086Y-17447984D02*
X10632086Y-17314650D01*
X10632086Y-17333698D02*
X10641610Y-17324174D01*
X10641610Y-17324174D02*
X10660658Y-17314650D01*
X10660658Y-17314650D02*
X10689229Y-17314650D01*
X10689229Y-17314650D02*
X10708277Y-17324174D01*
X10708277Y-17324174D02*
X10717801Y-17343222D01*
X10717801Y-17343222D02*
X10717801Y-17447984D01*
X10717801Y-17343222D02*
X10727325Y-17324174D01*
X10727325Y-17324174D02*
X10746372Y-17314650D01*
X10746372Y-17314650D02*
X10774944Y-17314650D01*
X10774944Y-17314650D02*
X10793991Y-17324174D01*
X10793991Y-17324174D02*
X10803515Y-17343222D01*
X10803515Y-17343222D02*
X10803515Y-17447984D01*
X11193991Y-17238460D02*
X11022563Y-17495603D01*
X11451134Y-17247984D02*
X11470182Y-17247984D01*
X11470182Y-17247984D02*
X11489229Y-17257508D01*
X11489229Y-17257508D02*
X11498753Y-17267031D01*
X11498753Y-17267031D02*
X11508277Y-17286079D01*
X11508277Y-17286079D02*
X11517801Y-17324174D01*
X11517801Y-17324174D02*
X11517801Y-17371793D01*
X11517801Y-17371793D02*
X11508277Y-17409889D01*
X11508277Y-17409889D02*
X11498753Y-17428936D01*
X11498753Y-17428936D02*
X11489229Y-17438460D01*
X11489229Y-17438460D02*
X11470182Y-17447984D01*
X11470182Y-17447984D02*
X11451134Y-17447984D01*
X11451134Y-17447984D02*
X11432086Y-17438460D01*
X11432086Y-17438460D02*
X11422563Y-17428936D01*
X11422563Y-17428936D02*
X11413039Y-17409889D01*
X11413039Y-17409889D02*
X11403515Y-17371793D01*
X11403515Y-17371793D02*
X11403515Y-17324174D01*
X11403515Y-17324174D02*
X11413039Y-17286079D01*
X11413039Y-17286079D02*
X11422563Y-17267031D01*
X11422563Y-17267031D02*
X11432086Y-17257508D01*
X11432086Y-17257508D02*
X11451134Y-17247984D01*
X11603515Y-17428936D02*
X11613039Y-17438460D01*
X11613039Y-17438460D02*
X11603515Y-17447984D01*
X11603515Y-17447984D02*
X11593991Y-17438460D01*
X11593991Y-17438460D02*
X11603515Y-17428936D01*
X11603515Y-17428936D02*
X11603515Y-17447984D01*
X11736848Y-17247984D02*
X11755896Y-17247984D01*
X11755896Y-17247984D02*
X11774944Y-17257508D01*
X11774944Y-17257508D02*
X11784467Y-17267031D01*
X11784467Y-17267031D02*
X11793991Y-17286079D01*
X11793991Y-17286079D02*
X11803515Y-17324174D01*
X11803515Y-17324174D02*
X11803515Y-17371793D01*
X11803515Y-17371793D02*
X11793991Y-17409889D01*
X11793991Y-17409889D02*
X11784467Y-17428936D01*
X11784467Y-17428936D02*
X11774944Y-17438460D01*
X11774944Y-17438460D02*
X11755896Y-17447984D01*
X11755896Y-17447984D02*
X11736848Y-17447984D01*
X11736848Y-17447984D02*
X11717801Y-17438460D01*
X11717801Y-17438460D02*
X11708277Y-17428936D01*
X11708277Y-17428936D02*
X11698753Y-17409889D01*
X11698753Y-17409889D02*
X11689229Y-17371793D01*
X11689229Y-17371793D02*
X11689229Y-17324174D01*
X11689229Y-17324174D02*
X11698753Y-17286079D01*
X11698753Y-17286079D02*
X11708277Y-17267031D01*
X11708277Y-17267031D02*
X11717801Y-17257508D01*
X11717801Y-17257508D02*
X11736848Y-17247984D01*
X11870182Y-17247984D02*
X11993991Y-17247984D01*
X11993991Y-17247984D02*
X11927325Y-17324174D01*
X11927325Y-17324174D02*
X11955896Y-17324174D01*
X11955896Y-17324174D02*
X11974944Y-17333698D01*
X11974944Y-17333698D02*
X11984467Y-17343222D01*
X11984467Y-17343222D02*
X11993991Y-17362270D01*
X11993991Y-17362270D02*
X11993991Y-17409889D01*
X11993991Y-17409889D02*
X11984467Y-17428936D01*
X11984467Y-17428936D02*
X11974944Y-17438460D01*
X11974944Y-17438460D02*
X11955896Y-17447984D01*
X11955896Y-17447984D02*
X11898753Y-17447984D01*
X11898753Y-17447984D02*
X11879706Y-17438460D01*
X11879706Y-17438460D02*
X11870182Y-17428936D01*
X12174944Y-17247984D02*
X12079706Y-17247984D01*
X12079706Y-17247984D02*
X12070182Y-17343222D01*
X12070182Y-17343222D02*
X12079706Y-17333698D01*
X12079706Y-17333698D02*
X12098753Y-17324174D01*
X12098753Y-17324174D02*
X12146372Y-17324174D01*
X12146372Y-17324174D02*
X12165420Y-17333698D01*
X12165420Y-17333698D02*
X12174944Y-17343222D01*
X12174944Y-17343222D02*
X12184467Y-17362270D01*
X12184467Y-17362270D02*
X12184467Y-17409889D01*
X12184467Y-17409889D02*
X12174944Y-17428936D01*
X12174944Y-17428936D02*
X12165420Y-17438460D01*
X12165420Y-17438460D02*
X12146372Y-17447984D01*
X12146372Y-17447984D02*
X12098753Y-17447984D01*
X12098753Y-17447984D02*
X12079706Y-17438460D01*
X12079706Y-17438460D02*
X12070182Y-17428936D01*
X12355896Y-17314650D02*
X12355896Y-17447984D01*
X12308277Y-17238460D02*
X12260658Y-17381317D01*
X12260658Y-17381317D02*
X12384467Y-17381317D01*
X12451134Y-17247984D02*
X12451134Y-17286079D01*
X12527325Y-17247984D02*
X12527325Y-17286079D01*
X12822563Y-17524174D02*
X12813039Y-17514650D01*
X12813039Y-17514650D02*
X12793991Y-17486079D01*
X12793991Y-17486079D02*
X12784468Y-17467031D01*
X12784468Y-17467031D02*
X12774944Y-17438460D01*
X12774944Y-17438460D02*
X12765420Y-17390841D01*
X12765420Y-17390841D02*
X12765420Y-17352746D01*
X12765420Y-17352746D02*
X12774944Y-17305127D01*
X12774944Y-17305127D02*
X12784468Y-17276555D01*
X12784468Y-17276555D02*
X12793991Y-17257508D01*
X12793991Y-17257508D02*
X12813039Y-17228936D01*
X12813039Y-17228936D02*
X12822563Y-17219412D01*
X13003515Y-17447984D02*
X12889229Y-17447984D01*
X12946372Y-17447984D02*
X12946372Y-17247984D01*
X12946372Y-17247984D02*
X12927325Y-17276555D01*
X12927325Y-17276555D02*
X12908277Y-17295603D01*
X12908277Y-17295603D02*
X12889229Y-17305127D01*
X13127325Y-17247984D02*
X13146372Y-17247984D01*
X13146372Y-17247984D02*
X13165420Y-17257508D01*
X13165420Y-17257508D02*
X13174944Y-17267031D01*
X13174944Y-17267031D02*
X13184468Y-17286079D01*
X13184468Y-17286079D02*
X13193991Y-17324174D01*
X13193991Y-17324174D02*
X13193991Y-17371793D01*
X13193991Y-17371793D02*
X13184468Y-17409889D01*
X13184468Y-17409889D02*
X13174944Y-17428936D01*
X13174944Y-17428936D02*
X13165420Y-17438460D01*
X13165420Y-17438460D02*
X13146372Y-17447984D01*
X13146372Y-17447984D02*
X13127325Y-17447984D01*
X13127325Y-17447984D02*
X13108277Y-17438460D01*
X13108277Y-17438460D02*
X13098753Y-17428936D01*
X13098753Y-17428936D02*
X13089229Y-17409889D01*
X13089229Y-17409889D02*
X13079706Y-17371793D01*
X13079706Y-17371793D02*
X13079706Y-17324174D01*
X13079706Y-17324174D02*
X13089229Y-17286079D01*
X13089229Y-17286079D02*
X13098753Y-17267031D01*
X13098753Y-17267031D02*
X13108277Y-17257508D01*
X13108277Y-17257508D02*
X13127325Y-17247984D01*
X13432087Y-17447984D02*
X13432087Y-17247984D01*
X13517801Y-17447984D02*
X13517801Y-17343222D01*
X13517801Y-17343222D02*
X13508277Y-17324174D01*
X13508277Y-17324174D02*
X13489230Y-17314650D01*
X13489230Y-17314650D02*
X13460658Y-17314650D01*
X13460658Y-17314650D02*
X13441610Y-17324174D01*
X13441610Y-17324174D02*
X13432087Y-17333698D01*
X13641610Y-17447984D02*
X13622563Y-17438460D01*
X13622563Y-17438460D02*
X13613039Y-17428936D01*
X13613039Y-17428936D02*
X13603515Y-17409889D01*
X13603515Y-17409889D02*
X13603515Y-17352746D01*
X13603515Y-17352746D02*
X13613039Y-17333698D01*
X13613039Y-17333698D02*
X13622563Y-17324174D01*
X13622563Y-17324174D02*
X13641610Y-17314650D01*
X13641610Y-17314650D02*
X13670182Y-17314650D01*
X13670182Y-17314650D02*
X13689230Y-17324174D01*
X13689230Y-17324174D02*
X13698753Y-17333698D01*
X13698753Y-17333698D02*
X13708277Y-17352746D01*
X13708277Y-17352746D02*
X13708277Y-17409889D01*
X13708277Y-17409889D02*
X13698753Y-17428936D01*
X13698753Y-17428936D02*
X13689230Y-17438460D01*
X13689230Y-17438460D02*
X13670182Y-17447984D01*
X13670182Y-17447984D02*
X13641610Y-17447984D01*
X13822563Y-17447984D02*
X13803515Y-17438460D01*
X13803515Y-17438460D02*
X13793991Y-17419412D01*
X13793991Y-17419412D02*
X13793991Y-17247984D01*
X13974944Y-17438460D02*
X13955896Y-17447984D01*
X13955896Y-17447984D02*
X13917801Y-17447984D01*
X13917801Y-17447984D02*
X13898753Y-17438460D01*
X13898753Y-17438460D02*
X13889230Y-17419412D01*
X13889230Y-17419412D02*
X13889230Y-17343222D01*
X13889230Y-17343222D02*
X13898753Y-17324174D01*
X13898753Y-17324174D02*
X13917801Y-17314650D01*
X13917801Y-17314650D02*
X13955896Y-17314650D01*
X13955896Y-17314650D02*
X13974944Y-17324174D01*
X13974944Y-17324174D02*
X13984468Y-17343222D01*
X13984468Y-17343222D02*
X13984468Y-17362270D01*
X13984468Y-17362270D02*
X13889230Y-17381317D01*
X14060658Y-17438460D02*
X14079706Y-17447984D01*
X14079706Y-17447984D02*
X14117801Y-17447984D01*
X14117801Y-17447984D02*
X14136849Y-17438460D01*
X14136849Y-17438460D02*
X14146372Y-17419412D01*
X14146372Y-17419412D02*
X14146372Y-17409889D01*
X14146372Y-17409889D02*
X14136849Y-17390841D01*
X14136849Y-17390841D02*
X14117801Y-17381317D01*
X14117801Y-17381317D02*
X14089230Y-17381317D01*
X14089230Y-17381317D02*
X14070182Y-17371793D01*
X14070182Y-17371793D02*
X14060658Y-17352746D01*
X14060658Y-17352746D02*
X14060658Y-17343222D01*
X14060658Y-17343222D02*
X14070182Y-17324174D01*
X14070182Y-17324174D02*
X14089230Y-17314650D01*
X14089230Y-17314650D02*
X14117801Y-17314650D01*
X14117801Y-17314650D02*
X14136849Y-17324174D01*
X14213039Y-17524174D02*
X14222563Y-17514650D01*
X14222563Y-17514650D02*
X14241611Y-17486079D01*
X14241611Y-17486079D02*
X14251134Y-17467031D01*
X14251134Y-17467031D02*
X14260658Y-17438460D01*
X14260658Y-17438460D02*
X14270182Y-17390841D01*
X14270182Y-17390841D02*
X14270182Y-17352746D01*
X14270182Y-17352746D02*
X14260658Y-17305127D01*
X14260658Y-17305127D02*
X14251134Y-17276555D01*
X14251134Y-17276555D02*
X14241611Y-17257508D01*
X14241611Y-17257508D02*
X14222563Y-17228936D01*
X14222563Y-17228936D02*
X14213039Y-17219412D01*
D12*
X9198000Y-17571000D02*
X9198000Y-17670000D01*
X9148500Y-17620500D02*
X9247500Y-17620500D01*
D11*
X9546372Y-17511984D02*
X9565420Y-17511984D01*
X9565420Y-17511984D02*
X9584467Y-17521508D01*
X9584467Y-17521508D02*
X9593991Y-17531031D01*
X9593991Y-17531031D02*
X9603515Y-17550079D01*
X9603515Y-17550079D02*
X9613039Y-17588174D01*
X9613039Y-17588174D02*
X9613039Y-17635793D01*
X9613039Y-17635793D02*
X9603515Y-17673889D01*
X9603515Y-17673889D02*
X9593991Y-17692936D01*
X9593991Y-17692936D02*
X9584467Y-17702460D01*
X9584467Y-17702460D02*
X9565420Y-17711984D01*
X9565420Y-17711984D02*
X9546372Y-17711984D01*
X9546372Y-17711984D02*
X9527324Y-17702460D01*
X9527324Y-17702460D02*
X9517801Y-17692936D01*
X9517801Y-17692936D02*
X9508277Y-17673889D01*
X9508277Y-17673889D02*
X9498753Y-17635793D01*
X9498753Y-17635793D02*
X9498753Y-17588174D01*
X9498753Y-17588174D02*
X9508277Y-17550079D01*
X9508277Y-17550079D02*
X9517801Y-17531031D01*
X9517801Y-17531031D02*
X9527324Y-17521508D01*
X9527324Y-17521508D02*
X9546372Y-17511984D01*
X9698753Y-17692936D02*
X9708277Y-17702460D01*
X9708277Y-17702460D02*
X9698753Y-17711984D01*
X9698753Y-17711984D02*
X9689229Y-17702460D01*
X9689229Y-17702460D02*
X9698753Y-17692936D01*
X9698753Y-17692936D02*
X9698753Y-17711984D01*
X9803515Y-17711984D02*
X9841610Y-17711984D01*
X9841610Y-17711984D02*
X9860658Y-17702460D01*
X9860658Y-17702460D02*
X9870182Y-17692936D01*
X9870182Y-17692936D02*
X9889229Y-17664365D01*
X9889229Y-17664365D02*
X9898753Y-17626270D01*
X9898753Y-17626270D02*
X9898753Y-17550079D01*
X9898753Y-17550079D02*
X9889229Y-17531031D01*
X9889229Y-17531031D02*
X9879705Y-17521508D01*
X9879705Y-17521508D02*
X9860658Y-17511984D01*
X9860658Y-17511984D02*
X9822563Y-17511984D01*
X9822563Y-17511984D02*
X9803515Y-17521508D01*
X9803515Y-17521508D02*
X9793991Y-17531031D01*
X9793991Y-17531031D02*
X9784467Y-17550079D01*
X9784467Y-17550079D02*
X9784467Y-17597698D01*
X9784467Y-17597698D02*
X9793991Y-17616746D01*
X9793991Y-17616746D02*
X9803515Y-17626270D01*
X9803515Y-17626270D02*
X9822563Y-17635793D01*
X9822563Y-17635793D02*
X9860658Y-17635793D01*
X9860658Y-17635793D02*
X9879705Y-17626270D01*
X9879705Y-17626270D02*
X9889229Y-17616746D01*
X9889229Y-17616746D02*
X9898753Y-17597698D01*
X9993991Y-17711984D02*
X10032086Y-17711984D01*
X10032086Y-17711984D02*
X10051134Y-17702460D01*
X10051134Y-17702460D02*
X10060658Y-17692936D01*
X10060658Y-17692936D02*
X10079705Y-17664365D01*
X10079705Y-17664365D02*
X10089229Y-17626270D01*
X10089229Y-17626270D02*
X10089229Y-17550079D01*
X10089229Y-17550079D02*
X10079705Y-17531031D01*
X10079705Y-17531031D02*
X10070182Y-17521508D01*
X10070182Y-17521508D02*
X10051134Y-17511984D01*
X10051134Y-17511984D02*
X10013039Y-17511984D01*
X10013039Y-17511984D02*
X9993991Y-17521508D01*
X9993991Y-17521508D02*
X9984467Y-17531031D01*
X9984467Y-17531031D02*
X9974944Y-17550079D01*
X9974944Y-17550079D02*
X9974944Y-17597698D01*
X9974944Y-17597698D02*
X9984467Y-17616746D01*
X9984467Y-17616746D02*
X9993991Y-17626270D01*
X9993991Y-17626270D02*
X10013039Y-17635793D01*
X10013039Y-17635793D02*
X10051134Y-17635793D01*
X10051134Y-17635793D02*
X10070182Y-17626270D01*
X10070182Y-17626270D02*
X10079705Y-17616746D01*
X10079705Y-17616746D02*
X10089229Y-17597698D01*
X10213039Y-17511984D02*
X10232086Y-17511984D01*
X10232086Y-17511984D02*
X10251134Y-17521508D01*
X10251134Y-17521508D02*
X10260658Y-17531031D01*
X10260658Y-17531031D02*
X10270182Y-17550079D01*
X10270182Y-17550079D02*
X10279705Y-17588174D01*
X10279705Y-17588174D02*
X10279705Y-17635793D01*
X10279705Y-17635793D02*
X10270182Y-17673889D01*
X10270182Y-17673889D02*
X10260658Y-17692936D01*
X10260658Y-17692936D02*
X10251134Y-17702460D01*
X10251134Y-17702460D02*
X10232086Y-17711984D01*
X10232086Y-17711984D02*
X10213039Y-17711984D01*
X10213039Y-17711984D02*
X10193991Y-17702460D01*
X10193991Y-17702460D02*
X10184467Y-17692936D01*
X10184467Y-17692936D02*
X10174944Y-17673889D01*
X10174944Y-17673889D02*
X10165420Y-17635793D01*
X10165420Y-17635793D02*
X10165420Y-17588174D01*
X10165420Y-17588174D02*
X10174944Y-17550079D01*
X10174944Y-17550079D02*
X10184467Y-17531031D01*
X10184467Y-17531031D02*
X10193991Y-17521508D01*
X10193991Y-17521508D02*
X10213039Y-17511984D01*
X10365420Y-17711984D02*
X10365420Y-17578650D01*
X10365420Y-17597698D02*
X10374944Y-17588174D01*
X10374944Y-17588174D02*
X10393991Y-17578650D01*
X10393991Y-17578650D02*
X10422563Y-17578650D01*
X10422563Y-17578650D02*
X10441610Y-17588174D01*
X10441610Y-17588174D02*
X10451134Y-17607222D01*
X10451134Y-17607222D02*
X10451134Y-17711984D01*
X10451134Y-17607222D02*
X10460658Y-17588174D01*
X10460658Y-17588174D02*
X10479705Y-17578650D01*
X10479705Y-17578650D02*
X10508277Y-17578650D01*
X10508277Y-17578650D02*
X10527325Y-17588174D01*
X10527325Y-17588174D02*
X10536848Y-17607222D01*
X10536848Y-17607222D02*
X10536848Y-17711984D01*
X10632086Y-17711984D02*
X10632086Y-17578650D01*
X10632086Y-17597698D02*
X10641610Y-17588174D01*
X10641610Y-17588174D02*
X10660658Y-17578650D01*
X10660658Y-17578650D02*
X10689229Y-17578650D01*
X10689229Y-17578650D02*
X10708277Y-17588174D01*
X10708277Y-17588174D02*
X10717801Y-17607222D01*
X10717801Y-17607222D02*
X10717801Y-17711984D01*
X10717801Y-17607222D02*
X10727325Y-17588174D01*
X10727325Y-17588174D02*
X10746372Y-17578650D01*
X10746372Y-17578650D02*
X10774944Y-17578650D01*
X10774944Y-17578650D02*
X10793991Y-17588174D01*
X10793991Y-17588174D02*
X10803515Y-17607222D01*
X10803515Y-17607222D02*
X10803515Y-17711984D01*
X11193991Y-17502460D02*
X11022563Y-17759603D01*
X11451134Y-17511984D02*
X11470182Y-17511984D01*
X11470182Y-17511984D02*
X11489229Y-17521508D01*
X11489229Y-17521508D02*
X11498753Y-17531031D01*
X11498753Y-17531031D02*
X11508277Y-17550079D01*
X11508277Y-17550079D02*
X11517801Y-17588174D01*
X11517801Y-17588174D02*
X11517801Y-17635793D01*
X11517801Y-17635793D02*
X11508277Y-17673889D01*
X11508277Y-17673889D02*
X11498753Y-17692936D01*
X11498753Y-17692936D02*
X11489229Y-17702460D01*
X11489229Y-17702460D02*
X11470182Y-17711984D01*
X11470182Y-17711984D02*
X11451134Y-17711984D01*
X11451134Y-17711984D02*
X11432086Y-17702460D01*
X11432086Y-17702460D02*
X11422563Y-17692936D01*
X11422563Y-17692936D02*
X11413039Y-17673889D01*
X11413039Y-17673889D02*
X11403515Y-17635793D01*
X11403515Y-17635793D02*
X11403515Y-17588174D01*
X11403515Y-17588174D02*
X11413039Y-17550079D01*
X11413039Y-17550079D02*
X11422563Y-17531031D01*
X11422563Y-17531031D02*
X11432086Y-17521508D01*
X11432086Y-17521508D02*
X11451134Y-17511984D01*
X11603515Y-17692936D02*
X11613039Y-17702460D01*
X11613039Y-17702460D02*
X11603515Y-17711984D01*
X11603515Y-17711984D02*
X11593991Y-17702460D01*
X11593991Y-17702460D02*
X11603515Y-17692936D01*
X11603515Y-17692936D02*
X11603515Y-17711984D01*
X11736848Y-17511984D02*
X11755896Y-17511984D01*
X11755896Y-17511984D02*
X11774944Y-17521508D01*
X11774944Y-17521508D02*
X11784467Y-17531031D01*
X11784467Y-17531031D02*
X11793991Y-17550079D01*
X11793991Y-17550079D02*
X11803515Y-17588174D01*
X11803515Y-17588174D02*
X11803515Y-17635793D01*
X11803515Y-17635793D02*
X11793991Y-17673889D01*
X11793991Y-17673889D02*
X11784467Y-17692936D01*
X11784467Y-17692936D02*
X11774944Y-17702460D01*
X11774944Y-17702460D02*
X11755896Y-17711984D01*
X11755896Y-17711984D02*
X11736848Y-17711984D01*
X11736848Y-17711984D02*
X11717801Y-17702460D01*
X11717801Y-17702460D02*
X11708277Y-17692936D01*
X11708277Y-17692936D02*
X11698753Y-17673889D01*
X11698753Y-17673889D02*
X11689229Y-17635793D01*
X11689229Y-17635793D02*
X11689229Y-17588174D01*
X11689229Y-17588174D02*
X11698753Y-17550079D01*
X11698753Y-17550079D02*
X11708277Y-17531031D01*
X11708277Y-17531031D02*
X11717801Y-17521508D01*
X11717801Y-17521508D02*
X11736848Y-17511984D01*
X11870182Y-17511984D02*
X11993991Y-17511984D01*
X11993991Y-17511984D02*
X11927325Y-17588174D01*
X11927325Y-17588174D02*
X11955896Y-17588174D01*
X11955896Y-17588174D02*
X11974944Y-17597698D01*
X11974944Y-17597698D02*
X11984467Y-17607222D01*
X11984467Y-17607222D02*
X11993991Y-17626270D01*
X11993991Y-17626270D02*
X11993991Y-17673889D01*
X11993991Y-17673889D02*
X11984467Y-17692936D01*
X11984467Y-17692936D02*
X11974944Y-17702460D01*
X11974944Y-17702460D02*
X11955896Y-17711984D01*
X11955896Y-17711984D02*
X11898753Y-17711984D01*
X11898753Y-17711984D02*
X11879706Y-17702460D01*
X11879706Y-17702460D02*
X11870182Y-17692936D01*
X12089229Y-17711984D02*
X12127325Y-17711984D01*
X12127325Y-17711984D02*
X12146372Y-17702460D01*
X12146372Y-17702460D02*
X12155896Y-17692936D01*
X12155896Y-17692936D02*
X12174944Y-17664365D01*
X12174944Y-17664365D02*
X12184467Y-17626270D01*
X12184467Y-17626270D02*
X12184467Y-17550079D01*
X12184467Y-17550079D02*
X12174944Y-17531031D01*
X12174944Y-17531031D02*
X12165420Y-17521508D01*
X12165420Y-17521508D02*
X12146372Y-17511984D01*
X12146372Y-17511984D02*
X12108277Y-17511984D01*
X12108277Y-17511984D02*
X12089229Y-17521508D01*
X12089229Y-17521508D02*
X12079706Y-17531031D01*
X12079706Y-17531031D02*
X12070182Y-17550079D01*
X12070182Y-17550079D02*
X12070182Y-17597698D01*
X12070182Y-17597698D02*
X12079706Y-17616746D01*
X12079706Y-17616746D02*
X12089229Y-17626270D01*
X12089229Y-17626270D02*
X12108277Y-17635793D01*
X12108277Y-17635793D02*
X12146372Y-17635793D01*
X12146372Y-17635793D02*
X12165420Y-17626270D01*
X12165420Y-17626270D02*
X12174944Y-17616746D01*
X12174944Y-17616746D02*
X12184467Y-17597698D01*
X12308277Y-17511984D02*
X12327325Y-17511984D01*
X12327325Y-17511984D02*
X12346372Y-17521508D01*
X12346372Y-17521508D02*
X12355896Y-17531031D01*
X12355896Y-17531031D02*
X12365420Y-17550079D01*
X12365420Y-17550079D02*
X12374944Y-17588174D01*
X12374944Y-17588174D02*
X12374944Y-17635793D01*
X12374944Y-17635793D02*
X12365420Y-17673889D01*
X12365420Y-17673889D02*
X12355896Y-17692936D01*
X12355896Y-17692936D02*
X12346372Y-17702460D01*
X12346372Y-17702460D02*
X12327325Y-17711984D01*
X12327325Y-17711984D02*
X12308277Y-17711984D01*
X12308277Y-17711984D02*
X12289229Y-17702460D01*
X12289229Y-17702460D02*
X12279706Y-17692936D01*
X12279706Y-17692936D02*
X12270182Y-17673889D01*
X12270182Y-17673889D02*
X12260658Y-17635793D01*
X12260658Y-17635793D02*
X12260658Y-17588174D01*
X12260658Y-17588174D02*
X12270182Y-17550079D01*
X12270182Y-17550079D02*
X12279706Y-17531031D01*
X12279706Y-17531031D02*
X12289229Y-17521508D01*
X12289229Y-17521508D02*
X12308277Y-17511984D01*
X12451134Y-17511984D02*
X12451134Y-17550079D01*
X12527325Y-17511984D02*
X12527325Y-17550079D01*
X12822563Y-17788174D02*
X12813039Y-17778650D01*
X12813039Y-17778650D02*
X12793991Y-17750079D01*
X12793991Y-17750079D02*
X12784468Y-17731031D01*
X12784468Y-17731031D02*
X12774944Y-17702460D01*
X12774944Y-17702460D02*
X12765420Y-17654841D01*
X12765420Y-17654841D02*
X12765420Y-17616746D01*
X12765420Y-17616746D02*
X12774944Y-17569127D01*
X12774944Y-17569127D02*
X12784468Y-17540555D01*
X12784468Y-17540555D02*
X12793991Y-17521508D01*
X12793991Y-17521508D02*
X12813039Y-17492936D01*
X12813039Y-17492936D02*
X12822563Y-17483412D01*
X12984468Y-17578650D02*
X12984468Y-17711984D01*
X12936848Y-17502460D02*
X12889229Y-17645317D01*
X12889229Y-17645317D02*
X13013039Y-17645317D01*
X13241610Y-17711984D02*
X13241610Y-17511984D01*
X13327325Y-17711984D02*
X13327325Y-17607222D01*
X13327325Y-17607222D02*
X13317801Y-17588174D01*
X13317801Y-17588174D02*
X13298753Y-17578650D01*
X13298753Y-17578650D02*
X13270182Y-17578650D01*
X13270182Y-17578650D02*
X13251134Y-17588174D01*
X13251134Y-17588174D02*
X13241610Y-17597698D01*
X13451134Y-17711984D02*
X13432087Y-17702460D01*
X13432087Y-17702460D02*
X13422563Y-17692936D01*
X13422563Y-17692936D02*
X13413039Y-17673889D01*
X13413039Y-17673889D02*
X13413039Y-17616746D01*
X13413039Y-17616746D02*
X13422563Y-17597698D01*
X13422563Y-17597698D02*
X13432087Y-17588174D01*
X13432087Y-17588174D02*
X13451134Y-17578650D01*
X13451134Y-17578650D02*
X13479706Y-17578650D01*
X13479706Y-17578650D02*
X13498753Y-17588174D01*
X13498753Y-17588174D02*
X13508277Y-17597698D01*
X13508277Y-17597698D02*
X13517801Y-17616746D01*
X13517801Y-17616746D02*
X13517801Y-17673889D01*
X13517801Y-17673889D02*
X13508277Y-17692936D01*
X13508277Y-17692936D02*
X13498753Y-17702460D01*
X13498753Y-17702460D02*
X13479706Y-17711984D01*
X13479706Y-17711984D02*
X13451134Y-17711984D01*
X13632087Y-17711984D02*
X13613039Y-17702460D01*
X13613039Y-17702460D02*
X13603515Y-17683412D01*
X13603515Y-17683412D02*
X13603515Y-17511984D01*
X13784468Y-17702460D02*
X13765420Y-17711984D01*
X13765420Y-17711984D02*
X13727325Y-17711984D01*
X13727325Y-17711984D02*
X13708277Y-17702460D01*
X13708277Y-17702460D02*
X13698753Y-17683412D01*
X13698753Y-17683412D02*
X13698753Y-17607222D01*
X13698753Y-17607222D02*
X13708277Y-17588174D01*
X13708277Y-17588174D02*
X13727325Y-17578650D01*
X13727325Y-17578650D02*
X13765420Y-17578650D01*
X13765420Y-17578650D02*
X13784468Y-17588174D01*
X13784468Y-17588174D02*
X13793991Y-17607222D01*
X13793991Y-17607222D02*
X13793991Y-17626270D01*
X13793991Y-17626270D02*
X13698753Y-17645317D01*
X13870182Y-17702460D02*
X13889230Y-17711984D01*
X13889230Y-17711984D02*
X13927325Y-17711984D01*
X13927325Y-17711984D02*
X13946372Y-17702460D01*
X13946372Y-17702460D02*
X13955896Y-17683412D01*
X13955896Y-17683412D02*
X13955896Y-17673889D01*
X13955896Y-17673889D02*
X13946372Y-17654841D01*
X13946372Y-17654841D02*
X13927325Y-17645317D01*
X13927325Y-17645317D02*
X13898753Y-17645317D01*
X13898753Y-17645317D02*
X13879706Y-17635793D01*
X13879706Y-17635793D02*
X13870182Y-17616746D01*
X13870182Y-17616746D02*
X13870182Y-17607222D01*
X13870182Y-17607222D02*
X13879706Y-17588174D01*
X13879706Y-17588174D02*
X13898753Y-17578650D01*
X13898753Y-17578650D02*
X13927325Y-17578650D01*
X13927325Y-17578650D02*
X13946372Y-17588174D01*
X14022563Y-17788174D02*
X14032087Y-17778650D01*
X14032087Y-17778650D02*
X14051134Y-17750079D01*
X14051134Y-17750079D02*
X14060658Y-17731031D01*
X14060658Y-17731031D02*
X14070182Y-17702460D01*
X14070182Y-17702460D02*
X14079706Y-17654841D01*
X14079706Y-17654841D02*
X14079706Y-17616746D01*
X14079706Y-17616746D02*
X14070182Y-17569127D01*
X14070182Y-17569127D02*
X14060658Y-17540555D01*
X14060658Y-17540555D02*
X14051134Y-17521508D01*
X14051134Y-17521508D02*
X14032087Y-17492936D01*
X14032087Y-17492936D02*
X14022563Y-17483412D01*
D13*
X9231831Y-17922331D02*
X9231831Y-17846669D01*
X9156169Y-17846669D01*
X9156169Y-17922331D01*
X9231831Y-17922331D01*
D11*
X9613039Y-17975984D02*
X9498753Y-17975984D01*
X9555896Y-17975984D02*
X9555896Y-17775984D01*
X9555896Y-17775984D02*
X9536848Y-17804555D01*
X9536848Y-17804555D02*
X9517801Y-17823603D01*
X9517801Y-17823603D02*
X9498753Y-17833127D01*
X9698753Y-17956936D02*
X9708277Y-17966460D01*
X9708277Y-17966460D02*
X9698753Y-17975984D01*
X9698753Y-17975984D02*
X9689229Y-17966460D01*
X9689229Y-17966460D02*
X9698753Y-17956936D01*
X9698753Y-17956936D02*
X9698753Y-17975984D01*
X9832086Y-17775984D02*
X9851134Y-17775984D01*
X9851134Y-17775984D02*
X9870182Y-17785508D01*
X9870182Y-17785508D02*
X9879705Y-17795031D01*
X9879705Y-17795031D02*
X9889229Y-17814079D01*
X9889229Y-17814079D02*
X9898753Y-17852174D01*
X9898753Y-17852174D02*
X9898753Y-17899793D01*
X9898753Y-17899793D02*
X9889229Y-17937889D01*
X9889229Y-17937889D02*
X9879705Y-17956936D01*
X9879705Y-17956936D02*
X9870182Y-17966460D01*
X9870182Y-17966460D02*
X9851134Y-17975984D01*
X9851134Y-17975984D02*
X9832086Y-17975984D01*
X9832086Y-17975984D02*
X9813039Y-17966460D01*
X9813039Y-17966460D02*
X9803515Y-17956936D01*
X9803515Y-17956936D02*
X9793991Y-17937889D01*
X9793991Y-17937889D02*
X9784467Y-17899793D01*
X9784467Y-17899793D02*
X9784467Y-17852174D01*
X9784467Y-17852174D02*
X9793991Y-17814079D01*
X9793991Y-17814079D02*
X9803515Y-17795031D01*
X9803515Y-17795031D02*
X9813039Y-17785508D01*
X9813039Y-17785508D02*
X9832086Y-17775984D01*
X9965420Y-17775984D02*
X10098753Y-17775984D01*
X10098753Y-17775984D02*
X10013039Y-17975984D01*
X10213039Y-17775984D02*
X10232086Y-17775984D01*
X10232086Y-17775984D02*
X10251134Y-17785508D01*
X10251134Y-17785508D02*
X10260658Y-17795031D01*
X10260658Y-17795031D02*
X10270182Y-17814079D01*
X10270182Y-17814079D02*
X10279705Y-17852174D01*
X10279705Y-17852174D02*
X10279705Y-17899793D01*
X10279705Y-17899793D02*
X10270182Y-17937889D01*
X10270182Y-17937889D02*
X10260658Y-17956936D01*
X10260658Y-17956936D02*
X10251134Y-17966460D01*
X10251134Y-17966460D02*
X10232086Y-17975984D01*
X10232086Y-17975984D02*
X10213039Y-17975984D01*
X10213039Y-17975984D02*
X10193991Y-17966460D01*
X10193991Y-17966460D02*
X10184467Y-17956936D01*
X10184467Y-17956936D02*
X10174944Y-17937889D01*
X10174944Y-17937889D02*
X10165420Y-17899793D01*
X10165420Y-17899793D02*
X10165420Y-17852174D01*
X10165420Y-17852174D02*
X10174944Y-17814079D01*
X10174944Y-17814079D02*
X10184467Y-17795031D01*
X10184467Y-17795031D02*
X10193991Y-17785508D01*
X10193991Y-17785508D02*
X10213039Y-17775984D01*
X10365420Y-17975984D02*
X10365420Y-17842650D01*
X10365420Y-17861698D02*
X10374944Y-17852174D01*
X10374944Y-17852174D02*
X10393991Y-17842650D01*
X10393991Y-17842650D02*
X10422563Y-17842650D01*
X10422563Y-17842650D02*
X10441610Y-17852174D01*
X10441610Y-17852174D02*
X10451134Y-17871222D01*
X10451134Y-17871222D02*
X10451134Y-17975984D01*
X10451134Y-17871222D02*
X10460658Y-17852174D01*
X10460658Y-17852174D02*
X10479705Y-17842650D01*
X10479705Y-17842650D02*
X10508277Y-17842650D01*
X10508277Y-17842650D02*
X10527325Y-17852174D01*
X10527325Y-17852174D02*
X10536848Y-17871222D01*
X10536848Y-17871222D02*
X10536848Y-17975984D01*
X10632086Y-17975984D02*
X10632086Y-17842650D01*
X10632086Y-17861698D02*
X10641610Y-17852174D01*
X10641610Y-17852174D02*
X10660658Y-17842650D01*
X10660658Y-17842650D02*
X10689229Y-17842650D01*
X10689229Y-17842650D02*
X10708277Y-17852174D01*
X10708277Y-17852174D02*
X10717801Y-17871222D01*
X10717801Y-17871222D02*
X10717801Y-17975984D01*
X10717801Y-17871222D02*
X10727325Y-17852174D01*
X10727325Y-17852174D02*
X10746372Y-17842650D01*
X10746372Y-17842650D02*
X10774944Y-17842650D01*
X10774944Y-17842650D02*
X10793991Y-17852174D01*
X10793991Y-17852174D02*
X10803515Y-17871222D01*
X10803515Y-17871222D02*
X10803515Y-17975984D01*
X11193991Y-17766460D02*
X11022563Y-18023603D01*
X11451134Y-17775984D02*
X11470182Y-17775984D01*
X11470182Y-17775984D02*
X11489229Y-17785508D01*
X11489229Y-17785508D02*
X11498753Y-17795031D01*
X11498753Y-17795031D02*
X11508277Y-17814079D01*
X11508277Y-17814079D02*
X11517801Y-17852174D01*
X11517801Y-17852174D02*
X11517801Y-17899793D01*
X11517801Y-17899793D02*
X11508277Y-17937889D01*
X11508277Y-17937889D02*
X11498753Y-17956936D01*
X11498753Y-17956936D02*
X11489229Y-17966460D01*
X11489229Y-17966460D02*
X11470182Y-17975984D01*
X11470182Y-17975984D02*
X11451134Y-17975984D01*
X11451134Y-17975984D02*
X11432086Y-17966460D01*
X11432086Y-17966460D02*
X11422563Y-17956936D01*
X11422563Y-17956936D02*
X11413039Y-17937889D01*
X11413039Y-17937889D02*
X11403515Y-17899793D01*
X11403515Y-17899793D02*
X11403515Y-17852174D01*
X11403515Y-17852174D02*
X11413039Y-17814079D01*
X11413039Y-17814079D02*
X11422563Y-17795031D01*
X11422563Y-17795031D02*
X11432086Y-17785508D01*
X11432086Y-17785508D02*
X11451134Y-17775984D01*
X11603515Y-17956936D02*
X11613039Y-17966460D01*
X11613039Y-17966460D02*
X11603515Y-17975984D01*
X11603515Y-17975984D02*
X11593991Y-17966460D01*
X11593991Y-17966460D02*
X11603515Y-17956936D01*
X11603515Y-17956936D02*
X11603515Y-17975984D01*
X11736848Y-17775984D02*
X11755896Y-17775984D01*
X11755896Y-17775984D02*
X11774944Y-17785508D01*
X11774944Y-17785508D02*
X11784467Y-17795031D01*
X11784467Y-17795031D02*
X11793991Y-17814079D01*
X11793991Y-17814079D02*
X11803515Y-17852174D01*
X11803515Y-17852174D02*
X11803515Y-17899793D01*
X11803515Y-17899793D02*
X11793991Y-17937889D01*
X11793991Y-17937889D02*
X11784467Y-17956936D01*
X11784467Y-17956936D02*
X11774944Y-17966460D01*
X11774944Y-17966460D02*
X11755896Y-17975984D01*
X11755896Y-17975984D02*
X11736848Y-17975984D01*
X11736848Y-17975984D02*
X11717801Y-17966460D01*
X11717801Y-17966460D02*
X11708277Y-17956936D01*
X11708277Y-17956936D02*
X11698753Y-17937889D01*
X11698753Y-17937889D02*
X11689229Y-17899793D01*
X11689229Y-17899793D02*
X11689229Y-17852174D01*
X11689229Y-17852174D02*
X11698753Y-17814079D01*
X11698753Y-17814079D02*
X11708277Y-17795031D01*
X11708277Y-17795031D02*
X11717801Y-17785508D01*
X11717801Y-17785508D02*
X11736848Y-17775984D01*
X11974944Y-17842650D02*
X11974944Y-17975984D01*
X11927325Y-17766460D02*
X11879706Y-17909317D01*
X11879706Y-17909317D02*
X12003515Y-17909317D01*
X12070182Y-17795031D02*
X12079706Y-17785508D01*
X12079706Y-17785508D02*
X12098753Y-17775984D01*
X12098753Y-17775984D02*
X12146372Y-17775984D01*
X12146372Y-17775984D02*
X12165420Y-17785508D01*
X12165420Y-17785508D02*
X12174944Y-17795031D01*
X12174944Y-17795031D02*
X12184467Y-17814079D01*
X12184467Y-17814079D02*
X12184467Y-17833127D01*
X12184467Y-17833127D02*
X12174944Y-17861698D01*
X12174944Y-17861698D02*
X12060658Y-17975984D01*
X12060658Y-17975984D02*
X12184467Y-17975984D01*
X12374944Y-17975984D02*
X12260658Y-17975984D01*
X12317801Y-17975984D02*
X12317801Y-17775984D01*
X12317801Y-17775984D02*
X12298753Y-17804555D01*
X12298753Y-17804555D02*
X12279706Y-17823603D01*
X12279706Y-17823603D02*
X12260658Y-17833127D01*
X12451134Y-17775984D02*
X12451134Y-17814079D01*
X12527325Y-17775984D02*
X12527325Y-17814079D01*
X12822563Y-18052174D02*
X12813039Y-18042650D01*
X12813039Y-18042650D02*
X12793991Y-18014079D01*
X12793991Y-18014079D02*
X12784468Y-17995031D01*
X12784468Y-17995031D02*
X12774944Y-17966460D01*
X12774944Y-17966460D02*
X12765420Y-17918841D01*
X12765420Y-17918841D02*
X12765420Y-17880746D01*
X12765420Y-17880746D02*
X12774944Y-17833127D01*
X12774944Y-17833127D02*
X12784468Y-17804555D01*
X12784468Y-17804555D02*
X12793991Y-17785508D01*
X12793991Y-17785508D02*
X12813039Y-17756936D01*
X12813039Y-17756936D02*
X12822563Y-17747412D01*
X12984468Y-17842650D02*
X12984468Y-17975984D01*
X12936848Y-17766460D02*
X12889229Y-17909317D01*
X12889229Y-17909317D02*
X13013039Y-17909317D01*
X13241610Y-17975984D02*
X13241610Y-17775984D01*
X13327325Y-17975984D02*
X13327325Y-17871222D01*
X13327325Y-17871222D02*
X13317801Y-17852174D01*
X13317801Y-17852174D02*
X13298753Y-17842650D01*
X13298753Y-17842650D02*
X13270182Y-17842650D01*
X13270182Y-17842650D02*
X13251134Y-17852174D01*
X13251134Y-17852174D02*
X13241610Y-17861698D01*
X13451134Y-17975984D02*
X13432087Y-17966460D01*
X13432087Y-17966460D02*
X13422563Y-17956936D01*
X13422563Y-17956936D02*
X13413039Y-17937889D01*
X13413039Y-17937889D02*
X13413039Y-17880746D01*
X13413039Y-17880746D02*
X13422563Y-17861698D01*
X13422563Y-17861698D02*
X13432087Y-17852174D01*
X13432087Y-17852174D02*
X13451134Y-17842650D01*
X13451134Y-17842650D02*
X13479706Y-17842650D01*
X13479706Y-17842650D02*
X13498753Y-17852174D01*
X13498753Y-17852174D02*
X13508277Y-17861698D01*
X13508277Y-17861698D02*
X13517801Y-17880746D01*
X13517801Y-17880746D02*
X13517801Y-17937889D01*
X13517801Y-17937889D02*
X13508277Y-17956936D01*
X13508277Y-17956936D02*
X13498753Y-17966460D01*
X13498753Y-17966460D02*
X13479706Y-17975984D01*
X13479706Y-17975984D02*
X13451134Y-17975984D01*
X13632087Y-17975984D02*
X13613039Y-17966460D01*
X13613039Y-17966460D02*
X13603515Y-17947412D01*
X13603515Y-17947412D02*
X13603515Y-17775984D01*
X13784468Y-17966460D02*
X13765420Y-17975984D01*
X13765420Y-17975984D02*
X13727325Y-17975984D01*
X13727325Y-17975984D02*
X13708277Y-17966460D01*
X13708277Y-17966460D02*
X13698753Y-17947412D01*
X13698753Y-17947412D02*
X13698753Y-17871222D01*
X13698753Y-17871222D02*
X13708277Y-17852174D01*
X13708277Y-17852174D02*
X13727325Y-17842650D01*
X13727325Y-17842650D02*
X13765420Y-17842650D01*
X13765420Y-17842650D02*
X13784468Y-17852174D01*
X13784468Y-17852174D02*
X13793991Y-17871222D01*
X13793991Y-17871222D02*
X13793991Y-17890270D01*
X13793991Y-17890270D02*
X13698753Y-17909317D01*
X13870182Y-17966460D02*
X13889230Y-17975984D01*
X13889230Y-17975984D02*
X13927325Y-17975984D01*
X13927325Y-17975984D02*
X13946372Y-17966460D01*
X13946372Y-17966460D02*
X13955896Y-17947412D01*
X13955896Y-17947412D02*
X13955896Y-17937889D01*
X13955896Y-17937889D02*
X13946372Y-17918841D01*
X13946372Y-17918841D02*
X13927325Y-17909317D01*
X13927325Y-17909317D02*
X13898753Y-17909317D01*
X13898753Y-17909317D02*
X13879706Y-17899793D01*
X13879706Y-17899793D02*
X13870182Y-17880746D01*
X13870182Y-17880746D02*
X13870182Y-17871222D01*
X13870182Y-17871222D02*
X13879706Y-17852174D01*
X13879706Y-17852174D02*
X13898753Y-17842650D01*
X13898753Y-17842650D02*
X13927325Y-17842650D01*
X13927325Y-17842650D02*
X13946372Y-17852174D01*
X14022563Y-18052174D02*
X14032087Y-18042650D01*
X14032087Y-18042650D02*
X14051134Y-18014079D01*
X14051134Y-18014079D02*
X14060658Y-17995031D01*
X14060658Y-17995031D02*
X14070182Y-17966460D01*
X14070182Y-17966460D02*
X14079706Y-17918841D01*
X14079706Y-17918841D02*
X14079706Y-17880746D01*
X14079706Y-17880746D02*
X14070182Y-17833127D01*
X14070182Y-17833127D02*
X14060658Y-17804555D01*
X14060658Y-17804555D02*
X14051134Y-17785508D01*
X14051134Y-17785508D02*
X14032087Y-17756936D01*
X14032087Y-17756936D02*
X14022563Y-17747412D01*
M02*
