%TF.GenerationSoftware,KiCad,Pcbnew,8.0.1*%
%TF.CreationDate,2024-04-13T13:32:27+05:30*%
%TF.ProjectId,piso,7069736f-2e6b-4696-9361-645f70636258,rev?*%
%TF.SameCoordinates,Original*%
%TF.FileFunction,Soldermask,Top*%
%TF.FilePolarity,Negative*%
%FSLAX46Y46*%
G04 Gerber Fmt 4.6, Leading zero omitted, Abs format (unit mm)*
G04 Created by KiCad (PCBNEW 8.0.1) date 2024-04-13 13:32:27*
%MOMM*%
%LPD*%
G01*
G04 APERTURE LIST*
G04 Aperture macros list*
%AMRoundRect*
0 Rectangle with rounded corners*
0 $1 Rounding radius*
0 $2 $3 $4 $5 $6 $7 $8 $9 X,Y pos of 4 corners*
0 Add a 4 corners polygon primitive as box body*
4,1,4,$2,$3,$4,$5,$6,$7,$8,$9,$2,$3,0*
0 Add four circle primitives for the rounded corners*
1,1,$1+$1,$2,$3*
1,1,$1+$1,$4,$5*
1,1,$1+$1,$6,$7*
1,1,$1+$1,$8,$9*
0 Add four rect primitives between the rounded corners*
20,1,$1+$1,$2,$3,$4,$5,0*
20,1,$1+$1,$4,$5,$6,$7,0*
20,1,$1+$1,$6,$7,$8,$9,0*
20,1,$1+$1,$8,$9,$2,$3,0*%
G04 Aperture macros list end*
%ADD10R,1.800000X1.800000*%
%ADD11C,1.800000*%
%ADD12RoundRect,0.030700X-1.051300X-0.276300X1.051300X-0.276300X1.051300X0.276300X-1.051300X0.276300X0*%
%ADD13RoundRect,0.102000X-0.550000X0.750000X-0.550000X-0.750000X0.550000X-0.750000X0.550000X0.750000X0*%
%ADD14RoundRect,0.102000X0.550000X-0.750000X0.550000X0.750000X-0.550000X0.750000X-0.550000X-0.750000X0*%
%ADD15RoundRect,0.120600X-0.966400X-0.281400X0.966400X-0.281400X0.966400X0.281400X-0.966400X0.281400X0*%
%ADD16RoundRect,0.102000X0.802500X-0.802500X0.802500X0.802500X-0.802500X0.802500X-0.802500X-0.802500X0*%
%ADD17C,1.809000*%
%ADD18RoundRect,0.102000X0.749000X0.749000X-0.749000X0.749000X-0.749000X-0.749000X0.749000X-0.749000X0*%
%ADD19C,1.702000*%
G04 APERTURE END LIST*
D10*
%TO.C,D2*%
X133000000Y-150500000D03*
D11*
X130460000Y-150500000D03*
%TD*%
D12*
%TO.C,U2*%
X143020000Y-118260000D03*
X143020000Y-118900000D03*
X143020000Y-119540000D03*
X143020000Y-120180000D03*
X143020000Y-120820000D03*
X143020000Y-121460000D03*
X143020000Y-122100000D03*
X143020000Y-122740000D03*
X147980000Y-122740000D03*
X147980000Y-122100000D03*
X147980000Y-121460000D03*
X147980000Y-120820000D03*
X147980000Y-120180000D03*
X147980000Y-119540000D03*
X147980000Y-118900000D03*
X147980000Y-118260000D03*
%TD*%
D10*
%TO.C,D0*%
X148000000Y-150500000D03*
D11*
X145460000Y-150500000D03*
%TD*%
D13*
%TO.C,S1*%
X144000000Y-95050000D03*
D14*
X144000000Y-103950000D03*
D13*
X141460000Y-95050000D03*
D14*
X141460000Y-103950000D03*
D13*
X138920000Y-95050000D03*
D14*
X138920000Y-103950000D03*
%TD*%
D15*
%TO.C,U3*%
X117500000Y-122500000D03*
X117500000Y-123770000D03*
X117500000Y-125040000D03*
X117500000Y-126310000D03*
X117500000Y-127580000D03*
X117500000Y-128850000D03*
X117500000Y-130120000D03*
X122450000Y-130120000D03*
X122450000Y-128850000D03*
X122450000Y-127580000D03*
X122450000Y-126310000D03*
X122450000Y-125040000D03*
X122450000Y-123770000D03*
X122450000Y-122500000D03*
%TD*%
D16*
%TO.C,J1*%
X98000000Y-129810000D03*
D17*
X98000000Y-127270000D03*
X98000000Y-124730000D03*
X98000000Y-122190000D03*
%TD*%
D10*
%TO.C,Dout*%
X174500000Y-150500000D03*
D11*
X171960000Y-150500000D03*
%TD*%
D10*
%TO.C,D3*%
X125500000Y-150500000D03*
D11*
X122960000Y-150500000D03*
%TD*%
D13*
%TO.C,S2*%
X154000000Y-95000000D03*
D14*
X154000000Y-103900000D03*
D13*
X151460000Y-95000000D03*
D14*
X151460000Y-103900000D03*
D13*
X148920000Y-95000000D03*
D14*
X148920000Y-103900000D03*
%TD*%
D18*
%TO.C,SW1*%
X121750000Y-102250000D03*
D19*
X115250000Y-102250000D03*
X121750000Y-97750000D03*
X115250000Y-97750000D03*
%TD*%
D15*
%TO.C,U4*%
X171050000Y-122500000D03*
X171050000Y-123770000D03*
X171050000Y-125040000D03*
X171050000Y-126310000D03*
X171050000Y-127580000D03*
X171050000Y-128850000D03*
X171050000Y-130120000D03*
X176000000Y-130120000D03*
X176000000Y-128850000D03*
X176000000Y-127580000D03*
X176000000Y-126310000D03*
X176000000Y-125040000D03*
X176000000Y-123770000D03*
X176000000Y-122500000D03*
%TD*%
D10*
%TO.C,D1*%
X140500000Y-150500000D03*
D11*
X137960000Y-150500000D03*
%TD*%
M02*
