%TF.GenerationSoftware,KiCad,Pcbnew,8.0.1*%
%TF.CreationDate,2024-04-13T17:17:52+05:30*%
%TF.ProjectId,piso,7069736f-2e6b-4696-9361-645f70636258,rev?*%
%TF.SameCoordinates,Original*%
%TF.FileFunction,Copper,L2,Bot*%
%TF.FilePolarity,Positive*%
%FSLAX46Y46*%
G04 Gerber Fmt 4.6, Leading zero omitted, Abs format (unit mm)*
G04 Created by KiCad (PCBNEW 8.0.1) date 2024-04-13 17:17:52*
%MOMM*%
%LPD*%
G01*
G04 APERTURE LIST*
%ADD10C,0.300000*%
%TA.AperFunction,NonConductor*%
%ADD11C,0.300000*%
%TD*%
%TA.AperFunction,ComponentPad*%
%ADD12R,1.800000X1.800000*%
%TD*%
%TA.AperFunction,ComponentPad*%
%ADD13C,1.800000*%
%TD*%
%TA.AperFunction,ComponentPad*%
%ADD14R,1.605000X1.605000*%
%TD*%
%TA.AperFunction,ComponentPad*%
%ADD15C,1.605000*%
%TD*%
%TA.AperFunction,ComponentPad*%
%ADD16R,1.498000X1.498000*%
%TD*%
%TA.AperFunction,ComponentPad*%
%ADD17C,1.498000*%
%TD*%
%TA.AperFunction,ViaPad*%
%ADD18C,0.600000*%
%TD*%
%TA.AperFunction,Conductor*%
%ADD19C,0.200000*%
%TD*%
G04 APERTURE END LIST*
D10*
D11*
X158159774Y-155300828D02*
X157874060Y-155300828D01*
X157874060Y-155300828D02*
X157731203Y-155372257D01*
X157731203Y-155372257D02*
X157588346Y-155515114D01*
X157588346Y-155515114D02*
X157516917Y-155800828D01*
X157516917Y-155800828D02*
X157516917Y-156300828D01*
X157516917Y-156300828D02*
X157588346Y-156586542D01*
X157588346Y-156586542D02*
X157731203Y-156729400D01*
X157731203Y-156729400D02*
X157874060Y-156800828D01*
X157874060Y-156800828D02*
X158159774Y-156800828D01*
X158159774Y-156800828D02*
X158302632Y-156729400D01*
X158302632Y-156729400D02*
X158445489Y-156586542D01*
X158445489Y-156586542D02*
X158516917Y-156300828D01*
X158516917Y-156300828D02*
X158516917Y-155800828D01*
X158516917Y-155800828D02*
X158445489Y-155515114D01*
X158445489Y-155515114D02*
X158302632Y-155372257D01*
X158302632Y-155372257D02*
X158159774Y-155300828D01*
X155802631Y-155229400D02*
X157088345Y-157157971D01*
X155302631Y-156800828D02*
X155302631Y-155300828D01*
X155302631Y-155300828D02*
X154731202Y-155300828D01*
X154731202Y-155300828D02*
X154588345Y-155372257D01*
X154588345Y-155372257D02*
X154516916Y-155443685D01*
X154516916Y-155443685D02*
X154445488Y-155586542D01*
X154445488Y-155586542D02*
X154445488Y-155800828D01*
X154445488Y-155800828D02*
X154516916Y-155943685D01*
X154516916Y-155943685D02*
X154588345Y-156015114D01*
X154588345Y-156015114D02*
X154731202Y-156086542D01*
X154731202Y-156086542D02*
X155302631Y-156086542D01*
X153874059Y-156729400D02*
X153731202Y-156800828D01*
X153731202Y-156800828D02*
X153445488Y-156800828D01*
X153445488Y-156800828D02*
X153302631Y-156729400D01*
X153302631Y-156729400D02*
X153231202Y-156586542D01*
X153231202Y-156586542D02*
X153231202Y-156515114D01*
X153231202Y-156515114D02*
X153302631Y-156372257D01*
X153302631Y-156372257D02*
X153445488Y-156300828D01*
X153445488Y-156300828D02*
X153659774Y-156300828D01*
X153659774Y-156300828D02*
X153802631Y-156229400D01*
X153802631Y-156229400D02*
X153874059Y-156086542D01*
X153874059Y-156086542D02*
X153874059Y-156015114D01*
X153874059Y-156015114D02*
X153802631Y-155872257D01*
X153802631Y-155872257D02*
X153659774Y-155800828D01*
X153659774Y-155800828D02*
X153445488Y-155800828D01*
X153445488Y-155800828D02*
X153302631Y-155872257D01*
D10*
D11*
X147945489Y-100300828D02*
X147945489Y-98800828D01*
X146159774Y-98729400D02*
X147445488Y-100657971D01*
X145659774Y-100300828D02*
X145659774Y-98800828D01*
X145659774Y-98800828D02*
X145088345Y-98800828D01*
X145088345Y-98800828D02*
X144945488Y-98872257D01*
X144945488Y-98872257D02*
X144874059Y-98943685D01*
X144874059Y-98943685D02*
X144802631Y-99086542D01*
X144802631Y-99086542D02*
X144802631Y-99300828D01*
X144802631Y-99300828D02*
X144874059Y-99443685D01*
X144874059Y-99443685D02*
X144945488Y-99515114D01*
X144945488Y-99515114D02*
X145088345Y-99586542D01*
X145088345Y-99586542D02*
X145659774Y-99586542D01*
X144231202Y-100229400D02*
X144088345Y-100300828D01*
X144088345Y-100300828D02*
X143802631Y-100300828D01*
X143802631Y-100300828D02*
X143659774Y-100229400D01*
X143659774Y-100229400D02*
X143588345Y-100086542D01*
X143588345Y-100086542D02*
X143588345Y-100015114D01*
X143588345Y-100015114D02*
X143659774Y-99872257D01*
X143659774Y-99872257D02*
X143802631Y-99800828D01*
X143802631Y-99800828D02*
X144016917Y-99800828D01*
X144016917Y-99800828D02*
X144159774Y-99729400D01*
X144159774Y-99729400D02*
X144231202Y-99586542D01*
X144231202Y-99586542D02*
X144231202Y-99515114D01*
X144231202Y-99515114D02*
X144159774Y-99372257D01*
X144159774Y-99372257D02*
X144016917Y-99300828D01*
X144016917Y-99300828D02*
X143802631Y-99300828D01*
X143802631Y-99300828D02*
X143659774Y-99372257D01*
D10*
D11*
X125945489Y-135800828D02*
X125945489Y-134300828D01*
X125945489Y-134300828D02*
X125588346Y-134300828D01*
X125588346Y-134300828D02*
X125374060Y-134372257D01*
X125374060Y-134372257D02*
X125231203Y-134515114D01*
X125231203Y-134515114D02*
X125159774Y-134657971D01*
X125159774Y-134657971D02*
X125088346Y-134943685D01*
X125088346Y-134943685D02*
X125088346Y-135157971D01*
X125088346Y-135157971D02*
X125159774Y-135443685D01*
X125159774Y-135443685D02*
X125231203Y-135586542D01*
X125231203Y-135586542D02*
X125374060Y-135729400D01*
X125374060Y-135729400D02*
X125588346Y-135800828D01*
X125588346Y-135800828D02*
X125945489Y-135800828D01*
X124445489Y-134300828D02*
X124445489Y-135515114D01*
X124445489Y-135515114D02*
X124374060Y-135657971D01*
X124374060Y-135657971D02*
X124302632Y-135729400D01*
X124302632Y-135729400D02*
X124159774Y-135800828D01*
X124159774Y-135800828D02*
X123874060Y-135800828D01*
X123874060Y-135800828D02*
X123731203Y-135729400D01*
X123731203Y-135729400D02*
X123659774Y-135657971D01*
X123659774Y-135657971D02*
X123588346Y-135515114D01*
X123588346Y-135515114D02*
X123588346Y-134300828D01*
X122945488Y-135372257D02*
X122231203Y-135372257D01*
X123088345Y-135800828D02*
X122588345Y-134300828D01*
X122588345Y-134300828D02*
X122088345Y-135800828D01*
X120874060Y-135800828D02*
X121588346Y-135800828D01*
X121588346Y-135800828D02*
X121588346Y-134300828D01*
X119231203Y-135800828D02*
X119231203Y-134300828D01*
X119231203Y-134300828D02*
X118874060Y-134300828D01*
X118874060Y-134300828D02*
X118659774Y-134372257D01*
X118659774Y-134372257D02*
X118516917Y-134515114D01*
X118516917Y-134515114D02*
X118445488Y-134657971D01*
X118445488Y-134657971D02*
X118374060Y-134943685D01*
X118374060Y-134943685D02*
X118374060Y-135157971D01*
X118374060Y-135157971D02*
X118445488Y-135443685D01*
X118445488Y-135443685D02*
X118516917Y-135586542D01*
X118516917Y-135586542D02*
X118659774Y-135729400D01*
X118659774Y-135729400D02*
X118874060Y-135800828D01*
X118874060Y-135800828D02*
X119231203Y-135800828D01*
X118088346Y-135943685D02*
X116945488Y-135943685D01*
X116088346Y-135015114D02*
X116588346Y-135015114D01*
X116588346Y-135800828D02*
X116588346Y-134300828D01*
X116588346Y-134300828D02*
X115874060Y-134300828D01*
X114802632Y-135015114D02*
X115302632Y-135015114D01*
X115302632Y-135800828D02*
X115302632Y-134300828D01*
X115302632Y-134300828D02*
X114588346Y-134300828D01*
X114088346Y-135729400D02*
X113945489Y-135800828D01*
X113945489Y-135800828D02*
X113659775Y-135800828D01*
X113659775Y-135800828D02*
X113516918Y-135729400D01*
X113516918Y-135729400D02*
X113445489Y-135586542D01*
X113445489Y-135586542D02*
X113445489Y-135515114D01*
X113445489Y-135515114D02*
X113516918Y-135372257D01*
X113516918Y-135372257D02*
X113659775Y-135300828D01*
X113659775Y-135300828D02*
X113874061Y-135300828D01*
X113874061Y-135300828D02*
X114016918Y-135229400D01*
X114016918Y-135229400D02*
X114088346Y-135086542D01*
X114088346Y-135086542D02*
X114088346Y-135015114D01*
X114088346Y-135015114D02*
X114016918Y-134872257D01*
X114016918Y-134872257D02*
X113874061Y-134800828D01*
X113874061Y-134800828D02*
X113659775Y-134800828D01*
X113659775Y-134800828D02*
X113516918Y-134872257D01*
D10*
D11*
X179945489Y-135800828D02*
X179945489Y-134300828D01*
X179945489Y-134300828D02*
X179588346Y-134300828D01*
X179588346Y-134300828D02*
X179374060Y-134372257D01*
X179374060Y-134372257D02*
X179231203Y-134515114D01*
X179231203Y-134515114D02*
X179159774Y-134657971D01*
X179159774Y-134657971D02*
X179088346Y-134943685D01*
X179088346Y-134943685D02*
X179088346Y-135157971D01*
X179088346Y-135157971D02*
X179159774Y-135443685D01*
X179159774Y-135443685D02*
X179231203Y-135586542D01*
X179231203Y-135586542D02*
X179374060Y-135729400D01*
X179374060Y-135729400D02*
X179588346Y-135800828D01*
X179588346Y-135800828D02*
X179945489Y-135800828D01*
X178445489Y-134300828D02*
X178445489Y-135515114D01*
X178445489Y-135515114D02*
X178374060Y-135657971D01*
X178374060Y-135657971D02*
X178302632Y-135729400D01*
X178302632Y-135729400D02*
X178159774Y-135800828D01*
X178159774Y-135800828D02*
X177874060Y-135800828D01*
X177874060Y-135800828D02*
X177731203Y-135729400D01*
X177731203Y-135729400D02*
X177659774Y-135657971D01*
X177659774Y-135657971D02*
X177588346Y-135515114D01*
X177588346Y-135515114D02*
X177588346Y-134300828D01*
X176945488Y-135372257D02*
X176231203Y-135372257D01*
X177088345Y-135800828D02*
X176588345Y-134300828D01*
X176588345Y-134300828D02*
X176088345Y-135800828D01*
X174874060Y-135800828D02*
X175588346Y-135800828D01*
X175588346Y-135800828D02*
X175588346Y-134300828D01*
X173231203Y-135800828D02*
X173231203Y-134300828D01*
X173231203Y-134300828D02*
X172874060Y-134300828D01*
X172874060Y-134300828D02*
X172659774Y-134372257D01*
X172659774Y-134372257D02*
X172516917Y-134515114D01*
X172516917Y-134515114D02*
X172445488Y-134657971D01*
X172445488Y-134657971D02*
X172374060Y-134943685D01*
X172374060Y-134943685D02*
X172374060Y-135157971D01*
X172374060Y-135157971D02*
X172445488Y-135443685D01*
X172445488Y-135443685D02*
X172516917Y-135586542D01*
X172516917Y-135586542D02*
X172659774Y-135729400D01*
X172659774Y-135729400D02*
X172874060Y-135800828D01*
X172874060Y-135800828D02*
X173231203Y-135800828D01*
X172088346Y-135943685D02*
X170945488Y-135943685D01*
X170088346Y-135015114D02*
X170588346Y-135015114D01*
X170588346Y-135800828D02*
X170588346Y-134300828D01*
X170588346Y-134300828D02*
X169874060Y-134300828D01*
X168802632Y-135015114D02*
X169302632Y-135015114D01*
X169302632Y-135800828D02*
X169302632Y-134300828D01*
X169302632Y-134300828D02*
X168588346Y-134300828D01*
X168088346Y-135729400D02*
X167945489Y-135800828D01*
X167945489Y-135800828D02*
X167659775Y-135800828D01*
X167659775Y-135800828D02*
X167516918Y-135729400D01*
X167516918Y-135729400D02*
X167445489Y-135586542D01*
X167445489Y-135586542D02*
X167445489Y-135515114D01*
X167445489Y-135515114D02*
X167516918Y-135372257D01*
X167516918Y-135372257D02*
X167659775Y-135300828D01*
X167659775Y-135300828D02*
X167874061Y-135300828D01*
X167874061Y-135300828D02*
X168016918Y-135229400D01*
X168016918Y-135229400D02*
X168088346Y-135086542D01*
X168088346Y-135086542D02*
X168088346Y-135015114D01*
X168088346Y-135015114D02*
X168016918Y-134872257D01*
X168016918Y-134872257D02*
X167874061Y-134800828D01*
X167874061Y-134800828D02*
X167659775Y-134800828D01*
X167659775Y-134800828D02*
X167516918Y-134872257D01*
D10*
D11*
X146945489Y-129800828D02*
X146945489Y-128300828D01*
X146945489Y-128300828D02*
X146445489Y-129372257D01*
X146445489Y-129372257D02*
X145945489Y-128300828D01*
X145945489Y-128300828D02*
X145945489Y-129800828D01*
X145231203Y-128300828D02*
X145231203Y-129515114D01*
X145231203Y-129515114D02*
X145159774Y-129657971D01*
X145159774Y-129657971D02*
X145088346Y-129729400D01*
X145088346Y-129729400D02*
X144945488Y-129800828D01*
X144945488Y-129800828D02*
X144659774Y-129800828D01*
X144659774Y-129800828D02*
X144516917Y-129729400D01*
X144516917Y-129729400D02*
X144445488Y-129657971D01*
X144445488Y-129657971D02*
X144374060Y-129515114D01*
X144374060Y-129515114D02*
X144374060Y-128300828D01*
X143802631Y-128300828D02*
X142802631Y-129800828D01*
X142802631Y-128300828D02*
X143802631Y-129800828D01*
D10*
D11*
X106945489Y-157800828D02*
X106945489Y-156300828D01*
X106945489Y-156300828D02*
X106374060Y-156300828D01*
X106374060Y-156300828D02*
X106231203Y-156372257D01*
X106231203Y-156372257D02*
X106159774Y-156443685D01*
X106159774Y-156443685D02*
X106088346Y-156586542D01*
X106088346Y-156586542D02*
X106088346Y-156800828D01*
X106088346Y-156800828D02*
X106159774Y-156943685D01*
X106159774Y-156943685D02*
X106231203Y-157015114D01*
X106231203Y-157015114D02*
X106374060Y-157086542D01*
X106374060Y-157086542D02*
X106945489Y-157086542D01*
X105659774Y-156300828D02*
X104802632Y-156300828D01*
X105231203Y-157800828D02*
X105231203Y-156300828D01*
X104516917Y-156300828D02*
X104016917Y-157800828D01*
X104016917Y-157800828D02*
X103516917Y-156300828D01*
D12*
%TO.P,D2,1,K*%
%TO.N,GND*%
X133000000Y-150500000D03*
D13*
%TO.P,D2,2,A*%
%TO.N,D2*%
X130460000Y-150500000D03*
%TD*%
D12*
%TO.P,D0,1,K*%
%TO.N,GND*%
X148000000Y-150500000D03*
D13*
%TO.P,D0,2,A*%
%TO.N,D0*%
X145460000Y-150500000D03*
%TD*%
D14*
%TO.P,J1,1,1*%
%TO.N,GND*%
X98000000Y-129810000D03*
D15*
%TO.P,J1,2,2*%
%TO.N,Vdd*%
X98000000Y-127270000D03*
%TO.P,J1,3,3*%
X98000000Y-124730000D03*
%TO.P,J1,4,4*%
%TO.N,GND*%
X98000000Y-122190000D03*
%TD*%
D12*
%TO.P,Dout,1,K*%
%TO.N,GND*%
X174500000Y-150500000D03*
D13*
%TO.P,Dout,2,A*%
%TO.N,Dout*%
X171960000Y-150500000D03*
%TD*%
D12*
%TO.P,D3,1,K*%
%TO.N,GND*%
X125500000Y-150500000D03*
D13*
%TO.P,D3,2,A*%
%TO.N,D3*%
X122960000Y-150500000D03*
%TD*%
D16*
%TO.P,SW1,1*%
%TO.N,CLK*%
X121750000Y-102250000D03*
D17*
%TO.P,SW1,2*%
%TO.N,unconnected-(SW1-Pad2)*%
X115250000Y-102250000D03*
%TO.P,SW1,3*%
%TO.N,Vdd*%
X121750000Y-97750000D03*
%TO.P,SW1,4*%
%TO.N,unconnected-(SW1-Pad4)*%
X115250000Y-97750000D03*
%TD*%
D12*
%TO.P,D1,1,K*%
%TO.N,GND*%
X140500000Y-150500000D03*
D13*
%TO.P,D1,2,A*%
%TO.N,D1*%
X137960000Y-150500000D03*
%TD*%
D18*
%TO.N,D0*%
X140000000Y-120000000D03*
X167000000Y-129000000D03*
%TO.N,D1*%
X160000000Y-128500000D03*
X140000000Y-122500000D03*
%TO.N,D2*%
X146000000Y-124500000D03*
X117500000Y-127500000D03*
%TO.N,D3*%
X122500000Y-129000000D03*
X150500000Y-121000000D03*
%TO.N,Vdd*%
X189000000Y-122500000D03*
X176500000Y-122500000D03*
X122500000Y-122500000D03*
%TO.N,GND*%
X176000000Y-130000000D03*
X174500000Y-163000000D03*
X125500000Y-163000000D03*
X140500000Y-163000000D03*
X133000000Y-163000000D03*
X117500000Y-130000000D03*
X148000000Y-163000000D03*
X192000000Y-130000000D03*
X94500000Y-133500000D03*
X143000000Y-124500000D03*
%TO.N,Net-(U2-S4A)*%
X151000000Y-119000000D03*
X144000000Y-104000000D03*
%TO.N,Net-(U2-S2A)*%
X138500000Y-120500000D03*
X151500000Y-104000000D03*
%TO.N,Net-(U2-S3A)*%
X149000000Y-104000000D03*
X146000000Y-121500000D03*
%TD*%
D19*
%TO.N,D0*%
X158000000Y-120000000D02*
X167000000Y-129000000D01*
X140000000Y-120000000D02*
X158000000Y-120000000D01*
%TO.N,D1*%
X160000000Y-128500000D02*
X151900000Y-120400000D01*
X151900000Y-120400000D02*
X150251471Y-120400000D01*
X140575736Y-123075736D02*
X140000000Y-122500000D01*
X150251471Y-120400000D02*
X147575736Y-123075736D01*
X147575736Y-123075736D02*
X140575736Y-123075736D01*
%TO.N,D2*%
X141100000Y-123900000D02*
X145400000Y-123900000D01*
X145400000Y-123900000D02*
X146000000Y-124500000D01*
X117500000Y-127500000D02*
X137500000Y-127500000D01*
X137500000Y-127500000D02*
X141100000Y-123900000D01*
%TO.N,D3*%
X122960000Y-129960000D02*
X122960000Y-130000000D01*
X141500000Y-130000000D02*
X122960000Y-130000000D01*
X122500000Y-129500000D02*
X122960000Y-129960000D01*
X122960000Y-130000000D02*
X122960000Y-150500000D01*
X150500000Y-121000000D02*
X141500000Y-130000000D01*
X122500000Y-129000000D02*
X122500000Y-129500000D01*
%TO.N,Vdd*%
X176500000Y-122500000D02*
X189000000Y-122500000D01*
X122500000Y-122500000D02*
X100230000Y-122500000D01*
X100230000Y-122500000D02*
X98000000Y-124730000D01*
%TO.N,GND*%
X140500000Y-163000000D02*
X140500000Y-150500000D01*
X133000000Y-150500000D02*
X133000000Y-163000000D01*
X176000000Y-130000000D02*
X176500000Y-130000000D01*
X148000000Y-150500000D02*
X148000000Y-163000000D01*
X114000000Y-133500000D02*
X117500000Y-130000000D01*
X143000000Y-124500000D02*
X138500000Y-129000000D01*
X124000000Y-129000000D02*
X123400000Y-128400000D01*
X176500000Y-130000000D02*
X192000000Y-130000000D01*
X174500000Y-150500000D02*
X174500000Y-163000000D01*
X123400000Y-128400000D02*
X119100000Y-128400000D01*
X119100000Y-128400000D02*
X117500000Y-130000000D01*
X125500000Y-163000000D02*
X125500000Y-150500000D01*
X94500000Y-133500000D02*
X114000000Y-133500000D01*
X138500000Y-129000000D02*
X124000000Y-129000000D01*
%TO.N,Net-(U2-S4A)*%
X138251471Y-121100000D02*
X137900000Y-120748529D01*
X151000000Y-119000000D02*
X140151471Y-119000000D01*
X138900000Y-121100000D02*
X138251471Y-121100000D01*
X139100000Y-120900000D02*
X138900000Y-121100000D01*
X139100000Y-120051471D02*
X139100000Y-120900000D01*
X137900000Y-110100000D02*
X144000000Y-104000000D01*
X140151471Y-119000000D02*
X139100000Y-120051471D01*
X137900000Y-120748529D02*
X137900000Y-110100000D01*
%TO.N,Net-(U2-S2A)*%
X151000000Y-107500000D02*
X151000000Y-104500000D01*
X143500000Y-108500000D02*
X150000000Y-108500000D01*
X138500000Y-113500000D02*
X143500000Y-108500000D01*
X150000000Y-108500000D02*
X151000000Y-107500000D01*
X151000000Y-104500000D02*
X151500000Y-104000000D01*
X138500000Y-120500000D02*
X138500000Y-113500000D01*
%TO.N,Net-(U2-S3A)*%
X138085786Y-121500000D02*
X137500000Y-120914214D01*
X146000000Y-121500000D02*
X138085786Y-121500000D01*
X143600000Y-103400000D02*
X148400000Y-103400000D01*
X137500000Y-109500000D02*
X143600000Y-103400000D01*
X148400000Y-103400000D02*
X149000000Y-104000000D01*
X137500000Y-120914214D02*
X137500000Y-109500000D01*
%TD*%
M02*
