%TF.GenerationSoftware,KiCad,Pcbnew,8.0.1*%
%TF.CreationDate,2024-04-13T21:46:53+05:30*%
%TF.ProjectId,piso,7069736f-2e6b-4696-9361-645f70636258,rev?*%
%TF.SameCoordinates,Original*%
%TF.FileFunction,Copper,L1,Top*%
%TF.FilePolarity,Positive*%
%FSLAX46Y46*%
G04 Gerber Fmt 4.6, Leading zero omitted, Abs format (unit mm)*
G04 Created by KiCad (PCBNEW 8.0.1) date 2024-04-13 21:46:53*
%MOMM*%
%LPD*%
G01*
G04 APERTURE LIST*
G04 Aperture macros list*
%AMRoundRect*
0 Rectangle with rounded corners*
0 $1 Rounding radius*
0 $2 $3 $4 $5 $6 $7 $8 $9 X,Y pos of 4 corners*
0 Add a 4 corners polygon primitive as box body*
4,1,4,$2,$3,$4,$5,$6,$7,$8,$9,$2,$3,0*
0 Add four circle primitives for the rounded corners*
1,1,$1+$1,$2,$3*
1,1,$1+$1,$4,$5*
1,1,$1+$1,$6,$7*
1,1,$1+$1,$8,$9*
0 Add four rect primitives between the rounded corners*
20,1,$1+$1,$2,$3,$4,$5,0*
20,1,$1+$1,$4,$5,$6,$7,0*
20,1,$1+$1,$6,$7,$8,$9,0*
20,1,$1+$1,$8,$9,$2,$3,0*%
G04 Aperture macros list end*
%TA.AperFunction,ComponentPad*%
%ADD10R,1.800000X1.800000*%
%TD*%
%TA.AperFunction,ComponentPad*%
%ADD11C,1.800000*%
%TD*%
%TA.AperFunction,SMDPad,CuDef*%
%ADD12RoundRect,0.020500X-0.959500X-0.184500X0.959500X-0.184500X0.959500X0.184500X-0.959500X0.184500X0*%
%TD*%
%TA.AperFunction,SMDPad,CuDef*%
%ADD13RoundRect,0.094000X0.416000X-0.376000X0.416000X0.376000X-0.416000X0.376000X-0.416000X-0.376000X0*%
%TD*%
%TA.AperFunction,SMDPad,CuDef*%
%ADD14R,1.100000X1.500000*%
%TD*%
%TA.AperFunction,SMDPad,CuDef*%
%ADD15RoundRect,0.090000X-0.895000X-0.210000X0.895000X-0.210000X0.895000X0.210000X-0.895000X0.210000X0*%
%TD*%
%TA.AperFunction,ComponentPad*%
%ADD16R,1.605000X1.605000*%
%TD*%
%TA.AperFunction,ComponentPad*%
%ADD17C,1.605000*%
%TD*%
%TA.AperFunction,ComponentPad*%
%ADD18R,1.498000X1.498000*%
%TD*%
%TA.AperFunction,ComponentPad*%
%ADD19C,1.498000*%
%TD*%
%TA.AperFunction,ViaPad*%
%ADD20C,0.600000*%
%TD*%
%TA.AperFunction,Conductor*%
%ADD21C,0.200000*%
%TD*%
G04 APERTURE END LIST*
D10*
%TO.P,D2,1,K*%
%TO.N,GND*%
X133000000Y-150500000D03*
D11*
%TO.P,D2,2,A*%
%TO.N,Net-(D2-A)*%
X130460000Y-150500000D03*
%TD*%
D12*
%TO.P,U2,1,IN*%
%TO.N,En*%
X143020000Y-118260000D03*
%TO.P,U2,2,S1A*%
%TO.N,Net-(U2-S1A)*%
X143020000Y-118900000D03*
%TO.P,U2,3,S1B*%
%TO.N,Net-(U2-S1B)*%
X143020000Y-119540000D03*
%TO.P,U2,4,D1*%
%TO.N,D0*%
X143020000Y-120180000D03*
%TO.P,U2,5,S2A*%
%TO.N,Net-(U2-S2A)*%
X143020000Y-120820000D03*
%TO.P,U2,6,S2B*%
%TO.N,Net-(U2-S2B)*%
X143020000Y-121460000D03*
%TO.P,U2,7,D2*%
%TO.N,D1*%
X143020000Y-122100000D03*
%TO.P,U2,8,GND*%
%TO.N,GND*%
X143020000Y-122740000D03*
%TO.P,U2,9,D3*%
%TO.N,D2*%
X147980000Y-122740000D03*
%TO.P,U2,10,S3B*%
%TO.N,Net-(U2-S3B)*%
X147980000Y-122100000D03*
%TO.P,U2,11,S3A*%
%TO.N,Net-(U2-S3A)*%
X147980000Y-121460000D03*
%TO.P,U2,12,D4*%
%TO.N,D3*%
X147980000Y-120820000D03*
%TO.P,U2,13,S4B*%
%TO.N,GND*%
X147980000Y-120180000D03*
%TO.P,U2,14,S4A*%
%TO.N,Net-(U2-S4A)*%
X147980000Y-119540000D03*
%TO.P,U2,15,EN\u002A*%
%TO.N,GND*%
X147980000Y-118900000D03*
%TO.P,U2,16,VDD*%
%TO.N,Vdd*%
X147980000Y-118260000D03*
%TD*%
D10*
%TO.P,D0,1,K*%
%TO.N,GND*%
X148000000Y-150500000D03*
D11*
%TO.P,D0,2,A*%
%TO.N,Net-(D0-A)*%
X145460000Y-150500000D03*
%TD*%
D13*
%TO.P,R1,1*%
%TO.N,Net-(D3-A)*%
X123000000Y-146080000D03*
%TO.P,R1,2*%
%TO.N,D3*%
X123000000Y-144500000D03*
%TD*%
%TO.P,R2,1*%
%TO.N,Net-(D2-A)*%
X130000000Y-144580000D03*
%TO.P,R2,2*%
%TO.N,D2*%
X130000000Y-143000000D03*
%TD*%
%TO.P,R4,1*%
%TO.N,Net-(D0-A)*%
X147000000Y-145790000D03*
%TO.P,R4,2*%
%TO.N,D0*%
X147000000Y-144210000D03*
%TD*%
D14*
%TO.P,S1,1A*%
%TO.N,Vdd*%
X144000000Y-95050000D03*
%TO.P,S1,1B*%
%TO.N,Net-(U2-S4A)*%
X144000000Y-103950000D03*
%TO.P,S1,2A*%
%TO.N,Vdd*%
X141460000Y-95050000D03*
%TO.P,S1,2B*%
%TO.N,En*%
X141460000Y-103950000D03*
%TO.P,S1,3A*%
%TO.N,Vdd*%
X138920000Y-95050000D03*
%TO.P,S1,3B*%
%TO.N,RST*%
X138920000Y-103950000D03*
%TD*%
D15*
%TO.P,U3,1,Q1*%
%TO.N,Net-(U2-S2B)*%
X117500000Y-122500000D03*
%TO.P,U3,2,~{Q1}*%
%TO.N,unconnected-(U3-~{Q1}-Pad2)*%
X117500000Y-123770000D03*
%TO.P,U3,3,CLK1*%
%TO.N,CLK*%
X117500000Y-125040000D03*
%TO.P,U3,4,RESET1*%
%TO.N,RST*%
X117500000Y-126310000D03*
%TO.P,U3,5,D1*%
%TO.N,D2*%
X117500000Y-127580000D03*
%TO.P,U3,6,SET1*%
%TO.N,GND*%
X117500000Y-128850000D03*
%TO.P,U3,7,VSS*%
X117500000Y-130120000D03*
%TO.P,U3,8,SET2*%
X122450000Y-130120000D03*
%TO.P,U3,9,D2*%
%TO.N,D3*%
X122450000Y-128850000D03*
%TO.P,U3,10,RESET2*%
%TO.N,RST*%
X122450000Y-127580000D03*
%TO.P,U3,11,CLK2*%
%TO.N,CLK*%
X122450000Y-126310000D03*
%TO.P,U3,12,~{Q2}*%
%TO.N,unconnected-(U3-~{Q2}-Pad12)*%
X122450000Y-125040000D03*
%TO.P,U3,13,Q2*%
%TO.N,Net-(U2-S3B)*%
X122450000Y-123770000D03*
%TO.P,U3,14,VDD*%
%TO.N,Vdd*%
X122450000Y-122500000D03*
%TD*%
D16*
%TO.P,J1,1,1*%
%TO.N,GND*%
X98000000Y-129810000D03*
D17*
%TO.P,J1,2,2*%
%TO.N,Vdd*%
X98000000Y-127270000D03*
%TO.P,J1,3,3*%
X98000000Y-124730000D03*
%TO.P,J1,4,4*%
%TO.N,GND*%
X98000000Y-122190000D03*
%TD*%
D10*
%TO.P,Dout1,1,K*%
%TO.N,GND*%
X174500000Y-150500000D03*
D11*
%TO.P,Dout1,2,A*%
%TO.N,Net-(Dout1-A)*%
X171960000Y-150500000D03*
%TD*%
D13*
%TO.P,R3,1*%
%TO.N,Net-(D1-A)*%
X138500000Y-145580000D03*
%TO.P,R3,2*%
%TO.N,D1*%
X138500000Y-144000000D03*
%TD*%
%TO.P,R5,1*%
%TO.N,Net-(Dout1-A)*%
X172000000Y-146080000D03*
%TO.P,R5,2*%
%TO.N,Dout*%
X172000000Y-144500000D03*
%TD*%
D10*
%TO.P,D3,1,K*%
%TO.N,GND*%
X125500000Y-150500000D03*
D11*
%TO.P,D3,2,A*%
%TO.N,Net-(D3-A)*%
X122960000Y-150500000D03*
%TD*%
D14*
%TO.P,S2,1A*%
%TO.N,Vdd*%
X154000000Y-95000000D03*
%TO.P,S2,1B*%
%TO.N,Net-(U2-S1A)*%
X154000000Y-103900000D03*
%TO.P,S2,2A*%
%TO.N,Vdd*%
X151460000Y-95000000D03*
%TO.P,S2,2B*%
%TO.N,Net-(U2-S2A)*%
X151460000Y-103900000D03*
%TO.P,S2,3A*%
%TO.N,Vdd*%
X148920000Y-95000000D03*
%TO.P,S2,3B*%
%TO.N,Net-(U2-S3A)*%
X148920000Y-103900000D03*
%TD*%
D18*
%TO.P,SW1,1*%
%TO.N,CLK*%
X121750000Y-102250000D03*
D19*
%TO.P,SW1,2*%
%TO.N,unconnected-(SW1-Pad2)*%
X115250000Y-102250000D03*
%TO.P,SW1,3*%
%TO.N,Vdd*%
X121750000Y-97750000D03*
%TO.P,SW1,4*%
%TO.N,unconnected-(SW1-Pad4)*%
X115250000Y-97750000D03*
%TD*%
D15*
%TO.P,U4,1,Q1*%
%TO.N,Dout*%
X171050000Y-122500000D03*
%TO.P,U4,2,~{Q1}*%
%TO.N,unconnected-(U4-~{Q1}-Pad2)*%
X171050000Y-123770000D03*
%TO.P,U4,3,CLK1*%
%TO.N,CLK*%
X171050000Y-125040000D03*
%TO.P,U4,4,RESET1*%
%TO.N,RST*%
X171050000Y-126310000D03*
%TO.P,U4,5,D1*%
%TO.N,D0*%
X171050000Y-127580000D03*
%TO.P,U4,6,SET1*%
%TO.N,GND*%
X171050000Y-128850000D03*
%TO.P,U4,7,VSS*%
X171050000Y-130120000D03*
%TO.P,U4,8,SET2*%
X176000000Y-130120000D03*
%TO.P,U4,9,D2*%
%TO.N,D1*%
X176000000Y-128850000D03*
%TO.P,U4,10,RESET2*%
%TO.N,RST*%
X176000000Y-127580000D03*
%TO.P,U4,11,CLK2*%
%TO.N,CLK*%
X176000000Y-126310000D03*
%TO.P,U4,12,~{Q2}*%
%TO.N,unconnected-(U4-~{Q2}-Pad12)*%
X176000000Y-125040000D03*
%TO.P,U4,13,Q2*%
%TO.N,Net-(U2-S1B)*%
X176000000Y-123770000D03*
%TO.P,U4,14,VDD*%
%TO.N,Vdd*%
X176000000Y-122500000D03*
%TD*%
D10*
%TO.P,D1,1,K*%
%TO.N,GND*%
X140500000Y-150500000D03*
D11*
%TO.P,D1,2,A*%
%TO.N,Net-(D1-A)*%
X137960000Y-150500000D03*
%TD*%
D20*
%TO.N,D0*%
X140000000Y-120000000D03*
X167000000Y-129000000D03*
%TO.N,D1*%
X160000000Y-128500000D03*
X140000000Y-122500000D03*
%TO.N,D2*%
X146000000Y-124500000D03*
X117500000Y-127500000D03*
%TO.N,D3*%
X122500000Y-129000000D03*
X123000000Y-144500000D03*
X150500000Y-121000000D03*
%TO.N,Vdd*%
X189000000Y-122500000D03*
X176500000Y-122500000D03*
X122500000Y-122500000D03*
%TO.N,GND*%
X176000000Y-130000000D03*
X174500000Y-163000000D03*
X125500000Y-163000000D03*
X140500000Y-163000000D03*
X133000000Y-163000000D03*
X117500000Y-130000000D03*
X148000000Y-163000000D03*
X192000000Y-130000000D03*
X94500000Y-133500000D03*
X143000000Y-124500000D03*
%TO.N,Net-(U2-S4A)*%
X151000000Y-119000000D03*
X144000000Y-104000000D03*
%TO.N,Net-(U2-S2A)*%
X138500000Y-120500000D03*
X151500000Y-104000000D03*
%TO.N,Net-(U2-S3A)*%
X149000000Y-104000000D03*
X146000000Y-121500000D03*
%TD*%
D21*
%TO.N,D0*%
X167000000Y-128960000D02*
X167000000Y-129000000D01*
X143020000Y-120180000D02*
X140180000Y-120180000D01*
X152980000Y-142980000D02*
X151750000Y-144210000D01*
X140180000Y-120180000D02*
X140000000Y-120000000D01*
X167000000Y-129000000D02*
X166960000Y-129000000D01*
X166960000Y-129000000D02*
X152980000Y-142980000D01*
X151750000Y-144210000D02*
X147000000Y-144210000D01*
X171050000Y-127580000D02*
X168380000Y-127580000D01*
X168380000Y-127580000D02*
X167000000Y-128960000D01*
%TO.N,D1*%
X161480000Y-126980000D02*
X160000000Y-128460000D01*
X144460000Y-144000000D02*
X138500000Y-144000000D01*
X174350000Y-128850000D02*
X172480000Y-126980000D01*
X160000000Y-128460000D02*
X160000000Y-128500000D01*
X172480000Y-126980000D02*
X161480000Y-126980000D01*
X140400000Y-122100000D02*
X140000000Y-122500000D01*
X160000000Y-128500000D02*
X159960000Y-128500000D01*
X159960000Y-128500000D02*
X144980000Y-143480000D01*
X143020000Y-122100000D02*
X140400000Y-122100000D01*
X176000000Y-128850000D02*
X174350000Y-128850000D01*
X144980000Y-143480000D02*
X144460000Y-144000000D01*
%TO.N,D2*%
X122480000Y-142520000D02*
X122960000Y-143000000D01*
X116215000Y-136255000D02*
X122480000Y-142520000D01*
X117500000Y-127500000D02*
X117080000Y-127580000D01*
X117500000Y-127580000D02*
X117500000Y-127500000D01*
X147980000Y-122740000D02*
X146220000Y-124500000D01*
X116215000Y-128445000D02*
X116215000Y-136255000D01*
X117080000Y-127580000D02*
X116215000Y-128445000D01*
X146220000Y-124500000D02*
X146000000Y-124500000D01*
X117500000Y-127580000D02*
X118484999Y-127580000D01*
X122960000Y-143000000D02*
X130000000Y-143000000D01*
%TO.N,D3*%
X150320000Y-120820000D02*
X150500000Y-121000000D01*
X147980000Y-120820000D02*
X150320000Y-120820000D01*
%TO.N,Dout*%
X177140000Y-125640000D02*
X177285000Y-125785000D01*
X171800964Y-122500000D02*
X174940964Y-125640000D01*
X171050000Y-122500000D02*
X171800964Y-122500000D01*
X173785000Y-144500000D02*
X172000000Y-144500000D01*
X177285000Y-141000000D02*
X173785000Y-144500000D01*
X174940964Y-125640000D02*
X177140000Y-125640000D01*
X177285000Y-125785000D02*
X177285000Y-141000000D01*
%TO.N,CLK*%
X120810000Y-126310000D02*
X122450000Y-126310000D01*
X173040000Y-125040000D02*
X174310000Y-126310000D01*
X122450000Y-126310000D02*
X122850000Y-125910000D01*
X174310000Y-126310000D02*
X176000000Y-126310000D01*
X119250000Y-102250000D02*
X121750000Y-102250000D01*
X114040000Y-125040000D02*
X111500000Y-122500000D01*
X171050000Y-125040000D02*
X173040000Y-125040000D01*
X111500000Y-110000000D02*
X119250000Y-102250000D01*
X117500000Y-125040000D02*
X114040000Y-125040000D01*
X119540000Y-125040000D02*
X120810000Y-126310000D01*
X117500000Y-125040000D02*
X119540000Y-125040000D01*
X122850000Y-125910000D02*
X169195001Y-125910000D01*
X111500000Y-122500000D02*
X111500000Y-110000000D01*
X170065001Y-125040000D02*
X171050000Y-125040000D01*
X169195001Y-125910000D02*
X170065001Y-125040000D01*
%TO.N,RST*%
X111100000Y-123100000D02*
X114310000Y-126310000D01*
X136171000Y-101201000D02*
X119299000Y-101201000D01*
X172810000Y-126310000D02*
X174080000Y-127580000D01*
X174080000Y-127580000D02*
X176000000Y-127580000D01*
X171050000Y-126310000D02*
X172810000Y-126310000D01*
X111100000Y-109400000D02*
X111100000Y-123100000D01*
X122450000Y-127580000D02*
X160314314Y-127580000D01*
X138920000Y-103950000D02*
X136171000Y-101201000D01*
X119310000Y-126310000D02*
X120580000Y-127580000D01*
X114310000Y-126310000D02*
X117500000Y-126310000D01*
X160314314Y-127580000D02*
X161584314Y-126310000D01*
X117500000Y-126310000D02*
X119310000Y-126310000D01*
X119299000Y-101201000D02*
X111100000Y-109400000D01*
X161584314Y-126310000D02*
X171050000Y-126310000D01*
X120580000Y-127580000D02*
X122450000Y-127580000D01*
%TO.N,En*%
X141460000Y-103950000D02*
X141460000Y-116700000D01*
X141460000Y-116700000D02*
X143020000Y-118260000D01*
%TO.N,Net-(D0-A)*%
X147000000Y-145790000D02*
X147000000Y-148394314D01*
X147000000Y-148394314D02*
X145177157Y-150217157D01*
%TO.N,Net-(D1-A)*%
X138500000Y-145580000D02*
X138500000Y-149394314D01*
X138500000Y-149394314D02*
X137677157Y-150217157D01*
%TO.N,Net-(D2-A)*%
X130000000Y-149474314D02*
X130742843Y-150217157D01*
X130000000Y-144580000D02*
X130000000Y-149474314D01*
%TO.N,Net-(D3-A)*%
X123000000Y-150460000D02*
X122960000Y-150500000D01*
X123000000Y-146080000D02*
X123000000Y-150460000D01*
%TO.N,Vdd*%
X99500000Y-156500000D02*
X99500000Y-128770000D01*
X189000000Y-122500000D02*
X189000000Y-155500000D01*
X189000000Y-96500000D02*
X189000000Y-122500000D01*
X189000000Y-155500000D02*
X184500000Y-160000000D01*
X154040000Y-93040000D02*
X154000000Y-93000000D01*
X121750000Y-97750000D02*
X121750000Y-93250000D01*
X138790000Y-95050000D02*
X154040000Y-95050000D01*
X99102500Y-123627500D02*
X99102500Y-94897500D01*
X157000000Y-109240000D02*
X157000000Y-95500000D01*
X101000000Y-93000000D02*
X122000000Y-93000000D01*
X154000000Y-93000000D02*
X185500000Y-93000000D01*
X103000000Y-160000000D02*
X99500000Y-156500000D01*
X184500000Y-160000000D02*
X103000000Y-160000000D01*
X147980000Y-118260000D02*
X157000000Y-109240000D01*
X156500000Y-95000000D02*
X154000000Y-95000000D01*
X99500000Y-128770000D02*
X98000000Y-127270000D01*
X99102500Y-94897500D02*
X101000000Y-93000000D01*
X122000000Y-93000000D02*
X154000000Y-93000000D01*
X157000000Y-95500000D02*
X156500000Y-95000000D01*
X121750000Y-93250000D02*
X122000000Y-93000000D01*
X98000000Y-124730000D02*
X99102500Y-123627500D01*
X154040000Y-95050000D02*
X154040000Y-93040000D01*
X185500000Y-93000000D02*
X189000000Y-96500000D01*
%TO.N,GND*%
X148000000Y-163000000D02*
X140500000Y-163000000D01*
X143977824Y-122740000D02*
X144300000Y-122417824D01*
X94000000Y-120500000D02*
X95500000Y-122000000D01*
X94500000Y-131000000D02*
X95690000Y-129810000D01*
X117500000Y-128850000D02*
X117500000Y-130000000D01*
X94000000Y-92500000D02*
X94000000Y-120500000D01*
X140500000Y-163000000D02*
X100000000Y-163000000D01*
X95500000Y-122000000D02*
X95500000Y-122190000D01*
X147980000Y-120180000D02*
X147000001Y-120180000D01*
X95500000Y-122190000D02*
X98000000Y-122190000D01*
X171050000Y-128850000D02*
X171050000Y-130120000D01*
X144300000Y-122417824D02*
X144300000Y-120700000D01*
X143020000Y-122740000D02*
X143020000Y-124480000D01*
X147000001Y-120180000D02*
X146700000Y-119879999D01*
X144820000Y-120180000D02*
X147980000Y-120180000D01*
X94500000Y-133500000D02*
X94500000Y-131000000D01*
X95690000Y-129810000D02*
X98000000Y-129810000D01*
X192000000Y-157000000D02*
X192000000Y-92500000D01*
X100000000Y-163000000D02*
X94500000Y-157500000D01*
X117500000Y-130000000D02*
X117500000Y-130120000D01*
X147000001Y-118900000D02*
X147980000Y-118900000D01*
X146700000Y-119200001D02*
X147000001Y-118900000D01*
X94500000Y-157500000D02*
X94500000Y-133500000D01*
X143020000Y-124480000D02*
X143000000Y-124500000D01*
X171050000Y-130120000D02*
X176000000Y-130000000D01*
X192000000Y-92500000D02*
X189500000Y-90000000D01*
X146700000Y-119879999D02*
X146700000Y-119200001D01*
X189500000Y-90000000D02*
X96500000Y-90000000D01*
X176000000Y-130000000D02*
X176000000Y-130120000D01*
X148000000Y-163000000D02*
X186000000Y-163000000D01*
X144300000Y-120700000D02*
X144820000Y-120180000D01*
X186000000Y-163000000D02*
X192000000Y-157000000D01*
X96500000Y-90000000D02*
X94000000Y-92500000D01*
X143020000Y-122740000D02*
X143977824Y-122740000D01*
X122450000Y-130120000D02*
X117500000Y-130120000D01*
%TO.N,Net-(U2-S4A)*%
X150460000Y-119540000D02*
X151000000Y-119000000D01*
X147980000Y-119540000D02*
X150460000Y-119540000D01*
%TO.N,Net-(U2-S2A)*%
X143020000Y-120820000D02*
X138820000Y-120820000D01*
X138820000Y-120820000D02*
X138500000Y-120500000D01*
%TO.N,Net-(U2-S1A)*%
X143020000Y-118900000D02*
X143999999Y-118900000D01*
X154000000Y-108899999D02*
X154000000Y-103900000D01*
X143999999Y-118900000D02*
X154000000Y-108899999D01*
%TO.N,Net-(U2-S3A)*%
X147980000Y-121460000D02*
X146040000Y-121460000D01*
X146040000Y-121460000D02*
X146000000Y-121500000D01*
%TO.N,Net-(U2-S1B)*%
X118559036Y-123100000D02*
X116440964Y-123100000D01*
X123509036Y-124370000D02*
X119829036Y-124370000D01*
X146848529Y-125500000D02*
X124639036Y-125500000D01*
X176000000Y-123770000D02*
X176984999Y-123770000D01*
X141792176Y-119540000D02*
X143020000Y-119540000D01*
X116215000Y-122125964D02*
X118940964Y-119400000D01*
X116215000Y-122874036D02*
X116215000Y-122125964D01*
X141652176Y-119400000D02*
X141792176Y-119540000D01*
X118940964Y-119400000D02*
X141652176Y-119400000D01*
X173910507Y-118751471D02*
X153597058Y-118751471D01*
X124639036Y-125500000D02*
X123509036Y-124370000D01*
X119829036Y-124370000D02*
X118559036Y-123100000D01*
X116440964Y-123100000D02*
X116215000Y-122874036D01*
X177285000Y-123469999D02*
X177285000Y-122125964D01*
X176984999Y-123770000D02*
X177285000Y-123469999D01*
X153597058Y-118751471D02*
X146848529Y-125500000D01*
X177285000Y-122125964D02*
X173910507Y-118751471D01*
%TO.N,Net-(U2-S2B)*%
X119500000Y-121000000D02*
X119960000Y-121460000D01*
X117500000Y-122500000D02*
X119000000Y-121000000D01*
X119960000Y-121460000D02*
X143020000Y-121460000D01*
X119000000Y-121000000D02*
X119500000Y-121000000D01*
%TO.N,Net-(U2-S3B)*%
X143900000Y-125100000D02*
X146900000Y-122100000D01*
X122450000Y-123770000D02*
X141421471Y-123770000D01*
X141421471Y-123770000D02*
X142751471Y-125100000D01*
X142751471Y-125100000D02*
X143900000Y-125100000D01*
X146900000Y-122100000D02*
X147980000Y-122100000D01*
%TO.N,Net-(Dout1-A)*%
X172000000Y-146080000D02*
X172000000Y-150460000D01*
X172000000Y-150460000D02*
X171960000Y-150500000D01*
%TD*%
M02*
