%TF.GenerationSoftware,KiCad,Pcbnew,8.0.1*%
%TF.CreationDate,2024-07-08T16:56:34+05:30*%
%TF.ProjectId,FA,46412e6b-6963-4616-945f-706362585858,rev?*%
%TF.SameCoordinates,Original*%
%TF.FileFunction,Copper,L2,Bot*%
%TF.FilePolarity,Positive*%
%FSLAX46Y46*%
G04 Gerber Fmt 4.6, Leading zero omitted, Abs format (unit mm)*
G04 Created by KiCad (PCBNEW 8.0.1) date 2024-07-08 16:56:34*
%MOMM*%
%LPD*%
G01*
G04 APERTURE LIST*
%TA.AperFunction,ComponentPad*%
%ADD10R,1.308000X1.308000*%
%TD*%
%TA.AperFunction,ComponentPad*%
%ADD11C,1.308000*%
%TD*%
%TA.AperFunction,ComponentPad*%
%ADD12R,1.605000X1.605000*%
%TD*%
%TA.AperFunction,ComponentPad*%
%ADD13C,1.605000*%
%TD*%
%TA.AperFunction,ComponentPad*%
%ADD14R,1.676400X1.676400*%
%TD*%
%TA.AperFunction,ComponentPad*%
%ADD15C,1.676400*%
%TD*%
%TA.AperFunction,ComponentPad*%
%ADD16C,1.130000*%
%TD*%
%TA.AperFunction,ComponentPad*%
%ADD17R,1.130000X1.130000*%
%TD*%
%TA.AperFunction,ComponentPad*%
%ADD18C,1.200000*%
%TD*%
%TA.AperFunction,ComponentPad*%
%ADD19C,1.240000*%
%TD*%
%TA.AperFunction,ComponentPad*%
%ADD20R,1.800000X1.800000*%
%TD*%
%TA.AperFunction,ComponentPad*%
%ADD21C,1.800000*%
%TD*%
G04 APERTURE END LIST*
D10*
%TO.P,S1,1A*%
%TO.N,+5V*%
X138960000Y-139810000D03*
D11*
%TO.P,S1,1B*%
%TO.N,/Cin*%
X138960000Y-132190000D03*
%TO.P,S1,2A*%
%TO.N,+5V*%
X141500000Y-139810000D03*
%TO.P,S1,2B*%
%TO.N,/B*%
X141500000Y-132190000D03*
%TO.P,S1,3B*%
%TO.N,/A*%
X144040000Y-132190000D03*
%TO.P,S1,3A*%
%TO.N,+5V*%
X144040000Y-139810000D03*
%TD*%
D12*
%TO.P,J2,1,1*%
%TO.N,/Cin*%
X129500000Y-131690000D03*
D13*
%TO.P,J2,2,2*%
%TO.N,GND*%
X129500000Y-134230000D03*
%TO.P,J2,3,3*%
%TO.N,/Cin*%
X129500000Y-136770000D03*
%TO.P,J2,4,4*%
%TO.N,+5V*%
X129500000Y-139310000D03*
%TD*%
D14*
%TO.P,U1,1,1A*%
%TO.N,/Cin*%
X136040000Y-113000000D03*
D15*
%TO.P,U1,2,1B*%
%TO.N,Net-(U1-1B)*%
X133500000Y-113000000D03*
%TO.P,U1,3,1Y*%
%TO.N,Net-(U1-1Y)*%
X130960000Y-113000000D03*
%TO.P,U1,4,2A*%
%TO.N,/B*%
X128420000Y-113000000D03*
%TO.P,U1,5,2B*%
%TO.N,/A*%
X125880000Y-113000000D03*
%TO.P,U1,6,2Y*%
%TO.N,Net-(U1-2Y)*%
X123340000Y-113000000D03*
%TO.P,U1,7,GND*%
%TO.N,GND*%
X120800000Y-113000000D03*
%TO.P,U1,8,3Y*%
%TO.N,unconnected-(U1-3Y-Pad8)*%
X120800000Y-120620000D03*
%TO.P,U1,9,3A*%
%TO.N,unconnected-(U1-3A-Pad9)*%
X123340000Y-120620000D03*
%TO.P,U1,10,3B*%
%TO.N,unconnected-(U1-3B-Pad10)*%
X125880000Y-120620000D03*
%TO.P,U1,11,4Y*%
%TO.N,unconnected-(U1-4Y-Pad11)*%
X128420000Y-120620000D03*
%TO.P,U1,12,4A*%
%TO.N,unconnected-(U1-4A-Pad12)*%
X130960000Y-120620000D03*
%TO.P,U1,13,4B*%
%TO.N,unconnected-(U1-4B-Pad13)*%
X133500000Y-120620000D03*
%TO.P,U1,14,VCC*%
%TO.N,+5V*%
X136040000Y-120620000D03*
%TD*%
D16*
%TO.P,U4,16,1B*%
%TO.N,Net-(U1-1B)*%
X165740000Y-117000000D03*
%TO.P,U4,15,2A*%
%TO.N,/A*%
X163200000Y-117000000D03*
%TO.P,U4,14,2B*%
%TO.N,/B*%
X160660000Y-117000000D03*
%TO.P,U4,13,VCC*%
%TO.N,+5V*%
X158120000Y-117000000D03*
%TO.P,U4,12,VCC*%
X155580000Y-117000000D03*
%TO.P,U4,11,3A*%
%TO.N,unconnected-(U4-3A-Pad11)*%
X153040000Y-117000000D03*
%TO.P,U4,10,3B*%
%TO.N,unconnected-(U4-3B-Pad10)*%
X150500000Y-117000000D03*
%TO.P,U4,9,4A*%
%TO.N,unconnected-(U4-4A-Pad9)*%
X147960000Y-117000000D03*
%TO.P,U4,8,4B*%
%TO.N,unconnected-(U4-4B-Pad8)*%
X147960000Y-109060000D03*
%TO.P,U4,7,4Y*%
%TO.N,unconnected-(U4-4Y-Pad7)*%
X150500000Y-109060000D03*
%TO.P,U4,6,3Y*%
%TO.N,unconnected-(U4-3Y-Pad6)*%
X153040000Y-109060000D03*
%TO.P,U4,5,GND*%
%TO.N,GND*%
X155580000Y-109060000D03*
%TO.P,U4,4,GND*%
X158120000Y-109060000D03*
%TO.P,U4,3,2Y*%
%TO.N,Net-(U1-1B)*%
X160660000Y-109060000D03*
%TO.P,U4,2,1Y*%
%TO.N,Net-(U4-1Y)*%
X163200000Y-109060000D03*
D17*
%TO.P,U4,1,1A*%
%TO.N,/Cin*%
X165740000Y-109060000D03*
%TD*%
D14*
%TO.P,U3,1,1A*%
%TO.N,Net-(U1-2Y)*%
X118800000Y-101500000D03*
D15*
%TO.P,U3,2,1B*%
%TO.N,Net-(U1-1Y)*%
X121340000Y-101500000D03*
%TO.P,U3,3,1Y*%
%TO.N,Net-(U3-1Y)*%
X123880000Y-101500000D03*
%TO.P,U3,4,2Y*%
%TO.N,unconnected-(U3-2Y-Pad4)*%
X126420000Y-101500000D03*
%TO.P,U3,5,2A*%
%TO.N,unconnected-(U3-2A-Pad5)*%
X128960000Y-101500000D03*
%TO.P,U3,6,2B*%
%TO.N,unconnected-(U3-2B-Pad6)*%
X131500000Y-101500000D03*
%TO.P,U3,7,VSS*%
%TO.N,GND*%
X134040000Y-101500000D03*
%TO.P,U3,8,3A*%
%TO.N,unconnected-(U3-3A-Pad8)*%
X134040000Y-93880000D03*
%TO.P,U3,9,3B*%
%TO.N,unconnected-(U3-3B-Pad9)*%
X131500000Y-93880000D03*
%TO.P,U3,10,3Y*%
%TO.N,unconnected-(U3-3Y-Pad10)*%
X128960000Y-93880000D03*
%TO.P,U3,11,4Y*%
%TO.N,unconnected-(U3-4Y-Pad11)*%
X126420000Y-93880000D03*
%TO.P,U3,12,4A*%
%TO.N,unconnected-(U3-4A-Pad12)*%
X123880000Y-93880000D03*
%TO.P,U3,13,4B*%
%TO.N,unconnected-(U3-4B-Pad13)*%
X121340000Y-93880000D03*
%TO.P,U3,14,VDD*%
%TO.N,+5V*%
X118800000Y-93880000D03*
%TD*%
D10*
%TO.P,S2,1A*%
%TO.N,unconnected-(S2-Pad1A)*%
X148460000Y-139810000D03*
D11*
%TO.P,S2,1B*%
%TO.N,unconnected-(S2-Pad1B)*%
X148460000Y-132190000D03*
%TO.P,S2,2A*%
%TO.N,unconnected-(S2-Pad2A)*%
X151000000Y-139810000D03*
%TO.P,S2,2B*%
%TO.N,unconnected-(S2-Pad2B)*%
X151000000Y-132190000D03*
%TO.P,S2,3B*%
%TO.N,unconnected-(S2-Pad3B)*%
X153540000Y-132190000D03*
%TO.P,S2,3A*%
%TO.N,unconnected-(S2-Pad3A)*%
X153540000Y-139810000D03*
%TD*%
D18*
%TO.P,R2,1*%
%TO.N,Net-(U4-1Y)*%
X165500000Y-94500000D03*
%TO.P,R2,2*%
%TO.N,Net-(D1-A)*%
X165500000Y-83500000D03*
%TD*%
%TO.P,R1,1*%
%TO.N,Net-(U3-1Y)*%
X143500000Y-97500000D03*
%TO.P,R1,2*%
%TO.N,Net-(D2-A)*%
X143500000Y-86500000D03*
%TD*%
D19*
%TO.P,J3,01,01*%
%TO.N,Net-(D2-A)*%
X127000000Y-79000000D03*
%TD*%
D12*
%TO.P,J1,1,1*%
%TO.N,GND*%
X98500000Y-103960000D03*
D13*
%TO.P,J1,2,2*%
%TO.N,+5V*%
X98500000Y-106500000D03*
%TO.P,J1,3,3*%
X98500000Y-109040000D03*
%TO.P,J1,4,4*%
%TO.N,GND*%
X98500000Y-111580000D03*
%TD*%
D20*
%TO.P,D2,1,K*%
%TO.N,GND*%
X137225000Y-77500000D03*
D21*
%TO.P,D2,2,A*%
%TO.N,Net-(D2-A)*%
X139765000Y-77500000D03*
%TD*%
D20*
%TO.P,D1,1,K*%
%TO.N,GND*%
X148960000Y-77500000D03*
D21*
%TO.P,D1,2,A*%
%TO.N,Net-(D1-A)*%
X151500000Y-77500000D03*
%TD*%
M02*
