%TF.GenerationSoftware,KiCad,Pcbnew,8.0.1*%
%TF.CreationDate,2024-07-08T16:56:34+05:30*%
%TF.ProjectId,FA,46412e6b-6963-4616-945f-706362585858,rev?*%
%TF.SameCoordinates,Original*%
%TF.FileFunction,Soldermask,Top*%
%TF.FilePolarity,Negative*%
%FSLAX46Y46*%
G04 Gerber Fmt 4.6, Leading zero omitted, Abs format (unit mm)*
G04 Created by KiCad (PCBNEW 8.0.1) date 2024-07-08 16:56:34*
%MOMM*%
%LPD*%
G01*
G04 APERTURE LIST*
G04 Aperture macros list*
%AMRoundRect*
0 Rectangle with rounded corners*
0 $1 Rounding radius*
0 $2 $3 $4 $5 $6 $7 $8 $9 X,Y pos of 4 corners*
0 Add a 4 corners polygon primitive as box body*
4,1,4,$2,$3,$4,$5,$6,$7,$8,$9,$2,$3,0*
0 Add four circle primitives for the rounded corners*
1,1,$1+$1,$2,$3*
1,1,$1+$1,$4,$5*
1,1,$1+$1,$6,$7*
1,1,$1+$1,$8,$9*
0 Add four rect primitives between the rounded corners*
20,1,$1+$1,$2,$3,$4,$5,0*
20,1,$1+$1,$4,$5,$6,$7,0*
20,1,$1+$1,$6,$7,$8,$9,0*
20,1,$1+$1,$8,$9,$2,$3,0*%
G04 Aperture macros list end*
%ADD10RoundRect,0.102000X0.654000X-0.654000X0.654000X0.654000X-0.654000X0.654000X-0.654000X-0.654000X0*%
%ADD11C,1.512000*%
%ADD12RoundRect,0.102000X-0.802500X0.802500X-0.802500X-0.802500X0.802500X-0.802500X0.802500X0.802500X0*%
%ADD13C,1.809000*%
%ADD14RoundRect,0.102000X-0.838200X0.838200X-0.838200X-0.838200X0.838200X-0.838200X0.838200X0.838200X0*%
%ADD15C,1.880400*%
%ADD16C,1.334000*%
%ADD17RoundRect,0.102000X-0.565000X0.565000X-0.565000X-0.565000X0.565000X-0.565000X0.565000X0.565000X0*%
%ADD18RoundRect,0.102000X0.838200X-0.838200X0.838200X0.838200X-0.838200X0.838200X-0.838200X-0.838200X0*%
%ADD19C,1.404000*%
%ADD20C,1.444000*%
%ADD21R,1.800000X1.800000*%
%ADD22C,1.800000*%
G04 APERTURE END LIST*
D10*
%TO.C,S1*%
X138960000Y-139810000D03*
D11*
X138960000Y-132190000D03*
X141500000Y-139810000D03*
X141500000Y-132190000D03*
X144040000Y-132190000D03*
X144040000Y-139810000D03*
%TD*%
D12*
%TO.C,J2*%
X129500000Y-131690000D03*
D13*
X129500000Y-134230000D03*
X129500000Y-136770000D03*
X129500000Y-139310000D03*
%TD*%
D14*
%TO.C,U1*%
X136040000Y-113000000D03*
D15*
X133500000Y-113000000D03*
X130960000Y-113000000D03*
X128420000Y-113000000D03*
X125880000Y-113000000D03*
X123340000Y-113000000D03*
X120800000Y-113000000D03*
X120800000Y-120620000D03*
X123340000Y-120620000D03*
X125880000Y-120620000D03*
X128420000Y-120620000D03*
X130960000Y-120620000D03*
X133500000Y-120620000D03*
X136040000Y-120620000D03*
%TD*%
D16*
%TO.C,U4*%
X165740000Y-117000000D03*
X163200000Y-117000000D03*
X160660000Y-117000000D03*
X158120000Y-117000000D03*
X155580000Y-117000000D03*
X153040000Y-117000000D03*
X150500000Y-117000000D03*
X147960000Y-117000000D03*
X147960000Y-109060000D03*
X150500000Y-109060000D03*
X153040000Y-109060000D03*
X155580000Y-109060000D03*
X158120000Y-109060000D03*
X160660000Y-109060000D03*
X163200000Y-109060000D03*
D17*
X165740000Y-109060000D03*
%TD*%
D18*
%TO.C,U3*%
X118800000Y-101500000D03*
D15*
X121340000Y-101500000D03*
X123880000Y-101500000D03*
X126420000Y-101500000D03*
X128960000Y-101500000D03*
X131500000Y-101500000D03*
X134040000Y-101500000D03*
X134040000Y-93880000D03*
X131500000Y-93880000D03*
X128960000Y-93880000D03*
X126420000Y-93880000D03*
X123880000Y-93880000D03*
X121340000Y-93880000D03*
X118800000Y-93880000D03*
%TD*%
D10*
%TO.C,S2*%
X148460000Y-139810000D03*
D11*
X148460000Y-132190000D03*
X151000000Y-139810000D03*
X151000000Y-132190000D03*
X153540000Y-132190000D03*
X153540000Y-139810000D03*
%TD*%
D19*
%TO.C,R2*%
X165500000Y-94500000D03*
X165500000Y-83500000D03*
%TD*%
%TO.C,R1*%
X143500000Y-97500000D03*
X143500000Y-86500000D03*
%TD*%
D20*
%TO.C,J3*%
X127000000Y-79000000D03*
%TD*%
D12*
%TO.C,J1*%
X98500000Y-103960000D03*
D13*
X98500000Y-106500000D03*
X98500000Y-109040000D03*
X98500000Y-111580000D03*
%TD*%
D21*
%TO.C,D2*%
X137225000Y-77500000D03*
D22*
X139765000Y-77500000D03*
%TD*%
D21*
%TO.C,D1*%
X148960000Y-77500000D03*
D22*
X151500000Y-77500000D03*
%TD*%
M02*
