%TF.GenerationSoftware,KiCad,Pcbnew,8.0.1*%
%TF.CreationDate,2024-07-08T16:56:34+05:30*%
%TF.ProjectId,FA,46412e6b-6963-4616-945f-706362585858,rev?*%
%TF.SameCoordinates,Original*%
%TF.FileFunction,Copper,L1,Top*%
%TF.FilePolarity,Positive*%
%FSLAX46Y46*%
G04 Gerber Fmt 4.6, Leading zero omitted, Abs format (unit mm)*
G04 Created by KiCad (PCBNEW 8.0.1) date 2024-07-08 16:56:34*
%MOMM*%
%LPD*%
G01*
G04 APERTURE LIST*
%TA.AperFunction,ComponentPad*%
%ADD10R,1.308000X1.308000*%
%TD*%
%TA.AperFunction,ComponentPad*%
%ADD11C,1.308000*%
%TD*%
%TA.AperFunction,ComponentPad*%
%ADD12R,1.605000X1.605000*%
%TD*%
%TA.AperFunction,ComponentPad*%
%ADD13C,1.605000*%
%TD*%
%TA.AperFunction,ComponentPad*%
%ADD14R,1.676400X1.676400*%
%TD*%
%TA.AperFunction,ComponentPad*%
%ADD15C,1.676400*%
%TD*%
%TA.AperFunction,ComponentPad*%
%ADD16C,1.130000*%
%TD*%
%TA.AperFunction,ComponentPad*%
%ADD17R,1.130000X1.130000*%
%TD*%
%TA.AperFunction,ComponentPad*%
%ADD18C,1.200000*%
%TD*%
%TA.AperFunction,ComponentPad*%
%ADD19C,1.240000*%
%TD*%
%TA.AperFunction,ComponentPad*%
%ADD20R,1.800000X1.800000*%
%TD*%
%TA.AperFunction,ComponentPad*%
%ADD21C,1.800000*%
%TD*%
%TA.AperFunction,Conductor*%
%ADD22C,0.200000*%
%TD*%
G04 APERTURE END LIST*
D10*
%TO.P,S1,1A*%
%TO.N,+5V*%
X138960000Y-139810000D03*
D11*
%TO.P,S1,1B*%
%TO.N,/Cin*%
X138960000Y-132190000D03*
%TO.P,S1,2A*%
%TO.N,+5V*%
X141500000Y-139810000D03*
%TO.P,S1,2B*%
%TO.N,/B*%
X141500000Y-132190000D03*
%TO.P,S1,3B*%
%TO.N,/A*%
X144040000Y-132190000D03*
%TO.P,S1,3A*%
%TO.N,+5V*%
X144040000Y-139810000D03*
%TD*%
D12*
%TO.P,J2,1,1*%
%TO.N,/Cin*%
X129500000Y-131690000D03*
D13*
%TO.P,J2,2,2*%
%TO.N,GND*%
X129500000Y-134230000D03*
%TO.P,J2,3,3*%
%TO.N,/Cin*%
X129500000Y-136770000D03*
%TO.P,J2,4,4*%
%TO.N,+5V*%
X129500000Y-139310000D03*
%TD*%
D14*
%TO.P,U1,1,1A*%
%TO.N,/Cin*%
X136040000Y-113000000D03*
D15*
%TO.P,U1,2,1B*%
%TO.N,Net-(U1-1B)*%
X133500000Y-113000000D03*
%TO.P,U1,3,1Y*%
%TO.N,Net-(U1-1Y)*%
X130960000Y-113000000D03*
%TO.P,U1,4,2A*%
%TO.N,/B*%
X128420000Y-113000000D03*
%TO.P,U1,5,2B*%
%TO.N,/A*%
X125880000Y-113000000D03*
%TO.P,U1,6,2Y*%
%TO.N,Net-(U1-2Y)*%
X123340000Y-113000000D03*
%TO.P,U1,7,GND*%
%TO.N,GND*%
X120800000Y-113000000D03*
%TO.P,U1,8,3Y*%
%TO.N,unconnected-(U1-3Y-Pad8)*%
X120800000Y-120620000D03*
%TO.P,U1,9,3A*%
%TO.N,unconnected-(U1-3A-Pad9)*%
X123340000Y-120620000D03*
%TO.P,U1,10,3B*%
%TO.N,unconnected-(U1-3B-Pad10)*%
X125880000Y-120620000D03*
%TO.P,U1,11,4Y*%
%TO.N,unconnected-(U1-4Y-Pad11)*%
X128420000Y-120620000D03*
%TO.P,U1,12,4A*%
%TO.N,unconnected-(U1-4A-Pad12)*%
X130960000Y-120620000D03*
%TO.P,U1,13,4B*%
%TO.N,unconnected-(U1-4B-Pad13)*%
X133500000Y-120620000D03*
%TO.P,U1,14,VCC*%
%TO.N,+5V*%
X136040000Y-120620000D03*
%TD*%
D16*
%TO.P,U4,16,1B*%
%TO.N,Net-(U1-1B)*%
X165740000Y-117000000D03*
%TO.P,U4,15,2A*%
%TO.N,/A*%
X163200000Y-117000000D03*
%TO.P,U4,14,2B*%
%TO.N,/B*%
X160660000Y-117000000D03*
%TO.P,U4,13,VCC*%
%TO.N,+5V*%
X158120000Y-117000000D03*
%TO.P,U4,12,VCC*%
X155580000Y-117000000D03*
%TO.P,U4,11,3A*%
%TO.N,unconnected-(U4-3A-Pad11)*%
X153040000Y-117000000D03*
%TO.P,U4,10,3B*%
%TO.N,unconnected-(U4-3B-Pad10)*%
X150500000Y-117000000D03*
%TO.P,U4,9,4A*%
%TO.N,unconnected-(U4-4A-Pad9)*%
X147960000Y-117000000D03*
%TO.P,U4,8,4B*%
%TO.N,unconnected-(U4-4B-Pad8)*%
X147960000Y-109060000D03*
%TO.P,U4,7,4Y*%
%TO.N,unconnected-(U4-4Y-Pad7)*%
X150500000Y-109060000D03*
%TO.P,U4,6,3Y*%
%TO.N,unconnected-(U4-3Y-Pad6)*%
X153040000Y-109060000D03*
%TO.P,U4,5,GND*%
%TO.N,GND*%
X155580000Y-109060000D03*
%TO.P,U4,4,GND*%
X158120000Y-109060000D03*
%TO.P,U4,3,2Y*%
%TO.N,Net-(U1-1B)*%
X160660000Y-109060000D03*
%TO.P,U4,2,1Y*%
%TO.N,Net-(U4-1Y)*%
X163200000Y-109060000D03*
D17*
%TO.P,U4,1,1A*%
%TO.N,/Cin*%
X165740000Y-109060000D03*
%TD*%
D14*
%TO.P,U3,1,1A*%
%TO.N,Net-(U1-2Y)*%
X118800000Y-101500000D03*
D15*
%TO.P,U3,2,1B*%
%TO.N,Net-(U1-1Y)*%
X121340000Y-101500000D03*
%TO.P,U3,3,1Y*%
%TO.N,Net-(U3-1Y)*%
X123880000Y-101500000D03*
%TO.P,U3,4,2Y*%
%TO.N,unconnected-(U3-2Y-Pad4)*%
X126420000Y-101500000D03*
%TO.P,U3,5,2A*%
%TO.N,unconnected-(U3-2A-Pad5)*%
X128960000Y-101500000D03*
%TO.P,U3,6,2B*%
%TO.N,unconnected-(U3-2B-Pad6)*%
X131500000Y-101500000D03*
%TO.P,U3,7,VSS*%
%TO.N,GND*%
X134040000Y-101500000D03*
%TO.P,U3,8,3A*%
%TO.N,unconnected-(U3-3A-Pad8)*%
X134040000Y-93880000D03*
%TO.P,U3,9,3B*%
%TO.N,unconnected-(U3-3B-Pad9)*%
X131500000Y-93880000D03*
%TO.P,U3,10,3Y*%
%TO.N,unconnected-(U3-3Y-Pad10)*%
X128960000Y-93880000D03*
%TO.P,U3,11,4Y*%
%TO.N,unconnected-(U3-4Y-Pad11)*%
X126420000Y-93880000D03*
%TO.P,U3,12,4A*%
%TO.N,unconnected-(U3-4A-Pad12)*%
X123880000Y-93880000D03*
%TO.P,U3,13,4B*%
%TO.N,unconnected-(U3-4B-Pad13)*%
X121340000Y-93880000D03*
%TO.P,U3,14,VDD*%
%TO.N,+5V*%
X118800000Y-93880000D03*
%TD*%
D10*
%TO.P,S2,1A*%
%TO.N,unconnected-(S2-Pad1A)*%
X148460000Y-139810000D03*
D11*
%TO.P,S2,1B*%
%TO.N,unconnected-(S2-Pad1B)*%
X148460000Y-132190000D03*
%TO.P,S2,2A*%
%TO.N,unconnected-(S2-Pad2A)*%
X151000000Y-139810000D03*
%TO.P,S2,2B*%
%TO.N,unconnected-(S2-Pad2B)*%
X151000000Y-132190000D03*
%TO.P,S2,3B*%
%TO.N,unconnected-(S2-Pad3B)*%
X153540000Y-132190000D03*
%TO.P,S2,3A*%
%TO.N,unconnected-(S2-Pad3A)*%
X153540000Y-139810000D03*
%TD*%
D18*
%TO.P,R2,1*%
%TO.N,Net-(U4-1Y)*%
X165500000Y-94500000D03*
%TO.P,R2,2*%
%TO.N,Net-(D1-A)*%
X165500000Y-83500000D03*
%TD*%
%TO.P,R1,1*%
%TO.N,Net-(U3-1Y)*%
X143500000Y-97500000D03*
%TO.P,R1,2*%
%TO.N,Net-(D2-A)*%
X143500000Y-86500000D03*
%TD*%
D19*
%TO.P,J3,01,01*%
%TO.N,Net-(D2-A)*%
X127000000Y-79000000D03*
%TD*%
D12*
%TO.P,J1,1,1*%
%TO.N,GND*%
X98500000Y-103960000D03*
D13*
%TO.P,J1,2,2*%
%TO.N,+5V*%
X98500000Y-106500000D03*
%TO.P,J1,3,3*%
X98500000Y-109040000D03*
%TO.P,J1,4,4*%
%TO.N,GND*%
X98500000Y-111580000D03*
%TD*%
D20*
%TO.P,D2,1,K*%
%TO.N,GND*%
X137225000Y-77500000D03*
D21*
%TO.P,D2,2,A*%
%TO.N,Net-(D2-A)*%
X139765000Y-77500000D03*
%TD*%
D20*
%TO.P,D1,1,K*%
%TO.N,GND*%
X148960000Y-77500000D03*
D21*
%TO.P,D1,2,A*%
%TO.N,Net-(D1-A)*%
X151500000Y-77500000D03*
%TD*%
D22*
%TO.N,+5V*%
X151960000Y-120620000D02*
X155580000Y-117000000D01*
X136040000Y-120620000D02*
X151960000Y-120620000D01*
%TO.N,/Cin*%
X134901800Y-128131800D02*
X138960000Y-132190000D01*
X134901800Y-116028200D02*
X134901800Y-128131800D01*
X136040000Y-114890000D02*
X134901800Y-116028200D01*
X158036705Y-113000000D02*
X136040000Y-113000000D01*
X163800000Y-111000000D02*
X160036705Y-111000000D01*
X165740000Y-109060000D02*
X163800000Y-111000000D01*
X160036705Y-111000000D02*
X158036705Y-113000000D01*
X134901800Y-114138200D02*
X136040000Y-113000000D01*
X130488542Y-114138200D02*
X134901800Y-114138200D01*
X129821800Y-112427486D02*
X129821800Y-113471458D01*
X129256114Y-111861800D02*
X129821800Y-112427486D01*
X125408542Y-111861800D02*
X129256114Y-111861800D01*
X124741800Y-114678200D02*
X124741800Y-112528542D01*
X127281800Y-117218200D02*
X124741800Y-114678200D01*
X127281800Y-129471800D02*
X127281800Y-117218200D01*
X129821800Y-113471458D02*
X130488542Y-114138200D01*
X129500000Y-131690000D02*
X127281800Y-129471800D01*
X124741800Y-112528542D02*
X125408542Y-111861800D01*
%TO.N,Net-(U1-1B)*%
X134638200Y-111861800D02*
X133500000Y-113000000D01*
X157858200Y-111861800D02*
X134638200Y-111861800D01*
X160660000Y-109060000D02*
X157858200Y-111861800D01*
%TO.N,+5V*%
X147870000Y-130900000D02*
X154400000Y-130900000D01*
X138960000Y-139810000D02*
X147870000Y-130900000D01*
X154400000Y-130900000D02*
X155500000Y-132000000D01*
X155500000Y-132000000D02*
X164500000Y-123000000D01*
X148644000Y-138856000D02*
X155500000Y-132000000D01*
%TO.N,/A*%
X137978314Y-133544000D02*
X142686000Y-133544000D01*
X129558200Y-116678200D02*
X129558200Y-125123886D01*
X125880000Y-113000000D02*
X129558200Y-116678200D01*
X129558200Y-125123886D02*
X137978314Y-133544000D01*
X142686000Y-133544000D02*
X144040000Y-132190000D01*
%TO.N,/B*%
X132361800Y-127361800D02*
X132361800Y-116941800D01*
X138144000Y-133144000D02*
X132361800Y-127361800D01*
X132361800Y-116941800D02*
X128420000Y-113000000D01*
%TO.N,/Cin*%
X136040000Y-113000000D02*
X136040000Y-114890000D01*
%TO.N,Net-(U1-1Y)*%
X121340000Y-103380000D02*
X130960000Y-113000000D01*
X121340000Y-101500000D02*
X121340000Y-103380000D01*
%TO.N,Net-(U1-2Y)*%
X118800000Y-108460000D02*
X123340000Y-113000000D01*
X118800000Y-101500000D02*
X118800000Y-108460000D01*
%TO.N,GND*%
X117834315Y-99600000D02*
X122641800Y-99600000D01*
X122641800Y-99600000D02*
X122741800Y-99500000D01*
X117261800Y-100172514D02*
X117834315Y-99600000D01*
X117261800Y-109461800D02*
X117261800Y-100172514D01*
X122741800Y-99500000D02*
X122741800Y-101971458D01*
X122741800Y-93241800D02*
X122741800Y-99500000D01*
X120800000Y-113000000D02*
X117261800Y-109461800D01*
X119500000Y-114300000D02*
X120800000Y-113000000D01*
X119500000Y-124230000D02*
X119500000Y-114300000D01*
X129500000Y-134230000D02*
X119500000Y-124230000D01*
%TO.N,+5V*%
X115920000Y-125730000D02*
X129500000Y-139310000D01*
X115920000Y-109040000D02*
X115920000Y-125730000D01*
%TO.N,GND*%
X125018200Y-101292142D02*
X125948542Y-100361800D01*
X125018200Y-101971458D02*
X125018200Y-101292142D01*
X124351458Y-102638200D02*
X125018200Y-101971458D01*
X123408542Y-102638200D02*
X124351458Y-102638200D01*
X132901800Y-100361800D02*
X134040000Y-101500000D01*
X122741800Y-101971458D02*
X123408542Y-102638200D01*
X122241800Y-92741800D02*
X122741800Y-93241800D01*
X125948542Y-100361800D02*
X132901800Y-100361800D01*
X109718200Y-92741800D02*
X122241800Y-92741800D01*
X98500000Y-103960000D02*
X109718200Y-92741800D01*
%TO.N,+5V*%
X115920000Y-96760000D02*
X115920000Y-109040000D01*
X118800000Y-93880000D02*
X115920000Y-96760000D01*
%TO.N,GND*%
X148960000Y-100560000D02*
X148020000Y-101500000D01*
X148960000Y-77500000D02*
X148960000Y-100560000D01*
%TO.N,/B*%
X140546000Y-133144000D02*
X138144000Y-133144000D01*
X141500000Y-132190000D02*
X140546000Y-133144000D01*
%TO.N,+5V*%
X129500000Y-139310000D02*
X138460000Y-139310000D01*
X138460000Y-139310000D02*
X138960000Y-139810000D01*
%TO.N,/Cin*%
X130602500Y-135667500D02*
X129500000Y-136770000D01*
X129500000Y-131690000D02*
X130602500Y-132792500D01*
X130602500Y-132792500D02*
X130602500Y-135667500D01*
%TO.N,+5V*%
X98500000Y-109040000D02*
X115920000Y-109040000D01*
X98500000Y-109040000D02*
X98500000Y-106500000D01*
%TO.N,GND*%
X97397500Y-105062500D02*
X98500000Y-103960000D01*
X98500000Y-111580000D02*
X97397500Y-110477500D01*
X97397500Y-110477500D02*
X97397500Y-105062500D01*
%TO.N,Net-(U3-1Y)*%
X127880000Y-97500000D02*
X123880000Y-101500000D01*
X143500000Y-97500000D02*
X127880000Y-97500000D01*
%TO.N,GND*%
X148020000Y-101500000D02*
X134040000Y-101500000D01*
X155580000Y-109060000D02*
X148020000Y-101500000D01*
X158120000Y-109060000D02*
X155580000Y-109060000D01*
%TO.N,Net-(U1-1B)*%
X167500000Y-115240000D02*
X165740000Y-117000000D01*
X167500000Y-109000000D02*
X167500000Y-115240000D01*
X166695000Y-108195000D02*
X167500000Y-109000000D01*
X164875000Y-108195000D02*
X166695000Y-108195000D01*
X164065000Y-109005000D02*
X164875000Y-108195000D01*
X164065000Y-109418295D02*
X164065000Y-109005000D01*
X163558295Y-109925000D02*
X164065000Y-109418295D01*
X161525000Y-109925000D02*
X163558295Y-109925000D01*
X160660000Y-109060000D02*
X161525000Y-109925000D01*
%TO.N,Net-(U4-1Y)*%
X165500000Y-106760000D02*
X165500000Y-94500000D01*
X163200000Y-109060000D02*
X165500000Y-106760000D01*
%TO.N,GND*%
X147760000Y-76300000D02*
X148960000Y-77500000D01*
X138425000Y-76300000D02*
X147760000Y-76300000D01*
X137225000Y-77500000D02*
X138425000Y-76300000D01*
%TO.N,Net-(D1-A)*%
X157500000Y-83500000D02*
X165500000Y-83500000D01*
X151500000Y-77500000D02*
X157500000Y-83500000D01*
%TO.N,Net-(D2-A)*%
X143500000Y-81235000D02*
X139765000Y-77500000D01*
X143500000Y-86500000D02*
X143500000Y-81235000D01*
X138265000Y-79000000D02*
X139765000Y-77500000D01*
X127000000Y-79000000D02*
X138265000Y-79000000D01*
%TO.N,/B*%
X153500000Y-129000000D02*
X160500000Y-122000000D01*
X160500000Y-121500000D02*
X160660000Y-121340000D01*
X160660000Y-121340000D02*
X160660000Y-117000000D01*
X141500000Y-132190000D02*
X144690000Y-129000000D01*
X144690000Y-129000000D02*
X153500000Y-129000000D01*
X160500000Y-122000000D02*
X160500000Y-121500000D01*
%TO.N,/A*%
X155000000Y-130500000D02*
X163200000Y-122300000D01*
X163200000Y-122300000D02*
X163200000Y-117000000D01*
X145730000Y-130500000D02*
X155000000Y-130500000D01*
X144040000Y-132190000D02*
X145730000Y-130500000D01*
%TO.N,+5V*%
X158120000Y-117000000D02*
X155580000Y-117000000D01*
X164500000Y-116500000D02*
X164000000Y-116000000D01*
X164500000Y-123000000D02*
X164500000Y-116500000D01*
X164000000Y-116000000D02*
X159120000Y-116000000D01*
X144994000Y-138856000D02*
X148644000Y-138856000D01*
X159120000Y-116000000D02*
X158120000Y-117000000D01*
X144040000Y-139810000D02*
X144994000Y-138856000D01*
X138960000Y-139810000D02*
X144040000Y-139810000D01*
%TD*%
%TA.AperFunction,Conductor*%
%TO.N,GND*%
G36*
X182015677Y-71019685D02*
G01*
X182036319Y-71036319D01*
X186963681Y-75963681D01*
X186997166Y-76025004D01*
X187000000Y-76051362D01*
X187000000Y-137948638D01*
X186980315Y-138015677D01*
X186963681Y-138036319D01*
X181036319Y-143963681D01*
X180974996Y-143997166D01*
X180948638Y-144000000D01*
X95051362Y-144000000D01*
X94984323Y-143980315D01*
X94963681Y-143963681D01*
X90536319Y-139536319D01*
X90502834Y-139474996D01*
X90500000Y-139448638D01*
X90500000Y-109040001D01*
X97192023Y-109040001D01*
X97211893Y-109267122D01*
X97211894Y-109267129D01*
X97270902Y-109487349D01*
X97270903Y-109487351D01*
X97270904Y-109487354D01*
X97366974Y-109693377D01*
X97367259Y-109693989D01*
X97367261Y-109693993D01*
X97498027Y-109880746D01*
X97498032Y-109880752D01*
X97659247Y-110041967D01*
X97659253Y-110041972D01*
X97846006Y-110172738D01*
X97846008Y-110172739D01*
X97846011Y-110172741D01*
X97892238Y-110194297D01*
X97899950Y-110197893D01*
X97952390Y-110244065D01*
X97971542Y-110311258D01*
X97951327Y-110378139D01*
X97899953Y-110422656D01*
X97846268Y-110447690D01*
X97772732Y-110499179D01*
X98342013Y-111068459D01*
X98293498Y-111081460D01*
X98171503Y-111151894D01*
X98071894Y-111251503D01*
X98001460Y-111373498D01*
X97988460Y-111422013D01*
X97419179Y-110852732D01*
X97367691Y-110926267D01*
X97271376Y-111132815D01*
X97271372Y-111132824D01*
X97212388Y-111352956D01*
X97212388Y-111352960D01*
X97192525Y-111579997D01*
X97192525Y-111580002D01*
X97212388Y-111807039D01*
X97212388Y-111807043D01*
X97271372Y-112027175D01*
X97271376Y-112027184D01*
X97367692Y-112233736D01*
X97367693Y-112233738D01*
X97419178Y-112307266D01*
X97419179Y-112307267D01*
X97988459Y-111737986D01*
X98001460Y-111786502D01*
X98071894Y-111908497D01*
X98171503Y-112008106D01*
X98293498Y-112078540D01*
X98342012Y-112091539D01*
X97772731Y-112660820D01*
X97846266Y-112712308D01*
X98052815Y-112808623D01*
X98052824Y-112808627D01*
X98272958Y-112867611D01*
X98499998Y-112887475D01*
X98500002Y-112887475D01*
X98727039Y-112867611D01*
X98727043Y-112867611D01*
X98947175Y-112808627D01*
X98947184Y-112808623D01*
X99153737Y-112712307D01*
X99227267Y-112660820D01*
X98657987Y-112091539D01*
X98706502Y-112078540D01*
X98828497Y-112008106D01*
X98928106Y-111908497D01*
X98998540Y-111786502D01*
X99011539Y-111737986D01*
X99580820Y-112307267D01*
X99632307Y-112233737D01*
X99728623Y-112027184D01*
X99728627Y-112027175D01*
X99787611Y-111807043D01*
X99787611Y-111807039D01*
X99807475Y-111580002D01*
X99807475Y-111579997D01*
X99787611Y-111352960D01*
X99787611Y-111352956D01*
X99728627Y-111132824D01*
X99728623Y-111132815D01*
X99632307Y-110926263D01*
X99632305Y-110926259D01*
X99580820Y-110852732D01*
X99011539Y-111422012D01*
X98998540Y-111373498D01*
X98928106Y-111251503D01*
X98828497Y-111151894D01*
X98706502Y-111081460D01*
X98657986Y-111068460D01*
X99227267Y-110499179D01*
X99227266Y-110499178D01*
X99153738Y-110447693D01*
X99153736Y-110447692D01*
X99100048Y-110422657D01*
X99047609Y-110376484D01*
X99028457Y-110309291D01*
X99048673Y-110242410D01*
X99100047Y-110197894D01*
X99153989Y-110172741D01*
X99340751Y-110041969D01*
X99501969Y-109880751D01*
X99632741Y-109693989D01*
X99632742Y-109693986D01*
X99633169Y-109693377D01*
X99687746Y-109649752D01*
X99734744Y-109640500D01*
X115195500Y-109640500D01*
X115262539Y-109660185D01*
X115308294Y-109712989D01*
X115319500Y-109764500D01*
X115319500Y-125643330D01*
X115319499Y-125643348D01*
X115319499Y-125809054D01*
X115319498Y-125809054D01*
X115360423Y-125961785D01*
X115389358Y-126011900D01*
X115389359Y-126011904D01*
X115389360Y-126011904D01*
X115439479Y-126098714D01*
X115439481Y-126098717D01*
X115558349Y-126217585D01*
X115558355Y-126217590D01*
X128206017Y-138865252D01*
X128239502Y-138926575D01*
X128238111Y-138985026D01*
X128211894Y-139082869D01*
X128211894Y-139082873D01*
X128192023Y-139309998D01*
X128192023Y-139310001D01*
X128211893Y-139537122D01*
X128211894Y-139537129D01*
X128270902Y-139757349D01*
X128270903Y-139757351D01*
X128270904Y-139757354D01*
X128325770Y-139875015D01*
X128367259Y-139963989D01*
X128367261Y-139963993D01*
X128498027Y-140150746D01*
X128498032Y-140150752D01*
X128659247Y-140311967D01*
X128659253Y-140311972D01*
X128846006Y-140442738D01*
X128846008Y-140442739D01*
X128846011Y-140442741D01*
X129052646Y-140539096D01*
X129272872Y-140598106D01*
X129435106Y-140612299D01*
X129499998Y-140617977D01*
X129500000Y-140617977D01*
X129500002Y-140617977D01*
X129556782Y-140613009D01*
X129727128Y-140598106D01*
X129947354Y-140539096D01*
X130153989Y-140442741D01*
X130340751Y-140311969D01*
X130501969Y-140150751D01*
X130632741Y-139963989D01*
X130632742Y-139963986D01*
X130633169Y-139963377D01*
X130687746Y-139919752D01*
X130734744Y-139910500D01*
X137681501Y-139910500D01*
X137748540Y-139930185D01*
X137794295Y-139982989D01*
X137805501Y-140034500D01*
X137805501Y-140511876D01*
X137811908Y-140571483D01*
X137862202Y-140706328D01*
X137862206Y-140706335D01*
X137948452Y-140821544D01*
X137948455Y-140821547D01*
X138063664Y-140907793D01*
X138063671Y-140907797D01*
X138198517Y-140958091D01*
X138198516Y-140958091D01*
X138205444Y-140958835D01*
X138258127Y-140964500D01*
X139661872Y-140964499D01*
X139721483Y-140958091D01*
X139856331Y-140907796D01*
X139971546Y-140821546D01*
X140057796Y-140706331D01*
X140108091Y-140571483D01*
X140113492Y-140521241D01*
X140140229Y-140456694D01*
X140197621Y-140416846D01*
X140236781Y-140410500D01*
X140445021Y-140410500D01*
X140512060Y-140430185D01*
X140543974Y-140459772D01*
X140643159Y-140591114D01*
X140801278Y-140735258D01*
X140801283Y-140735261D01*
X140801286Y-140735263D01*
X140983186Y-140847891D01*
X140983187Y-140847891D01*
X140983190Y-140847893D01*
X141182703Y-140925185D01*
X141393020Y-140964500D01*
X141393022Y-140964500D01*
X141606978Y-140964500D01*
X141606980Y-140964500D01*
X141817297Y-140925185D01*
X142016810Y-140847893D01*
X142198722Y-140735258D01*
X142356841Y-140591114D01*
X142456025Y-140459772D01*
X142512134Y-140418137D01*
X142554979Y-140410500D01*
X142985021Y-140410500D01*
X143052060Y-140430185D01*
X143083974Y-140459772D01*
X143183159Y-140591114D01*
X143341278Y-140735258D01*
X143341283Y-140735261D01*
X143341286Y-140735263D01*
X143523186Y-140847891D01*
X143523187Y-140847891D01*
X143523190Y-140847893D01*
X143722703Y-140925185D01*
X143933020Y-140964500D01*
X143933022Y-140964500D01*
X144146978Y-140964500D01*
X144146980Y-140964500D01*
X144357297Y-140925185D01*
X144556810Y-140847893D01*
X144738722Y-140735258D01*
X144896841Y-140591114D01*
X145025781Y-140420370D01*
X145121151Y-140228840D01*
X145121151Y-140228837D01*
X145121153Y-140228835D01*
X145173081Y-140046325D01*
X145179704Y-140023048D01*
X145199446Y-139810000D01*
X145193421Y-139744984D01*
X145179240Y-139591941D01*
X145192655Y-139523371D01*
X145241012Y-139472940D01*
X145302711Y-139456500D01*
X147181500Y-139456500D01*
X147248539Y-139476185D01*
X147294294Y-139528989D01*
X147305500Y-139580500D01*
X147305500Y-140511870D01*
X147305501Y-140511876D01*
X147311908Y-140571483D01*
X147362202Y-140706328D01*
X147362206Y-140706335D01*
X147448452Y-140821544D01*
X147448455Y-140821547D01*
X147563664Y-140907793D01*
X147563671Y-140907797D01*
X147698517Y-140958091D01*
X147698516Y-140958091D01*
X147705444Y-140958835D01*
X147758127Y-140964500D01*
X149161872Y-140964499D01*
X149221483Y-140958091D01*
X149356331Y-140907796D01*
X149471546Y-140821546D01*
X149557796Y-140706331D01*
X149608091Y-140571483D01*
X149614500Y-140511873D01*
X149614499Y-140046322D01*
X149634183Y-139979286D01*
X149686987Y-139933531D01*
X149756146Y-139923587D01*
X149819702Y-139952612D01*
X149857476Y-140011390D01*
X149860134Y-140022480D01*
X149918846Y-140228835D01*
X149918849Y-140228841D01*
X150009304Y-140410500D01*
X150014219Y-140420370D01*
X150143159Y-140591114D01*
X150301278Y-140735258D01*
X150301283Y-140735261D01*
X150301286Y-140735263D01*
X150483186Y-140847891D01*
X150483187Y-140847891D01*
X150483190Y-140847893D01*
X150682703Y-140925185D01*
X150893020Y-140964500D01*
X150893022Y-140964500D01*
X151106978Y-140964500D01*
X151106980Y-140964500D01*
X151317297Y-140925185D01*
X151516810Y-140847893D01*
X151698722Y-140735258D01*
X151856841Y-140591114D01*
X151985781Y-140420370D01*
X152081151Y-140228840D01*
X152081151Y-140228837D01*
X152081153Y-140228835D01*
X152133081Y-140046325D01*
X152139704Y-140023048D01*
X152146529Y-139949394D01*
X152172315Y-139884457D01*
X152229116Y-139843770D01*
X152298897Y-139840250D01*
X152359503Y-139875015D01*
X152391693Y-139937028D01*
X152393471Y-139949395D01*
X152400295Y-140023047D01*
X152400296Y-140023050D01*
X152458846Y-140228835D01*
X152458849Y-140228841D01*
X152549304Y-140410500D01*
X152554219Y-140420370D01*
X152683159Y-140591114D01*
X152841278Y-140735258D01*
X152841283Y-140735261D01*
X152841286Y-140735263D01*
X153023186Y-140847891D01*
X153023187Y-140847891D01*
X153023190Y-140847893D01*
X153222703Y-140925185D01*
X153433020Y-140964500D01*
X153433022Y-140964500D01*
X153646978Y-140964500D01*
X153646980Y-140964500D01*
X153857297Y-140925185D01*
X154056810Y-140847893D01*
X154238722Y-140735258D01*
X154396841Y-140591114D01*
X154525781Y-140420370D01*
X154621151Y-140228840D01*
X154621151Y-140228837D01*
X154621153Y-140228835D01*
X154673081Y-140046325D01*
X154679704Y-140023048D01*
X154699446Y-139810000D01*
X154688698Y-139694017D01*
X154679704Y-139596952D01*
X154679703Y-139596949D01*
X154621153Y-139391164D01*
X154621150Y-139391158D01*
X154580737Y-139309998D01*
X154525781Y-139199630D01*
X154396841Y-139028886D01*
X154238722Y-138884742D01*
X154238716Y-138884738D01*
X154238713Y-138884736D01*
X154056813Y-138772108D01*
X154056807Y-138772106D01*
X154048712Y-138768970D01*
X153857297Y-138694815D01*
X153646980Y-138655500D01*
X153433020Y-138655500D01*
X153222703Y-138694815D01*
X153184797Y-138709500D01*
X153023192Y-138772106D01*
X153023186Y-138772108D01*
X152841286Y-138884736D01*
X152841283Y-138884738D01*
X152841279Y-138884740D01*
X152841278Y-138884742D01*
X152683159Y-139028886D01*
X152683158Y-139028887D01*
X152554219Y-139199629D01*
X152458849Y-139391158D01*
X152458846Y-139391164D01*
X152400296Y-139596949D01*
X152400295Y-139596952D01*
X152393471Y-139670604D01*
X152367685Y-139735542D01*
X152310884Y-139776229D01*
X152241103Y-139779749D01*
X152180497Y-139744984D01*
X152148307Y-139682971D01*
X152146529Y-139670604D01*
X152139704Y-139596952D01*
X152139703Y-139596949D01*
X152081153Y-139391164D01*
X152081150Y-139391158D01*
X152040737Y-139309998D01*
X151985781Y-139199630D01*
X151856841Y-139028886D01*
X151698722Y-138884742D01*
X151698716Y-138884738D01*
X151698713Y-138884736D01*
X151516813Y-138772108D01*
X151516807Y-138772106D01*
X151508712Y-138768970D01*
X151317297Y-138694815D01*
X151106980Y-138655500D01*
X150893020Y-138655500D01*
X150682703Y-138694815D01*
X150644797Y-138709500D01*
X150483192Y-138772106D01*
X150483186Y-138772108D01*
X150301286Y-138884736D01*
X150301283Y-138884738D01*
X150301279Y-138884740D01*
X150301278Y-138884742D01*
X150143159Y-139028886D01*
X150143158Y-139028887D01*
X150014219Y-139199629D01*
X149918849Y-139391158D01*
X149918846Y-139391164D01*
X149858727Y-139602466D01*
X149857513Y-139602120D01*
X149828710Y-139658751D01*
X149768394Y-139694017D01*
X149698586Y-139691076D01*
X149641450Y-139650860D01*
X149615127Y-139586139D01*
X149614499Y-139573675D01*
X149614499Y-139108129D01*
X149614498Y-139108123D01*
X149608091Y-139048516D01*
X149554697Y-138905359D01*
X149556623Y-138904640D01*
X149544260Y-138847805D01*
X149568677Y-138782341D01*
X149580256Y-138768977D01*
X155980519Y-132368716D01*
X164868713Y-123480521D01*
X164868716Y-123480520D01*
X164980520Y-123368716D01*
X165030639Y-123281904D01*
X165059577Y-123231785D01*
X165100500Y-123079057D01*
X165100500Y-122920943D01*
X165100500Y-118073218D01*
X165120185Y-118006179D01*
X165172989Y-117960424D01*
X165242147Y-117950480D01*
X165282953Y-117963860D01*
X165330278Y-117989156D01*
X165531126Y-118050083D01*
X165740000Y-118070655D01*
X165948874Y-118050083D01*
X166149722Y-117989156D01*
X166334824Y-117890217D01*
X166497067Y-117757067D01*
X166630217Y-117594824D01*
X166729156Y-117409722D01*
X166790083Y-117208874D01*
X166810655Y-117000000D01*
X166796550Y-116856795D01*
X166809569Y-116788150D01*
X166832269Y-116756964D01*
X167858506Y-115730728D01*
X167858511Y-115730724D01*
X167868714Y-115720520D01*
X167868716Y-115720520D01*
X167980520Y-115608716D01*
X168032040Y-115519480D01*
X168059577Y-115471785D01*
X168100501Y-115319057D01*
X168100501Y-115160943D01*
X168100501Y-115153348D01*
X168100500Y-115153330D01*
X168100500Y-109089059D01*
X168100501Y-109089046D01*
X168100501Y-108920945D01*
X168100501Y-108920943D01*
X168059577Y-108768215D01*
X168015449Y-108691784D01*
X168015449Y-108691782D01*
X167980524Y-108631290D01*
X167980521Y-108631286D01*
X167980520Y-108631284D01*
X167868716Y-108519480D01*
X167868715Y-108519479D01*
X167864385Y-108515149D01*
X167864374Y-108515139D01*
X167182590Y-107833355D01*
X167182588Y-107833352D01*
X167063717Y-107714481D01*
X167063716Y-107714480D01*
X166976904Y-107664360D01*
X166976904Y-107664359D01*
X166976900Y-107664358D01*
X166926785Y-107635423D01*
X166774057Y-107594499D01*
X166615943Y-107594499D01*
X166608347Y-107594499D01*
X166608331Y-107594500D01*
X165814096Y-107594500D01*
X165747057Y-107574815D01*
X165701302Y-107522011D01*
X165691358Y-107452853D01*
X165720383Y-107389297D01*
X165726395Y-107382839D01*
X165868713Y-107240521D01*
X165868716Y-107240520D01*
X165980520Y-107128716D01*
X166030639Y-107041904D01*
X166059577Y-106991785D01*
X166100500Y-106839058D01*
X166100500Y-106680943D01*
X166100500Y-95491629D01*
X166120185Y-95424590D01*
X166159226Y-95386200D01*
X166166041Y-95381981D01*
X166316764Y-95244579D01*
X166439673Y-95081821D01*
X166530582Y-94899250D01*
X166586397Y-94703083D01*
X166605215Y-94500000D01*
X166586397Y-94296917D01*
X166530582Y-94100750D01*
X166439673Y-93918179D01*
X166316764Y-93755421D01*
X166316762Y-93755418D01*
X166166041Y-93618019D01*
X166166039Y-93618017D01*
X165992642Y-93510655D01*
X165992635Y-93510651D01*
X165897546Y-93473814D01*
X165802456Y-93436976D01*
X165601976Y-93399500D01*
X165398024Y-93399500D01*
X165197544Y-93436976D01*
X165197541Y-93436976D01*
X165197541Y-93436977D01*
X165007364Y-93510651D01*
X165007357Y-93510655D01*
X164833960Y-93618017D01*
X164833958Y-93618019D01*
X164683237Y-93755418D01*
X164560327Y-93918178D01*
X164469422Y-94100739D01*
X164469417Y-94100752D01*
X164413602Y-94296917D01*
X164394785Y-94499999D01*
X164394785Y-94500000D01*
X164413602Y-94703082D01*
X164469417Y-94899247D01*
X164469422Y-94899260D01*
X164560327Y-95081821D01*
X164683237Y-95244581D01*
X164833956Y-95381979D01*
X164833958Y-95381980D01*
X164833959Y-95381981D01*
X164840772Y-95386199D01*
X164887410Y-95438223D01*
X164899500Y-95491629D01*
X164899500Y-106459902D01*
X164879815Y-106526941D01*
X164863181Y-106547583D01*
X163443037Y-107967726D01*
X163381714Y-108001211D01*
X163343203Y-108003448D01*
X163200000Y-107989345D01*
X162991123Y-108009917D01*
X162790276Y-108070844D01*
X162605181Y-108169779D01*
X162605174Y-108169783D01*
X162442932Y-108302932D01*
X162309783Y-108465174D01*
X162309779Y-108465181D01*
X162210844Y-108650276D01*
X162149917Y-108851123D01*
X162141112Y-108940521D01*
X162129345Y-109060000D01*
X162138675Y-109154734D01*
X162141986Y-109188346D01*
X162128967Y-109256992D01*
X162080902Y-109307702D01*
X162018583Y-109324500D01*
X161841417Y-109324500D01*
X161774378Y-109304815D01*
X161728623Y-109252011D01*
X161718014Y-109188346D01*
X161721324Y-109154734D01*
X161730655Y-109060000D01*
X161710083Y-108851126D01*
X161649156Y-108650278D01*
X161550217Y-108465176D01*
X161550216Y-108465174D01*
X161417067Y-108302932D01*
X161254825Y-108169783D01*
X161254818Y-108169779D01*
X161069723Y-108070844D01*
X160868876Y-108009917D01*
X160660000Y-107989345D01*
X160451123Y-108009917D01*
X160250276Y-108070844D01*
X160065181Y-108169779D01*
X160065174Y-108169783D01*
X159902932Y-108302932D01*
X159769783Y-108465174D01*
X159769779Y-108465181D01*
X159670844Y-108650276D01*
X159609917Y-108851123D01*
X159589344Y-109060000D01*
X159603448Y-109203202D01*
X159590429Y-109271848D01*
X159567726Y-109303036D01*
X159331352Y-109539411D01*
X159270029Y-109572896D01*
X159200338Y-109567912D01*
X159144404Y-109526041D01*
X159119987Y-109460576D01*
X159125010Y-109415735D01*
X159169590Y-109268774D01*
X159190152Y-109060000D01*
X159169590Y-108851225D01*
X159108690Y-108650465D01*
X159030106Y-108503445D01*
X158510000Y-109023552D01*
X158510000Y-109008656D01*
X158483422Y-108909466D01*
X158432077Y-108820535D01*
X158359465Y-108747923D01*
X158270534Y-108696578D01*
X158171344Y-108670000D01*
X158156448Y-108670000D01*
X158676552Y-108149893D01*
X158676552Y-108149892D01*
X158529534Y-108071309D01*
X158328772Y-108010409D01*
X158328776Y-108010409D01*
X158120000Y-107989847D01*
X157911225Y-108010409D01*
X157710471Y-108071307D01*
X157563446Y-108149893D01*
X158083553Y-108670000D01*
X158068656Y-108670000D01*
X157969466Y-108696578D01*
X157880535Y-108747923D01*
X157807923Y-108820535D01*
X157756578Y-108909466D01*
X157730000Y-109008656D01*
X157730000Y-109023552D01*
X157209893Y-108503446D01*
X157131307Y-108650471D01*
X157070409Y-108851225D01*
X157049847Y-109060000D01*
X157070409Y-109268774D01*
X157131309Y-109469534D01*
X157209892Y-109616552D01*
X157209893Y-109616552D01*
X157730000Y-109096446D01*
X157730000Y-109111344D01*
X157756578Y-109210534D01*
X157807923Y-109299465D01*
X157880535Y-109372077D01*
X157969466Y-109423422D01*
X158068656Y-109450000D01*
X158083553Y-109450000D01*
X157563445Y-109970106D01*
X157710465Y-110048690D01*
X157911227Y-110109590D01*
X157911223Y-110109590D01*
X158120000Y-110130152D01*
X158328776Y-110109590D01*
X158328778Y-110109589D01*
X158475735Y-110065010D01*
X158545602Y-110064386D01*
X158604715Y-110101634D01*
X158634306Y-110164928D01*
X158624981Y-110234172D01*
X158599412Y-110271351D01*
X157645784Y-111224981D01*
X157584461Y-111258466D01*
X157558103Y-111261300D01*
X134724869Y-111261300D01*
X134724853Y-111261299D01*
X134717257Y-111261299D01*
X134559143Y-111261299D01*
X134451787Y-111290065D01*
X134406410Y-111302224D01*
X134406409Y-111302225D01*
X134356296Y-111331159D01*
X134356295Y-111331160D01*
X134318543Y-111352956D01*
X134269485Y-111381279D01*
X134269482Y-111381281D01*
X134157678Y-111493086D01*
X133973895Y-111676868D01*
X133912572Y-111710353D01*
X133854121Y-111708962D01*
X133733356Y-111676603D01*
X133733346Y-111676601D01*
X133500001Y-111656186D01*
X133499999Y-111656186D01*
X133266653Y-111676601D01*
X133266643Y-111676603D01*
X133040396Y-111737225D01*
X133040389Y-111737227D01*
X133040389Y-111737228D01*
X132828093Y-111836223D01*
X132636213Y-111970579D01*
X132636211Y-111970580D01*
X132636208Y-111970583D01*
X132470583Y-112136208D01*
X132470580Y-112136211D01*
X132470579Y-112136213D01*
X132350806Y-112307267D01*
X132333118Y-112332528D01*
X132331680Y-112331521D01*
X132286810Y-112374297D01*
X132218202Y-112387513D01*
X132153340Y-112361540D01*
X132127702Y-112331953D01*
X132126882Y-112332528D01*
X132109194Y-112307267D01*
X131989421Y-112136213D01*
X131823787Y-111970579D01*
X131631907Y-111836223D01*
X131419611Y-111737228D01*
X131419607Y-111737227D01*
X131419603Y-111737225D01*
X131193356Y-111676603D01*
X131193346Y-111676601D01*
X130960001Y-111656186D01*
X130959999Y-111656186D01*
X130726653Y-111676601D01*
X130726643Y-111676603D01*
X130605877Y-111708962D01*
X130536027Y-111707299D01*
X130486103Y-111676868D01*
X127869235Y-109060000D01*
X146889345Y-109060000D01*
X146909917Y-109268876D01*
X146970844Y-109469723D01*
X147069779Y-109654818D01*
X147069783Y-109654825D01*
X147202932Y-109817067D01*
X147365174Y-109950216D01*
X147365181Y-109950220D01*
X147425659Y-109982546D01*
X147550278Y-110049156D01*
X147751126Y-110110083D01*
X147960000Y-110130655D01*
X148168874Y-110110083D01*
X148369722Y-110049156D01*
X148554824Y-109950217D01*
X148717067Y-109817067D01*
X148850217Y-109654824D01*
X148949156Y-109469722D01*
X149010083Y-109268874D01*
X149030655Y-109060000D01*
X149429345Y-109060000D01*
X149449917Y-109268876D01*
X149510844Y-109469723D01*
X149609779Y-109654818D01*
X149609783Y-109654825D01*
X149742932Y-109817067D01*
X149905174Y-109950216D01*
X149905181Y-109950220D01*
X149965659Y-109982546D01*
X150090278Y-110049156D01*
X150291126Y-110110083D01*
X150500000Y-110130655D01*
X150708874Y-110110083D01*
X150909722Y-110049156D01*
X151094824Y-109950217D01*
X151257067Y-109817067D01*
X151390217Y-109654824D01*
X151489156Y-109469722D01*
X151550083Y-109268874D01*
X151570655Y-109060000D01*
X151969345Y-109060000D01*
X151989917Y-109268876D01*
X152050844Y-109469723D01*
X152149779Y-109654818D01*
X152149783Y-109654825D01*
X152282932Y-109817067D01*
X152445174Y-109950216D01*
X152445181Y-109950220D01*
X152505659Y-109982546D01*
X152630278Y-110049156D01*
X152831126Y-110110083D01*
X153040000Y-110130655D01*
X153248874Y-110110083D01*
X153449722Y-110049156D01*
X153634824Y-109950217D01*
X153797067Y-109817067D01*
X153930217Y-109654824D01*
X154029156Y-109469722D01*
X154090083Y-109268874D01*
X154110655Y-109060000D01*
X154509847Y-109060000D01*
X154530409Y-109268774D01*
X154591309Y-109469534D01*
X154669892Y-109616552D01*
X154669893Y-109616552D01*
X155190000Y-109096446D01*
X155190000Y-109111344D01*
X155216578Y-109210534D01*
X155267923Y-109299465D01*
X155340535Y-109372077D01*
X155429466Y-109423422D01*
X155528656Y-109450000D01*
X155543553Y-109450000D01*
X155023445Y-109970106D01*
X155170465Y-110048690D01*
X155371227Y-110109590D01*
X155371223Y-110109590D01*
X155580000Y-110130152D01*
X155788774Y-110109590D01*
X155989532Y-110048690D01*
X156136553Y-109970105D01*
X155616448Y-109450000D01*
X155631344Y-109450000D01*
X155730534Y-109423422D01*
X155819465Y-109372077D01*
X155892077Y-109299465D01*
X155943422Y-109210534D01*
X155970000Y-109111344D01*
X155970000Y-109096447D01*
X156490105Y-109616552D01*
X156568690Y-109469532D01*
X156629590Y-109268774D01*
X156650152Y-109060000D01*
X156629590Y-108851225D01*
X156568690Y-108650465D01*
X156490106Y-108503445D01*
X155970000Y-109023551D01*
X155970000Y-109008656D01*
X155943422Y-108909466D01*
X155892077Y-108820535D01*
X155819465Y-108747923D01*
X155730534Y-108696578D01*
X155631344Y-108670000D01*
X155616448Y-108670000D01*
X156136552Y-108149893D01*
X156136552Y-108149892D01*
X155989534Y-108071309D01*
X155788772Y-108010409D01*
X155788776Y-108010409D01*
X155580000Y-107989847D01*
X155371225Y-108010409D01*
X155170471Y-108071307D01*
X155023446Y-108149893D01*
X155543553Y-108670000D01*
X155528656Y-108670000D01*
X155429466Y-108696578D01*
X155340535Y-108747923D01*
X155267923Y-108820535D01*
X155216578Y-108909466D01*
X155190000Y-109008656D01*
X155190000Y-109023552D01*
X154669893Y-108503446D01*
X154591307Y-108650471D01*
X154530409Y-108851225D01*
X154509847Y-109060000D01*
X154110655Y-109060000D01*
X154090083Y-108851126D01*
X154029156Y-108650278D01*
X153930217Y-108465176D01*
X153930216Y-108465174D01*
X153797067Y-108302932D01*
X153634825Y-108169783D01*
X153634818Y-108169779D01*
X153449723Y-108070844D01*
X153248876Y-108009917D01*
X153040000Y-107989345D01*
X152831123Y-108009917D01*
X152630276Y-108070844D01*
X152445181Y-108169779D01*
X152445174Y-108169783D01*
X152282932Y-108302932D01*
X152149783Y-108465174D01*
X152149779Y-108465181D01*
X152050844Y-108650276D01*
X151989917Y-108851123D01*
X151969345Y-109060000D01*
X151570655Y-109060000D01*
X151550083Y-108851126D01*
X151489156Y-108650278D01*
X151390217Y-108465176D01*
X151390216Y-108465174D01*
X151257067Y-108302932D01*
X151094825Y-108169783D01*
X151094818Y-108169779D01*
X150909723Y-108070844D01*
X150708876Y-108009917D01*
X150500000Y-107989345D01*
X150291123Y-108009917D01*
X150090276Y-108070844D01*
X149905181Y-108169779D01*
X149905174Y-108169783D01*
X149742932Y-108302932D01*
X149609783Y-108465174D01*
X149609779Y-108465181D01*
X149510844Y-108650276D01*
X149449917Y-108851123D01*
X149429345Y-109060000D01*
X149030655Y-109060000D01*
X149010083Y-108851126D01*
X148949156Y-108650278D01*
X148850217Y-108465176D01*
X148850216Y-108465174D01*
X148717067Y-108302932D01*
X148554825Y-108169783D01*
X148554818Y-108169779D01*
X148369723Y-108070844D01*
X148168876Y-108009917D01*
X147960000Y-107989345D01*
X147751123Y-108009917D01*
X147550276Y-108070844D01*
X147365181Y-108169779D01*
X147365174Y-108169783D01*
X147202932Y-108302932D01*
X147069783Y-108465174D01*
X147069779Y-108465181D01*
X146970844Y-108650276D01*
X146909917Y-108851123D01*
X146889345Y-109060000D01*
X127869235Y-109060000D01*
X121976819Y-103167584D01*
X121943334Y-103106261D01*
X121940500Y-103079903D01*
X121940500Y-102776071D01*
X121960185Y-102709032D01*
X122007778Y-102667459D01*
X122007216Y-102666485D01*
X122011893Y-102663783D01*
X122011907Y-102663777D01*
X122203787Y-102529421D01*
X122369421Y-102363787D01*
X122503777Y-102171907D01*
X122503777Y-102171905D01*
X122506882Y-102167472D01*
X122508323Y-102168481D01*
X122553172Y-102125712D01*
X122621778Y-102112484D01*
X122686645Y-102138447D01*
X122712294Y-102168048D01*
X122713118Y-102167472D01*
X122716222Y-102171905D01*
X122716223Y-102171907D01*
X122850579Y-102363787D01*
X123016213Y-102529421D01*
X123208093Y-102663777D01*
X123420389Y-102762772D01*
X123646649Y-102823398D01*
X123821525Y-102838698D01*
X123879999Y-102843814D01*
X123880000Y-102843814D01*
X123880001Y-102843814D01*
X123938463Y-102838699D01*
X124113351Y-102823398D01*
X124339611Y-102762772D01*
X124551907Y-102663777D01*
X124743787Y-102529421D01*
X124909421Y-102363787D01*
X125043777Y-102171907D01*
X125043777Y-102171905D01*
X125046882Y-102167472D01*
X125048323Y-102168481D01*
X125093172Y-102125712D01*
X125161778Y-102112484D01*
X125226645Y-102138447D01*
X125252294Y-102168048D01*
X125253118Y-102167472D01*
X125256222Y-102171905D01*
X125256223Y-102171907D01*
X125390579Y-102363787D01*
X125556213Y-102529421D01*
X125748093Y-102663777D01*
X125960389Y-102762772D01*
X126186649Y-102823398D01*
X126361525Y-102838698D01*
X126419999Y-102843814D01*
X126420000Y-102843814D01*
X126420001Y-102843814D01*
X126478463Y-102838699D01*
X126653351Y-102823398D01*
X126879611Y-102762772D01*
X127091907Y-102663777D01*
X127283787Y-102529421D01*
X127449421Y-102363787D01*
X127583777Y-102171907D01*
X127583777Y-102171905D01*
X127586882Y-102167472D01*
X127588323Y-102168481D01*
X127633172Y-102125712D01*
X127701778Y-102112484D01*
X127766645Y-102138447D01*
X127792294Y-102168048D01*
X127793118Y-102167472D01*
X127796222Y-102171905D01*
X127796223Y-102171907D01*
X127930579Y-102363787D01*
X128096213Y-102529421D01*
X128288093Y-102663777D01*
X128500389Y-102762772D01*
X128726649Y-102823398D01*
X128901525Y-102838698D01*
X128959999Y-102843814D01*
X128960000Y-102843814D01*
X128960001Y-102843814D01*
X129018463Y-102838699D01*
X129193351Y-102823398D01*
X129419611Y-102762772D01*
X129631907Y-102663777D01*
X129823787Y-102529421D01*
X129989421Y-102363787D01*
X130123777Y-102171907D01*
X130123777Y-102171905D01*
X130126882Y-102167472D01*
X130128323Y-102168481D01*
X130173172Y-102125712D01*
X130241778Y-102112484D01*
X130306645Y-102138447D01*
X130332294Y-102168048D01*
X130333118Y-102167472D01*
X130336222Y-102171905D01*
X130336223Y-102171907D01*
X130470579Y-102363787D01*
X130636213Y-102529421D01*
X130828093Y-102663777D01*
X131040389Y-102762772D01*
X131266649Y-102823398D01*
X131441525Y-102838698D01*
X131499999Y-102843814D01*
X131500000Y-102843814D01*
X131500001Y-102843814D01*
X131558463Y-102838699D01*
X131733351Y-102823398D01*
X131959611Y-102762772D01*
X132171907Y-102663777D01*
X132363787Y-102529421D01*
X132529421Y-102363787D01*
X132663777Y-102171907D01*
X132663777Y-102171905D01*
X132666882Y-102167472D01*
X132668188Y-102168386D01*
X132713453Y-102125213D01*
X132782058Y-102111980D01*
X132846926Y-102137937D01*
X132872775Y-102167765D01*
X132873553Y-102167221D01*
X132933545Y-102252899D01*
X132933546Y-102252900D01*
X133509026Y-101677419D01*
X133519281Y-101715689D01*
X133592849Y-101843111D01*
X133696889Y-101947151D01*
X133824311Y-102020719D01*
X133862579Y-102030972D01*
X133287098Y-102606453D01*
X133368343Y-102663341D01*
X133368345Y-102663342D01*
X133580558Y-102762298D01*
X133580567Y-102762302D01*
X133806731Y-102822902D01*
X133806741Y-102822904D01*
X134039998Y-102843312D01*
X134040002Y-102843312D01*
X134273258Y-102822904D01*
X134273268Y-102822902D01*
X134499432Y-102762302D01*
X134499441Y-102762298D01*
X134711655Y-102663342D01*
X134792900Y-102606453D01*
X134217420Y-102030972D01*
X134255689Y-102020719D01*
X134383111Y-101947151D01*
X134487151Y-101843111D01*
X134560719Y-101715689D01*
X134570973Y-101677420D01*
X135146453Y-102252900D01*
X135203342Y-102171655D01*
X135302298Y-101959441D01*
X135302302Y-101959432D01*
X135362902Y-101733268D01*
X135362904Y-101733258D01*
X135383312Y-101500001D01*
X135383312Y-101499998D01*
X135362904Y-101266741D01*
X135362902Y-101266731D01*
X135302302Y-101040567D01*
X135302298Y-101040558D01*
X135203342Y-100828345D01*
X135203341Y-100828343D01*
X135146453Y-100747099D01*
X135146453Y-100747098D01*
X134570972Y-101322579D01*
X134560719Y-101284311D01*
X134487151Y-101156889D01*
X134383111Y-101052849D01*
X134255689Y-100979281D01*
X134217419Y-100969026D01*
X134792900Y-100393546D01*
X134792899Y-100393545D01*
X134711656Y-100336658D01*
X134711654Y-100336657D01*
X134499441Y-100237701D01*
X134499432Y-100237697D01*
X134273268Y-100177097D01*
X134273258Y-100177095D01*
X134040002Y-100156688D01*
X134039998Y-100156688D01*
X133806741Y-100177095D01*
X133806731Y-100177097D01*
X133580567Y-100237697D01*
X133580558Y-100237701D01*
X133368341Y-100336659D01*
X133287099Y-100393544D01*
X133287098Y-100393545D01*
X133862580Y-100969026D01*
X133824311Y-100979281D01*
X133696889Y-101052849D01*
X133592849Y-101156889D01*
X133519281Y-101284311D01*
X133509026Y-101322579D01*
X132933545Y-100747098D01*
X132933544Y-100747099D01*
X132873553Y-100832778D01*
X132872187Y-100831821D01*
X132827081Y-100874808D01*
X132758471Y-100888014D01*
X132693613Y-100862029D01*
X132667614Y-100832014D01*
X132666882Y-100832528D01*
X132663777Y-100828093D01*
X132529421Y-100636213D01*
X132363787Y-100470579D01*
X132171907Y-100336223D01*
X131959611Y-100237228D01*
X131959607Y-100237227D01*
X131959603Y-100237225D01*
X131733356Y-100176603D01*
X131733346Y-100176601D01*
X131500001Y-100156186D01*
X131499999Y-100156186D01*
X131266653Y-100176601D01*
X131266643Y-100176603D01*
X131040396Y-100237225D01*
X131040389Y-100237227D01*
X131040389Y-100237228D01*
X130828093Y-100336223D01*
X130636213Y-100470579D01*
X130636211Y-100470580D01*
X130636208Y-100470583D01*
X130470583Y-100636208D01*
X130470580Y-100636211D01*
X130470579Y-100636213D01*
X130392936Y-100747099D01*
X130333118Y-100832528D01*
X130331680Y-100831521D01*
X130286810Y-100874297D01*
X130218202Y-100887513D01*
X130153340Y-100861540D01*
X130127702Y-100831953D01*
X130126882Y-100832528D01*
X130123777Y-100828093D01*
X129989421Y-100636213D01*
X129823787Y-100470579D01*
X129631907Y-100336223D01*
X129419611Y-100237228D01*
X129419607Y-100237227D01*
X129419603Y-100237225D01*
X129193356Y-100176603D01*
X129193346Y-100176601D01*
X128960001Y-100156186D01*
X128959999Y-100156186D01*
X128726653Y-100176601D01*
X128726643Y-100176603D01*
X128500396Y-100237225D01*
X128500389Y-100237227D01*
X128500389Y-100237228D01*
X128288093Y-100336223D01*
X128096213Y-100470579D01*
X128096211Y-100470580D01*
X128096208Y-100470583D01*
X127930583Y-100636208D01*
X127930580Y-100636211D01*
X127930579Y-100636213D01*
X127852936Y-100747099D01*
X127793118Y-100832528D01*
X127791680Y-100831521D01*
X127746810Y-100874297D01*
X127678202Y-100887513D01*
X127613340Y-100861540D01*
X127587702Y-100831953D01*
X127586882Y-100832528D01*
X127583777Y-100828093D01*
X127449421Y-100636213D01*
X127283787Y-100470579D01*
X127091907Y-100336223D01*
X126879611Y-100237228D01*
X126879607Y-100237227D01*
X126879603Y-100237225D01*
X126653356Y-100176603D01*
X126653346Y-100176601D01*
X126420001Y-100156186D01*
X126419995Y-100156186D01*
X126379171Y-100159757D01*
X126310672Y-100145989D01*
X126260489Y-100097373D01*
X126244557Y-100029344D01*
X126267934Y-99963501D01*
X126280678Y-99948555D01*
X128092416Y-98136819D01*
X128153739Y-98103334D01*
X128180097Y-98100500D01*
X142512688Y-98100500D01*
X142579727Y-98120185D01*
X142611642Y-98149773D01*
X142683237Y-98244581D01*
X142833958Y-98381980D01*
X142833960Y-98381982D01*
X142933141Y-98443392D01*
X143007363Y-98489348D01*
X143197544Y-98563024D01*
X143398024Y-98600500D01*
X143398026Y-98600500D01*
X143601974Y-98600500D01*
X143601976Y-98600500D01*
X143802456Y-98563024D01*
X143992637Y-98489348D01*
X144166041Y-98381981D01*
X144316764Y-98244579D01*
X144439673Y-98081821D01*
X144530582Y-97899250D01*
X144586397Y-97703083D01*
X144605215Y-97500000D01*
X144586397Y-97296917D01*
X144530582Y-97100750D01*
X144439673Y-96918179D01*
X144316764Y-96755421D01*
X144316762Y-96755418D01*
X144166041Y-96618019D01*
X144166039Y-96618017D01*
X143992642Y-96510655D01*
X143992635Y-96510651D01*
X143897546Y-96473814D01*
X143802456Y-96436976D01*
X143601976Y-96399500D01*
X143398024Y-96399500D01*
X143197544Y-96436976D01*
X143197541Y-96436976D01*
X143197541Y-96436977D01*
X143007364Y-96510651D01*
X143007357Y-96510655D01*
X142833960Y-96618017D01*
X142833958Y-96618019D01*
X142683237Y-96755418D01*
X142611642Y-96850227D01*
X142555533Y-96891863D01*
X142512688Y-96899500D01*
X127959057Y-96899500D01*
X127800942Y-96899500D01*
X127648215Y-96940423D01*
X127648214Y-96940423D01*
X127648212Y-96940424D01*
X127648209Y-96940425D01*
X127598096Y-96969359D01*
X127598095Y-96969360D01*
X127592804Y-96972415D01*
X127511285Y-97019479D01*
X127511282Y-97019481D01*
X127399478Y-97131286D01*
X124353895Y-100176868D01*
X124292572Y-100210353D01*
X124234121Y-100208962D01*
X124113356Y-100176603D01*
X124113346Y-100176601D01*
X123880001Y-100156186D01*
X123879999Y-100156186D01*
X123646653Y-100176601D01*
X123646643Y-100176603D01*
X123420396Y-100237225D01*
X123420389Y-100237227D01*
X123420389Y-100237228D01*
X123208093Y-100336223D01*
X123016213Y-100470579D01*
X123016211Y-100470580D01*
X123016208Y-100470583D01*
X122850583Y-100636208D01*
X122850580Y-100636211D01*
X122850579Y-100636213D01*
X122772936Y-100747099D01*
X122713118Y-100832528D01*
X122711680Y-100831521D01*
X122666810Y-100874297D01*
X122598202Y-100887513D01*
X122533340Y-100861540D01*
X122507702Y-100831953D01*
X122506882Y-100832528D01*
X122503777Y-100828093D01*
X122369421Y-100636213D01*
X122203787Y-100470579D01*
X122011907Y-100336223D01*
X121799611Y-100237228D01*
X121799607Y-100237227D01*
X121799603Y-100237225D01*
X121573356Y-100176603D01*
X121573346Y-100176601D01*
X121340001Y-100156186D01*
X121339999Y-100156186D01*
X121106653Y-100176601D01*
X121106643Y-100176603D01*
X120880396Y-100237225D01*
X120880389Y-100237227D01*
X120880389Y-100237228D01*
X120668093Y-100336223D01*
X120586228Y-100393546D01*
X120476212Y-100470580D01*
X120339246Y-100607546D01*
X120277923Y-100641030D01*
X120208231Y-100636046D01*
X120152298Y-100594174D01*
X120136755Y-100560931D01*
X120135002Y-100561585D01*
X120081997Y-100419471D01*
X120081993Y-100419464D01*
X119995747Y-100304255D01*
X119995744Y-100304252D01*
X119880535Y-100218006D01*
X119880528Y-100218002D01*
X119745682Y-100167708D01*
X119745683Y-100167708D01*
X119686083Y-100161301D01*
X119686081Y-100161300D01*
X119686073Y-100161300D01*
X119686064Y-100161300D01*
X117913929Y-100161300D01*
X117913923Y-100161301D01*
X117854316Y-100167708D01*
X117719471Y-100218002D01*
X117719464Y-100218006D01*
X117604255Y-100304252D01*
X117604252Y-100304255D01*
X117518006Y-100419464D01*
X117518002Y-100419471D01*
X117467708Y-100554317D01*
X117461301Y-100613916D01*
X117461300Y-100613935D01*
X117461300Y-102386070D01*
X117461301Y-102386076D01*
X117467708Y-102445683D01*
X117518002Y-102580528D01*
X117518006Y-102580535D01*
X117604252Y-102695744D01*
X117604255Y-102695747D01*
X117719464Y-102781993D01*
X117719471Y-102781997D01*
X117764418Y-102798761D01*
X117854317Y-102832291D01*
X117913927Y-102838700D01*
X118075500Y-102838699D01*
X118142539Y-102858383D01*
X118188294Y-102911187D01*
X118199500Y-102962699D01*
X118199500Y-108373330D01*
X118199499Y-108373348D01*
X118199499Y-108539054D01*
X118199498Y-108539054D01*
X118240423Y-108691784D01*
X118240425Y-108691790D01*
X118267079Y-108737955D01*
X118267080Y-108737957D01*
X118319475Y-108828709D01*
X118319481Y-108828717D01*
X118438349Y-108947585D01*
X118438355Y-108947590D01*
X120939862Y-111449098D01*
X120973347Y-111510421D01*
X120968363Y-111580113D01*
X120926491Y-111636046D01*
X120861027Y-111660463D01*
X120841375Y-111660307D01*
X120800004Y-111656688D01*
X120799998Y-111656688D01*
X120566741Y-111677095D01*
X120566731Y-111677097D01*
X120340567Y-111737697D01*
X120340558Y-111737701D01*
X120128341Y-111836659D01*
X120047098Y-111893544D01*
X120047098Y-111893545D01*
X120622579Y-112469026D01*
X120584311Y-112479281D01*
X120456889Y-112552849D01*
X120352849Y-112656889D01*
X120279281Y-112784311D01*
X120269026Y-112822579D01*
X119693545Y-112247098D01*
X119693544Y-112247099D01*
X119636659Y-112328341D01*
X119537701Y-112540558D01*
X119537697Y-112540567D01*
X119477097Y-112766731D01*
X119477095Y-112766741D01*
X119456688Y-112999998D01*
X119456688Y-113000001D01*
X119477095Y-113233258D01*
X119477097Y-113233268D01*
X119537697Y-113459432D01*
X119537701Y-113459441D01*
X119636657Y-113671654D01*
X119636658Y-113671656D01*
X119693545Y-113752899D01*
X119693546Y-113752900D01*
X120269026Y-113177419D01*
X120279281Y-113215689D01*
X120352849Y-113343111D01*
X120456889Y-113447151D01*
X120584311Y-113520719D01*
X120622579Y-113530972D01*
X120047098Y-114106453D01*
X120128343Y-114163341D01*
X120128345Y-114163342D01*
X120340558Y-114262298D01*
X120340567Y-114262302D01*
X120566731Y-114322902D01*
X120566741Y-114322904D01*
X120799998Y-114343312D01*
X120800002Y-114343312D01*
X121033258Y-114322904D01*
X121033268Y-114322902D01*
X121259432Y-114262302D01*
X121259441Y-114262298D01*
X121471655Y-114163342D01*
X121552900Y-114106453D01*
X120977420Y-113530972D01*
X121015689Y-113520719D01*
X121143111Y-113447151D01*
X121247151Y-113343111D01*
X121320719Y-113215689D01*
X121330973Y-113177420D01*
X121906453Y-113752900D01*
X121966447Y-113667221D01*
X121967819Y-113668181D01*
X122012885Y-113625208D01*
X122081491Y-113611982D01*
X122146357Y-113637947D01*
X122172385Y-113667984D01*
X122173118Y-113667472D01*
X122176222Y-113671905D01*
X122176223Y-113671907D01*
X122310579Y-113863787D01*
X122476213Y-114029421D01*
X122668093Y-114163777D01*
X122880389Y-114262772D01*
X123106649Y-114323398D01*
X123281525Y-114338698D01*
X123339999Y-114343814D01*
X123340000Y-114343814D01*
X123340001Y-114343814D01*
X123398463Y-114338699D01*
X123573351Y-114323398D01*
X123799611Y-114262772D01*
X123964898Y-114185697D01*
X124033972Y-114175206D01*
X124097756Y-114203726D01*
X124135996Y-114262202D01*
X124141300Y-114298080D01*
X124141300Y-114591530D01*
X124141299Y-114591548D01*
X124141299Y-114757254D01*
X124141298Y-114757254D01*
X124141299Y-114757257D01*
X124182223Y-114909985D01*
X124205546Y-114950381D01*
X124211158Y-114960100D01*
X124211159Y-114960104D01*
X124211160Y-114960104D01*
X124229150Y-114991265D01*
X124261279Y-115046914D01*
X124261281Y-115046917D01*
X124380149Y-115165785D01*
X124380155Y-115165790D01*
X126644981Y-117430616D01*
X126678466Y-117491939D01*
X126681300Y-117518297D01*
X126681300Y-119321919D01*
X126661615Y-119388958D01*
X126608811Y-119434713D01*
X126539653Y-119444657D01*
X126504896Y-119434301D01*
X126339617Y-119357230D01*
X126339603Y-119357225D01*
X126113356Y-119296603D01*
X126113346Y-119296601D01*
X125880001Y-119276186D01*
X125879999Y-119276186D01*
X125646653Y-119296601D01*
X125646643Y-119296603D01*
X125420396Y-119357225D01*
X125420389Y-119357227D01*
X125420389Y-119357228D01*
X125208093Y-119456223D01*
X125016213Y-119590579D01*
X125016211Y-119590580D01*
X125016208Y-119590583D01*
X124850583Y-119756208D01*
X124713118Y-119952528D01*
X124711680Y-119951521D01*
X124666810Y-119994297D01*
X124598202Y-120007513D01*
X124533340Y-119981540D01*
X124507702Y-119951953D01*
X124506882Y-119952528D01*
X124503777Y-119948093D01*
X124369421Y-119756213D01*
X124203787Y-119590579D01*
X124011907Y-119456223D01*
X123799611Y-119357228D01*
X123799607Y-119357227D01*
X123799603Y-119357225D01*
X123573356Y-119296603D01*
X123573346Y-119296601D01*
X123340001Y-119276186D01*
X123339999Y-119276186D01*
X123106653Y-119296601D01*
X123106643Y-119296603D01*
X122880396Y-119357225D01*
X122880389Y-119357227D01*
X122880389Y-119357228D01*
X122668093Y-119456223D01*
X122476213Y-119590579D01*
X122476211Y-119590580D01*
X122476208Y-119590583D01*
X122310583Y-119756208D01*
X122173118Y-119952528D01*
X122171680Y-119951521D01*
X122126810Y-119994297D01*
X122058202Y-120007513D01*
X121993340Y-119981540D01*
X121967702Y-119951953D01*
X121966882Y-119952528D01*
X121963777Y-119948093D01*
X121829421Y-119756213D01*
X121663787Y-119590579D01*
X121471907Y-119456223D01*
X121259611Y-119357228D01*
X121259607Y-119357227D01*
X121259603Y-119357225D01*
X121033356Y-119296603D01*
X121033346Y-119296601D01*
X120800001Y-119276186D01*
X120799999Y-119276186D01*
X120566653Y-119296601D01*
X120566643Y-119296603D01*
X120340396Y-119357225D01*
X120340389Y-119357227D01*
X120340389Y-119357228D01*
X120128093Y-119456223D01*
X119936213Y-119590579D01*
X119936211Y-119590580D01*
X119936208Y-119590583D01*
X119770583Y-119756208D01*
X119636223Y-119948093D01*
X119537229Y-120160387D01*
X119537225Y-120160396D01*
X119476603Y-120386643D01*
X119476601Y-120386653D01*
X119456186Y-120619999D01*
X119456186Y-120620000D01*
X119476601Y-120853346D01*
X119476603Y-120853356D01*
X119537225Y-121079603D01*
X119537227Y-121079607D01*
X119537228Y-121079611D01*
X119636223Y-121291907D01*
X119770579Y-121483787D01*
X119936213Y-121649421D01*
X120128093Y-121783777D01*
X120340389Y-121882772D01*
X120566649Y-121943398D01*
X120753329Y-121959730D01*
X120799999Y-121963814D01*
X120800000Y-121963814D01*
X120800001Y-121963814D01*
X120838891Y-121960411D01*
X121033351Y-121943398D01*
X121259611Y-121882772D01*
X121471907Y-121783777D01*
X121663787Y-121649421D01*
X121829421Y-121483787D01*
X121963777Y-121291907D01*
X121963777Y-121291905D01*
X121966882Y-121287472D01*
X121968323Y-121288481D01*
X122013172Y-121245712D01*
X122081778Y-121232484D01*
X122146645Y-121258447D01*
X122172294Y-121288048D01*
X122173118Y-121287472D01*
X122176222Y-121291905D01*
X122176223Y-121291907D01*
X122310579Y-121483787D01*
X122476213Y-121649421D01*
X122668093Y-121783777D01*
X122880389Y-121882772D01*
X123106649Y-121943398D01*
X123293329Y-121959730D01*
X123339999Y-121963814D01*
X123340000Y-121963814D01*
X123340001Y-121963814D01*
X123378891Y-121960411D01*
X123573351Y-121943398D01*
X123799611Y-121882772D01*
X124011907Y-121783777D01*
X124203787Y-121649421D01*
X124369421Y-121483787D01*
X124503777Y-121291907D01*
X124503777Y-121291905D01*
X124506882Y-121287472D01*
X124508323Y-121288481D01*
X124553172Y-121245712D01*
X124621778Y-121232484D01*
X124686645Y-121258447D01*
X124712294Y-121288048D01*
X124713118Y-121287472D01*
X124716222Y-121291905D01*
X124716223Y-121291907D01*
X124850579Y-121483787D01*
X125016213Y-121649421D01*
X125208093Y-121783777D01*
X125420389Y-121882772D01*
X125646649Y-121943398D01*
X125833329Y-121959730D01*
X125879999Y-121963814D01*
X125880000Y-121963814D01*
X125880001Y-121963814D01*
X125918891Y-121960411D01*
X126113351Y-121943398D01*
X126339611Y-121882772D01*
X126504898Y-121805697D01*
X126573972Y-121795206D01*
X126637756Y-121823726D01*
X126675996Y-121882202D01*
X126681300Y-121918080D01*
X126681300Y-129385130D01*
X126681299Y-129385148D01*
X126681299Y-129550854D01*
X126681298Y-129550854D01*
X126722223Y-129703585D01*
X126751158Y-129753700D01*
X126751159Y-129753704D01*
X126751160Y-129753704D01*
X126801279Y-129840514D01*
X126801281Y-129840517D01*
X126920149Y-129959385D01*
X126920155Y-129959390D01*
X128160681Y-131199916D01*
X128194166Y-131261239D01*
X128197000Y-131287597D01*
X128197000Y-132540370D01*
X128197001Y-132540376D01*
X128203408Y-132599983D01*
X128253702Y-132734828D01*
X128253706Y-132734835D01*
X128339952Y-132850044D01*
X128339955Y-132850047D01*
X128455164Y-132936293D01*
X128455171Y-132936297D01*
X128474484Y-132943500D01*
X128590017Y-132986591D01*
X128649627Y-132993000D01*
X128651051Y-132992999D01*
X128651368Y-132993092D01*
X128652953Y-132993178D01*
X128652932Y-132993552D01*
X128718092Y-133012670D01*
X128763858Y-133065464D01*
X128774602Y-133127806D01*
X128772732Y-133149179D01*
X129342013Y-133718460D01*
X129293498Y-133731460D01*
X129171503Y-133801894D01*
X129071894Y-133901503D01*
X129001460Y-134023498D01*
X128988460Y-134072013D01*
X128419179Y-133502732D01*
X128367691Y-133576267D01*
X128271376Y-133782815D01*
X128271372Y-133782824D01*
X128212388Y-134002956D01*
X128212388Y-134002960D01*
X128192525Y-134229997D01*
X128192525Y-134230002D01*
X128212388Y-134457039D01*
X128212388Y-134457043D01*
X128271372Y-134677175D01*
X128271376Y-134677184D01*
X128367692Y-134883736D01*
X128367693Y-134883738D01*
X128419178Y-134957266D01*
X128419179Y-134957267D01*
X128988459Y-134387986D01*
X129001460Y-134436502D01*
X129071894Y-134558497D01*
X129171503Y-134658106D01*
X129293498Y-134728540D01*
X129342011Y-134741539D01*
X128772731Y-135310820D01*
X128846268Y-135362310D01*
X128899950Y-135387342D01*
X128952390Y-135433514D01*
X128971542Y-135500707D01*
X128951327Y-135567588D01*
X128899952Y-135612105D01*
X128846018Y-135637255D01*
X128846011Y-135637259D01*
X128659246Y-135768032D01*
X128498032Y-135929246D01*
X128367259Y-136116011D01*
X128367258Y-136116013D01*
X128270905Y-136322642D01*
X128211894Y-136542870D01*
X128211893Y-136542877D01*
X128192023Y-136769998D01*
X128192023Y-136770002D01*
X128199030Y-136850098D01*
X128185263Y-136918598D01*
X128136648Y-136968781D01*
X128068619Y-136984714D01*
X128002775Y-136961338D01*
X127987821Y-136948586D01*
X116556819Y-125517584D01*
X116523334Y-125456261D01*
X116520500Y-125429903D01*
X116520500Y-97060096D01*
X116540185Y-96993057D01*
X116556814Y-96972420D01*
X118326104Y-95203129D01*
X118387425Y-95169646D01*
X118445876Y-95171037D01*
X118487902Y-95182297D01*
X118566649Y-95203398D01*
X118753329Y-95219730D01*
X118799999Y-95223814D01*
X118800000Y-95223814D01*
X118800001Y-95223814D01*
X118838891Y-95220411D01*
X119033351Y-95203398D01*
X119259611Y-95142772D01*
X119471907Y-95043777D01*
X119663787Y-94909421D01*
X119829421Y-94743787D01*
X119963777Y-94551907D01*
X119963777Y-94551905D01*
X119966882Y-94547472D01*
X119968323Y-94548481D01*
X120013172Y-94505712D01*
X120081778Y-94492484D01*
X120146645Y-94518447D01*
X120172294Y-94548048D01*
X120173118Y-94547472D01*
X120176222Y-94551905D01*
X120176223Y-94551907D01*
X120310579Y-94743787D01*
X120476213Y-94909421D01*
X120668093Y-95043777D01*
X120880389Y-95142772D01*
X121106649Y-95203398D01*
X121293329Y-95219730D01*
X121339999Y-95223814D01*
X121340000Y-95223814D01*
X121340001Y-95223814D01*
X121378891Y-95220411D01*
X121573351Y-95203398D01*
X121799611Y-95142772D01*
X122011907Y-95043777D01*
X122203787Y-94909421D01*
X122369421Y-94743787D01*
X122503777Y-94551907D01*
X122503777Y-94551905D01*
X122506882Y-94547472D01*
X122508323Y-94548481D01*
X122553172Y-94505712D01*
X122621778Y-94492484D01*
X122686645Y-94518447D01*
X122712294Y-94548048D01*
X122713118Y-94547472D01*
X122716222Y-94551905D01*
X122716223Y-94551907D01*
X122850579Y-94743787D01*
X123016213Y-94909421D01*
X123208093Y-95043777D01*
X123420389Y-95142772D01*
X123646649Y-95203398D01*
X123833329Y-95219730D01*
X123879999Y-95223814D01*
X123880000Y-95223814D01*
X123880001Y-95223814D01*
X123918891Y-95220411D01*
X124113351Y-95203398D01*
X124339611Y-95142772D01*
X124551907Y-95043777D01*
X124743787Y-94909421D01*
X124909421Y-94743787D01*
X125043777Y-94551907D01*
X125043777Y-94551905D01*
X125046882Y-94547472D01*
X125048323Y-94548481D01*
X125093172Y-94505712D01*
X125161778Y-94492484D01*
X125226645Y-94518447D01*
X125252294Y-94548048D01*
X125253118Y-94547472D01*
X125256222Y-94551905D01*
X125256223Y-94551907D01*
X125390579Y-94743787D01*
X125556213Y-94909421D01*
X125748093Y-95043777D01*
X125960389Y-95142772D01*
X126186649Y-95203398D01*
X126373329Y-95219730D01*
X126419999Y-95223814D01*
X126420000Y-95223814D01*
X126420001Y-95223814D01*
X126458891Y-95220411D01*
X126653351Y-95203398D01*
X126879611Y-95142772D01*
X127091907Y-95043777D01*
X127283787Y-94909421D01*
X127449421Y-94743787D01*
X127583777Y-94551907D01*
X127583777Y-94551905D01*
X127586882Y-94547472D01*
X127588323Y-94548481D01*
X127633172Y-94505712D01*
X127701778Y-94492484D01*
X127766645Y-94518447D01*
X127792294Y-94548048D01*
X127793118Y-94547472D01*
X127796222Y-94551905D01*
X127796223Y-94551907D01*
X127930579Y-94743787D01*
X128096213Y-94909421D01*
X128288093Y-95043777D01*
X128500389Y-95142772D01*
X128726649Y-95203398D01*
X128913329Y-95219730D01*
X128959999Y-95223814D01*
X128960000Y-95223814D01*
X128960001Y-95223814D01*
X128998891Y-95220411D01*
X129193351Y-95203398D01*
X129419611Y-95142772D01*
X129631907Y-95043777D01*
X129823787Y-94909421D01*
X129989421Y-94743787D01*
X130123777Y-94551907D01*
X130123777Y-94551905D01*
X130126882Y-94547472D01*
X130128323Y-94548481D01*
X130173172Y-94505712D01*
X130241778Y-94492484D01*
X130306645Y-94518447D01*
X130332294Y-94548048D01*
X130333118Y-94547472D01*
X130336222Y-94551905D01*
X130336223Y-94551907D01*
X130470579Y-94743787D01*
X130636213Y-94909421D01*
X130828093Y-95043777D01*
X131040389Y-95142772D01*
X131266649Y-95203398D01*
X131453329Y-95219730D01*
X131499999Y-95223814D01*
X131500000Y-95223814D01*
X131500001Y-95223814D01*
X131538891Y-95220411D01*
X131733351Y-95203398D01*
X131959611Y-95142772D01*
X132171907Y-95043777D01*
X132363787Y-94909421D01*
X132529421Y-94743787D01*
X132663777Y-94551907D01*
X132663777Y-94551905D01*
X132666882Y-94547472D01*
X132668323Y-94548481D01*
X132713172Y-94505712D01*
X132781778Y-94492484D01*
X132846645Y-94518447D01*
X132872294Y-94548048D01*
X132873118Y-94547472D01*
X132876222Y-94551905D01*
X132876223Y-94551907D01*
X133010579Y-94743787D01*
X133176213Y-94909421D01*
X133368093Y-95043777D01*
X133580389Y-95142772D01*
X133806649Y-95203398D01*
X133993329Y-95219730D01*
X134039999Y-95223814D01*
X134040000Y-95223814D01*
X134040001Y-95223814D01*
X134078891Y-95220411D01*
X134273351Y-95203398D01*
X134499611Y-95142772D01*
X134711907Y-95043777D01*
X134903787Y-94909421D01*
X135069421Y-94743787D01*
X135203777Y-94551907D01*
X135302772Y-94339611D01*
X135363398Y-94113351D01*
X135383814Y-93880000D01*
X135363398Y-93646649D01*
X135307217Y-93436977D01*
X135302774Y-93420396D01*
X135302773Y-93420395D01*
X135302772Y-93420389D01*
X135203777Y-93208093D01*
X135069421Y-93016213D01*
X134903787Y-92850579D01*
X134711907Y-92716223D01*
X134499611Y-92617228D01*
X134499607Y-92617227D01*
X134499603Y-92617225D01*
X134273356Y-92556603D01*
X134273346Y-92556601D01*
X134040001Y-92536186D01*
X134039999Y-92536186D01*
X133806653Y-92556601D01*
X133806643Y-92556603D01*
X133580396Y-92617225D01*
X133580389Y-92617227D01*
X133580389Y-92617228D01*
X133368093Y-92716223D01*
X133176213Y-92850579D01*
X133176211Y-92850580D01*
X133176208Y-92850583D01*
X133010583Y-93016208D01*
X132873118Y-93212528D01*
X132871680Y-93211521D01*
X132826810Y-93254297D01*
X132758202Y-93267513D01*
X132693340Y-93241540D01*
X132667702Y-93211953D01*
X132666882Y-93212528D01*
X132663777Y-93208093D01*
X132529421Y-93016213D01*
X132363787Y-92850579D01*
X132171907Y-92716223D01*
X131959611Y-92617228D01*
X131959607Y-92617227D01*
X131959603Y-92617225D01*
X131733356Y-92556603D01*
X131733346Y-92556601D01*
X131500001Y-92536186D01*
X131499999Y-92536186D01*
X131266653Y-92556601D01*
X131266643Y-92556603D01*
X131040396Y-92617225D01*
X131040389Y-92617227D01*
X131040389Y-92617228D01*
X130828093Y-92716223D01*
X130636213Y-92850579D01*
X130636211Y-92850580D01*
X130636208Y-92850583D01*
X130470583Y-93016208D01*
X130333118Y-93212528D01*
X130331680Y-93211521D01*
X130286810Y-93254297D01*
X130218202Y-93267513D01*
X130153340Y-93241540D01*
X130127702Y-93211953D01*
X130126882Y-93212528D01*
X130123777Y-93208093D01*
X129989421Y-93016213D01*
X129823787Y-92850579D01*
X129631907Y-92716223D01*
X129419611Y-92617228D01*
X129419607Y-92617227D01*
X129419603Y-92617225D01*
X129193356Y-92556603D01*
X129193346Y-92556601D01*
X128960001Y-92536186D01*
X128959999Y-92536186D01*
X128726653Y-92556601D01*
X128726643Y-92556603D01*
X128500396Y-92617225D01*
X128500389Y-92617227D01*
X128500389Y-92617228D01*
X128288093Y-92716223D01*
X128096213Y-92850579D01*
X128096211Y-92850580D01*
X128096208Y-92850583D01*
X127930583Y-93016208D01*
X127793118Y-93212528D01*
X127791680Y-93211521D01*
X127746810Y-93254297D01*
X127678202Y-93267513D01*
X127613340Y-93241540D01*
X127587702Y-93211953D01*
X127586882Y-93212528D01*
X127583777Y-93208093D01*
X127449421Y-93016213D01*
X127283787Y-92850579D01*
X127091907Y-92716223D01*
X126879611Y-92617228D01*
X126879607Y-92617227D01*
X126879603Y-92617225D01*
X126653356Y-92556603D01*
X126653346Y-92556601D01*
X126420001Y-92536186D01*
X126419999Y-92536186D01*
X126186653Y-92556601D01*
X126186643Y-92556603D01*
X125960396Y-92617225D01*
X125960389Y-92617227D01*
X125960389Y-92617228D01*
X125748093Y-92716223D01*
X125556213Y-92850579D01*
X125556211Y-92850580D01*
X125556208Y-92850583D01*
X125390583Y-93016208D01*
X125253118Y-93212528D01*
X125251680Y-93211521D01*
X125206810Y-93254297D01*
X125138202Y-93267513D01*
X125073340Y-93241540D01*
X125047702Y-93211953D01*
X125046882Y-93212528D01*
X125043777Y-93208093D01*
X124909421Y-93016213D01*
X124743787Y-92850579D01*
X124551907Y-92716223D01*
X124339611Y-92617228D01*
X124339607Y-92617227D01*
X124339603Y-92617225D01*
X124113356Y-92556603D01*
X124113346Y-92556601D01*
X123880001Y-92536186D01*
X123879999Y-92536186D01*
X123646653Y-92556601D01*
X123646643Y-92556603D01*
X123420396Y-92617225D01*
X123420389Y-92617227D01*
X123420389Y-92617228D01*
X123208093Y-92716223D01*
X123016213Y-92850579D01*
X123016211Y-92850580D01*
X123016208Y-92850583D01*
X122850583Y-93016208D01*
X122713118Y-93212528D01*
X122711680Y-93211521D01*
X122666810Y-93254297D01*
X122598202Y-93267513D01*
X122533340Y-93241540D01*
X122507702Y-93211953D01*
X122506882Y-93212528D01*
X122503777Y-93208093D01*
X122369421Y-93016213D01*
X122203787Y-92850579D01*
X122011907Y-92716223D01*
X121799611Y-92617228D01*
X121799607Y-92617227D01*
X121799603Y-92617225D01*
X121573356Y-92556603D01*
X121573346Y-92556601D01*
X121340001Y-92536186D01*
X121339999Y-92536186D01*
X121106653Y-92556601D01*
X121106643Y-92556603D01*
X120880396Y-92617225D01*
X120880389Y-92617227D01*
X120880389Y-92617228D01*
X120668093Y-92716223D01*
X120476213Y-92850579D01*
X120476211Y-92850580D01*
X120476208Y-92850583D01*
X120310583Y-93016208D01*
X120173118Y-93212528D01*
X120171680Y-93211521D01*
X120126810Y-93254297D01*
X120058202Y-93267513D01*
X119993340Y-93241540D01*
X119967702Y-93211953D01*
X119966882Y-93212528D01*
X119963777Y-93208093D01*
X119829421Y-93016213D01*
X119663787Y-92850579D01*
X119471907Y-92716223D01*
X119259611Y-92617228D01*
X119259607Y-92617227D01*
X119259603Y-92617225D01*
X119033356Y-92556603D01*
X119033346Y-92556601D01*
X118800001Y-92536186D01*
X118799999Y-92536186D01*
X118566653Y-92556601D01*
X118566643Y-92556603D01*
X118340396Y-92617225D01*
X118340389Y-92617227D01*
X118340389Y-92617228D01*
X118128093Y-92716223D01*
X117936213Y-92850579D01*
X117936211Y-92850580D01*
X117936208Y-92850583D01*
X117770583Y-93016208D01*
X117636223Y-93208093D01*
X117537229Y-93420387D01*
X117537225Y-93420396D01*
X117476603Y-93646643D01*
X117476601Y-93646653D01*
X117456186Y-93879999D01*
X117456186Y-93880000D01*
X117476601Y-94113346D01*
X117476603Y-94113356D01*
X117508962Y-94234121D01*
X117507299Y-94303971D01*
X117476868Y-94353895D01*
X115551286Y-96279478D01*
X115439480Y-96391283D01*
X115437023Y-96395539D01*
X115434737Y-96399500D01*
X115360423Y-96528215D01*
X115319499Y-96680943D01*
X115319499Y-96680945D01*
X115319499Y-96849046D01*
X115319500Y-96849059D01*
X115319500Y-108315500D01*
X115299815Y-108382539D01*
X115247011Y-108428294D01*
X115195500Y-108439500D01*
X99734743Y-108439500D01*
X99667704Y-108419815D01*
X99633168Y-108386623D01*
X99632741Y-108386013D01*
X99632741Y-108386012D01*
X99501969Y-108199249D01*
X99340751Y-108038031D01*
X99340747Y-108038028D01*
X99340746Y-108038027D01*
X99153377Y-107906830D01*
X99109752Y-107852253D01*
X99100500Y-107805255D01*
X99100500Y-107734744D01*
X99120185Y-107667705D01*
X99153377Y-107633169D01*
X99153986Y-107632742D01*
X99153989Y-107632741D01*
X99340751Y-107501969D01*
X99501969Y-107340751D01*
X99632741Y-107153989D01*
X99729096Y-106947354D01*
X99788106Y-106727128D01*
X99805620Y-106526941D01*
X99807977Y-106500001D01*
X99807977Y-106499998D01*
X99788106Y-106272877D01*
X99788106Y-106272872D01*
X99729096Y-106052646D01*
X99632741Y-105846012D01*
X99501969Y-105659249D01*
X99340751Y-105498031D01*
X99340747Y-105498028D01*
X99321116Y-105484282D01*
X99277492Y-105429705D01*
X99270300Y-105360206D01*
X99301823Y-105297852D01*
X99362053Y-105262439D01*
X99378986Y-105259418D01*
X99409880Y-105256096D01*
X99544586Y-105205854D01*
X99544593Y-105205850D01*
X99659687Y-105119690D01*
X99659690Y-105119687D01*
X99745850Y-105004593D01*
X99745854Y-105004586D01*
X99796096Y-104869879D01*
X99796098Y-104869872D01*
X99802499Y-104810344D01*
X99802500Y-104810327D01*
X99802500Y-104210000D01*
X98973426Y-104210000D01*
X98998540Y-104166502D01*
X99035000Y-104030434D01*
X99035000Y-103889566D01*
X98998540Y-103753498D01*
X98973426Y-103710000D01*
X99802500Y-103710000D01*
X99802500Y-103109672D01*
X99802499Y-103109655D01*
X99796098Y-103050127D01*
X99796096Y-103050120D01*
X99745854Y-102915413D01*
X99745850Y-102915406D01*
X99659690Y-102800312D01*
X99659687Y-102800309D01*
X99544593Y-102714149D01*
X99544586Y-102714145D01*
X99409879Y-102663903D01*
X99409872Y-102663901D01*
X99350344Y-102657500D01*
X98750000Y-102657500D01*
X98750000Y-103486573D01*
X98706502Y-103461460D01*
X98570434Y-103425000D01*
X98429566Y-103425000D01*
X98293498Y-103461460D01*
X98250000Y-103486573D01*
X98250000Y-102657500D01*
X97649655Y-102657500D01*
X97590127Y-102663901D01*
X97590120Y-102663903D01*
X97455413Y-102714145D01*
X97455406Y-102714149D01*
X97340312Y-102800309D01*
X97340309Y-102800312D01*
X97254149Y-102915406D01*
X97254145Y-102915413D01*
X97203903Y-103050120D01*
X97203901Y-103050127D01*
X97197500Y-103109655D01*
X97197500Y-103710000D01*
X98026574Y-103710000D01*
X98001460Y-103753498D01*
X97965000Y-103889566D01*
X97965000Y-104030434D01*
X98001460Y-104166502D01*
X98026574Y-104210000D01*
X97197500Y-104210000D01*
X97197500Y-104810344D01*
X97203901Y-104869872D01*
X97203903Y-104869879D01*
X97254145Y-105004586D01*
X97254149Y-105004593D01*
X97340309Y-105119687D01*
X97340312Y-105119690D01*
X97455406Y-105205850D01*
X97455413Y-105205854D01*
X97590120Y-105256096D01*
X97590119Y-105256096D01*
X97621014Y-105259418D01*
X97685565Y-105286156D01*
X97725413Y-105343548D01*
X97727907Y-105413374D01*
X97692255Y-105473463D01*
X97678884Y-105484282D01*
X97659245Y-105498033D01*
X97498032Y-105659246D01*
X97367259Y-105846011D01*
X97367258Y-105846013D01*
X97270905Y-106052642D01*
X97211894Y-106272870D01*
X97211893Y-106272877D01*
X97192023Y-106499998D01*
X97192023Y-106500001D01*
X97211893Y-106727122D01*
X97211894Y-106727129D01*
X97270902Y-106947349D01*
X97270903Y-106947351D01*
X97270904Y-106947354D01*
X97355474Y-107128716D01*
X97367259Y-107153989D01*
X97367261Y-107153993D01*
X97498027Y-107340746D01*
X97498031Y-107340751D01*
X97659249Y-107501969D01*
X97846011Y-107632741D01*
X97846013Y-107632742D01*
X97846623Y-107633169D01*
X97890248Y-107687746D01*
X97899500Y-107734744D01*
X97899500Y-107805256D01*
X97879815Y-107872295D01*
X97846623Y-107906831D01*
X97659246Y-108038032D01*
X97498032Y-108199246D01*
X97367259Y-108386011D01*
X97367258Y-108386013D01*
X97270905Y-108592642D01*
X97211894Y-108812870D01*
X97211893Y-108812877D01*
X97192023Y-109039998D01*
X97192023Y-109040001D01*
X90500000Y-109040001D01*
X90500000Y-79000000D01*
X125874700Y-79000000D01*
X125893859Y-79206772D01*
X125950688Y-79406502D01*
X125950693Y-79406515D01*
X126043252Y-79592397D01*
X126168390Y-79758107D01*
X126168392Y-79758110D01*
X126321850Y-79898005D01*
X126321852Y-79898006D01*
X126321855Y-79898009D01*
X126421609Y-79959774D01*
X126498407Y-80007325D01*
X126498409Y-80007326D01*
X126498411Y-80007327D01*
X126692047Y-80082342D01*
X126896170Y-80120500D01*
X126896172Y-80120500D01*
X127103828Y-80120500D01*
X127103830Y-80120500D01*
X127307953Y-80082342D01*
X127501589Y-80007327D01*
X127678145Y-79898009D01*
X127831607Y-79758110D01*
X127913418Y-79649773D01*
X127969527Y-79608137D01*
X128012372Y-79600500D01*
X138178331Y-79600500D01*
X138178347Y-79600501D01*
X138185943Y-79600501D01*
X138344054Y-79600501D01*
X138344057Y-79600501D01*
X138496785Y-79559577D01*
X138546904Y-79530639D01*
X138633716Y-79480520D01*
X138745520Y-79368716D01*
X138745520Y-79368714D01*
X138755728Y-79358507D01*
X138755730Y-79358504D01*
X139240160Y-78874073D01*
X139301481Y-78840590D01*
X139368102Y-78844474D01*
X139420019Y-78862298D01*
X139648951Y-78900500D01*
X139648952Y-78900500D01*
X139881048Y-78900500D01*
X139881049Y-78900500D01*
X140109981Y-78862298D01*
X140161894Y-78844475D01*
X140231691Y-78841324D01*
X140289839Y-78874075D01*
X142863181Y-81447416D01*
X142896666Y-81508739D01*
X142899500Y-81535097D01*
X142899500Y-85508370D01*
X142879815Y-85575409D01*
X142840778Y-85613797D01*
X142833957Y-85618020D01*
X142683237Y-85755418D01*
X142560327Y-85918178D01*
X142469422Y-86100739D01*
X142469417Y-86100752D01*
X142413602Y-86296917D01*
X142394785Y-86499999D01*
X142394785Y-86500000D01*
X142413602Y-86703082D01*
X142469417Y-86899247D01*
X142469422Y-86899260D01*
X142560327Y-87081821D01*
X142683237Y-87244581D01*
X142833958Y-87381980D01*
X142833960Y-87381982D01*
X142933141Y-87443392D01*
X143007363Y-87489348D01*
X143197544Y-87563024D01*
X143398024Y-87600500D01*
X143398026Y-87600500D01*
X143601974Y-87600500D01*
X143601976Y-87600500D01*
X143802456Y-87563024D01*
X143992637Y-87489348D01*
X144166041Y-87381981D01*
X144316764Y-87244579D01*
X144439673Y-87081821D01*
X144530582Y-86899250D01*
X144586397Y-86703083D01*
X144605215Y-86500000D01*
X144586397Y-86296917D01*
X144530582Y-86100750D01*
X144439673Y-85918179D01*
X144316764Y-85755421D01*
X144316762Y-85755418D01*
X144166042Y-85618020D01*
X144166041Y-85618019D01*
X144159221Y-85613796D01*
X144112587Y-85561769D01*
X144100500Y-85508370D01*
X144100500Y-81324060D01*
X144100501Y-81324047D01*
X144100501Y-81155944D01*
X144059576Y-81003214D01*
X144059573Y-81003209D01*
X143980524Y-80866290D01*
X143980518Y-80866282D01*
X141562079Y-78447844D01*
X147560000Y-78447844D01*
X147566401Y-78507372D01*
X147566403Y-78507379D01*
X147616645Y-78642086D01*
X147616649Y-78642093D01*
X147702809Y-78757187D01*
X147702812Y-78757190D01*
X147817906Y-78843350D01*
X147817913Y-78843354D01*
X147952620Y-78893596D01*
X147952627Y-78893598D01*
X148012155Y-78899999D01*
X148012172Y-78900000D01*
X148710000Y-78900000D01*
X148710000Y-77875277D01*
X148786306Y-77919333D01*
X148900756Y-77950000D01*
X149019244Y-77950000D01*
X149133694Y-77919333D01*
X149210000Y-77875277D01*
X149210000Y-78900000D01*
X149907828Y-78900000D01*
X149907844Y-78899999D01*
X149967372Y-78893598D01*
X149967379Y-78893596D01*
X150102086Y-78843354D01*
X150102093Y-78843350D01*
X150217187Y-78757190D01*
X150217190Y-78757187D01*
X150303350Y-78642093D01*
X150303355Y-78642084D01*
X150332075Y-78565081D01*
X150373945Y-78509147D01*
X150439409Y-78484729D01*
X150507682Y-78499580D01*
X150539484Y-78524428D01*
X150548216Y-78533913D01*
X150548219Y-78533915D01*
X150548222Y-78533918D01*
X150731365Y-78676464D01*
X150731371Y-78676468D01*
X150731374Y-78676470D01*
X150935497Y-78786936D01*
X151049487Y-78826068D01*
X151155015Y-78862297D01*
X151155017Y-78862297D01*
X151155019Y-78862298D01*
X151383951Y-78900500D01*
X151383952Y-78900500D01*
X151616048Y-78900500D01*
X151616049Y-78900500D01*
X151844981Y-78862298D01*
X151896897Y-78844474D01*
X151966693Y-78841324D01*
X152024840Y-78874075D01*
X157015139Y-83864374D01*
X157015149Y-83864385D01*
X157019479Y-83868715D01*
X157019480Y-83868716D01*
X157131284Y-83980520D01*
X157131286Y-83980521D01*
X157131290Y-83980524D01*
X157268209Y-84059573D01*
X157268216Y-84059577D01*
X157380019Y-84089534D01*
X157420942Y-84100500D01*
X157420943Y-84100500D01*
X164512688Y-84100500D01*
X164579727Y-84120185D01*
X164611642Y-84149773D01*
X164683237Y-84244581D01*
X164833958Y-84381980D01*
X164833960Y-84381982D01*
X164933141Y-84443392D01*
X165007363Y-84489348D01*
X165197544Y-84563024D01*
X165398024Y-84600500D01*
X165398026Y-84600500D01*
X165601974Y-84600500D01*
X165601976Y-84600500D01*
X165802456Y-84563024D01*
X165992637Y-84489348D01*
X166166041Y-84381981D01*
X166316764Y-84244579D01*
X166439673Y-84081821D01*
X166530582Y-83899250D01*
X166586397Y-83703083D01*
X166605215Y-83500000D01*
X166586397Y-83296917D01*
X166530582Y-83100750D01*
X166439673Y-82918179D01*
X166316764Y-82755421D01*
X166316762Y-82755418D01*
X166166041Y-82618019D01*
X166166039Y-82618017D01*
X165992642Y-82510655D01*
X165992635Y-82510651D01*
X165897546Y-82473814D01*
X165802456Y-82436976D01*
X165601976Y-82399500D01*
X165398024Y-82399500D01*
X165197544Y-82436976D01*
X165197541Y-82436976D01*
X165197541Y-82436977D01*
X165007364Y-82510651D01*
X165007357Y-82510655D01*
X164833960Y-82618017D01*
X164833958Y-82618019D01*
X164683237Y-82755418D01*
X164611642Y-82850227D01*
X164555533Y-82891863D01*
X164512688Y-82899500D01*
X157800097Y-82899500D01*
X157733058Y-82879815D01*
X157712416Y-82863181D01*
X152874204Y-78024969D01*
X152840719Y-77963646D01*
X152841680Y-77906847D01*
X152848606Y-77879500D01*
X152886134Y-77731305D01*
X152905300Y-77500000D01*
X152905300Y-77499993D01*
X152886135Y-77268702D01*
X152886133Y-77268691D01*
X152829157Y-77043699D01*
X152735924Y-76831151D01*
X152608983Y-76636852D01*
X152608980Y-76636849D01*
X152608979Y-76636847D01*
X152451784Y-76466087D01*
X152451779Y-76466083D01*
X152451777Y-76466081D01*
X152268634Y-76323535D01*
X152268628Y-76323531D01*
X152064504Y-76213064D01*
X152064495Y-76213061D01*
X151844984Y-76137702D01*
X151657404Y-76106401D01*
X151616049Y-76099500D01*
X151383951Y-76099500D01*
X151342596Y-76106401D01*
X151155015Y-76137702D01*
X150935504Y-76213061D01*
X150935495Y-76213064D01*
X150731371Y-76323531D01*
X150731365Y-76323535D01*
X150548222Y-76466081D01*
X150548215Y-76466087D01*
X150539484Y-76475572D01*
X150479595Y-76511561D01*
X150409757Y-76509458D01*
X150352143Y-76469932D01*
X150332075Y-76434918D01*
X150303355Y-76357915D01*
X150303350Y-76357906D01*
X150217190Y-76242812D01*
X150217187Y-76242809D01*
X150102093Y-76156649D01*
X150102086Y-76156645D01*
X149967379Y-76106403D01*
X149967372Y-76106401D01*
X149907844Y-76100000D01*
X149210000Y-76100000D01*
X149210000Y-77124722D01*
X149133694Y-77080667D01*
X149019244Y-77050000D01*
X148900756Y-77050000D01*
X148786306Y-77080667D01*
X148710000Y-77124722D01*
X148710000Y-76100000D01*
X148012155Y-76100000D01*
X147952627Y-76106401D01*
X147952620Y-76106403D01*
X147817913Y-76156645D01*
X147817906Y-76156649D01*
X147702812Y-76242809D01*
X147702809Y-76242812D01*
X147616649Y-76357906D01*
X147616645Y-76357913D01*
X147566403Y-76492620D01*
X147566401Y-76492627D01*
X147560000Y-76552155D01*
X147560000Y-77250000D01*
X148584722Y-77250000D01*
X148540667Y-77326306D01*
X148510000Y-77440756D01*
X148510000Y-77559244D01*
X148540667Y-77673694D01*
X148584722Y-77750000D01*
X147560000Y-77750000D01*
X147560000Y-78447844D01*
X141562079Y-78447844D01*
X141139204Y-78024969D01*
X141105719Y-77963646D01*
X141106680Y-77906847D01*
X141113606Y-77879500D01*
X141151134Y-77731305D01*
X141170300Y-77500000D01*
X141170300Y-77499993D01*
X141151135Y-77268702D01*
X141151133Y-77268691D01*
X141094157Y-77043699D01*
X141000924Y-76831151D01*
X140873983Y-76636852D01*
X140873980Y-76636849D01*
X140873979Y-76636847D01*
X140716784Y-76466087D01*
X140716779Y-76466083D01*
X140716777Y-76466081D01*
X140533634Y-76323535D01*
X140533628Y-76323531D01*
X140329504Y-76213064D01*
X140329495Y-76213061D01*
X140109984Y-76137702D01*
X139922404Y-76106401D01*
X139881049Y-76099500D01*
X139648951Y-76099500D01*
X139607596Y-76106401D01*
X139420015Y-76137702D01*
X139200504Y-76213061D01*
X139200495Y-76213064D01*
X138996371Y-76323531D01*
X138996365Y-76323535D01*
X138813222Y-76466081D01*
X138813215Y-76466087D01*
X138804484Y-76475572D01*
X138744595Y-76511561D01*
X138674757Y-76509458D01*
X138617143Y-76469932D01*
X138597075Y-76434918D01*
X138568355Y-76357915D01*
X138568350Y-76357906D01*
X138482190Y-76242812D01*
X138482187Y-76242809D01*
X138367093Y-76156649D01*
X138367086Y-76156645D01*
X138232379Y-76106403D01*
X138232372Y-76106401D01*
X138172844Y-76100000D01*
X137475000Y-76100000D01*
X137475000Y-77124722D01*
X137398694Y-77080667D01*
X137284244Y-77050000D01*
X137165756Y-77050000D01*
X137051306Y-77080667D01*
X136975000Y-77124722D01*
X136975000Y-76100000D01*
X136277155Y-76100000D01*
X136217627Y-76106401D01*
X136217620Y-76106403D01*
X136082913Y-76156645D01*
X136082906Y-76156649D01*
X135967812Y-76242809D01*
X135967809Y-76242812D01*
X135881649Y-76357906D01*
X135881645Y-76357913D01*
X135831403Y-76492620D01*
X135831401Y-76492627D01*
X135825000Y-76552155D01*
X135825000Y-77250000D01*
X136849722Y-77250000D01*
X136805667Y-77326306D01*
X136775000Y-77440756D01*
X136775000Y-77559244D01*
X136805667Y-77673694D01*
X136849722Y-77750000D01*
X135825000Y-77750000D01*
X135825000Y-78275500D01*
X135805315Y-78342539D01*
X135752511Y-78388294D01*
X135701000Y-78399500D01*
X128012372Y-78399500D01*
X127945333Y-78379815D01*
X127913418Y-78350226D01*
X127856988Y-78275500D01*
X127831607Y-78241890D01*
X127831603Y-78241886D01*
X127831601Y-78241884D01*
X127678149Y-78101994D01*
X127678143Y-78101990D01*
X127501592Y-77992674D01*
X127501583Y-77992670D01*
X127391437Y-77950000D01*
X127307953Y-77917658D01*
X127103830Y-77879500D01*
X126896170Y-77879500D01*
X126692047Y-77917658D01*
X126498416Y-77992670D01*
X126498407Y-77992674D01*
X126321856Y-78101990D01*
X126321850Y-78101994D01*
X126168392Y-78241889D01*
X126168390Y-78241892D01*
X126043252Y-78407602D01*
X125950693Y-78593484D01*
X125950688Y-78593497D01*
X125893859Y-78793227D01*
X125874700Y-78999999D01*
X125874700Y-79000000D01*
X90500000Y-79000000D01*
X90500000Y-75051362D01*
X90519685Y-74984323D01*
X90536319Y-74963681D01*
X94463681Y-71036319D01*
X94525004Y-71002834D01*
X94551362Y-71000000D01*
X181948638Y-71000000D01*
X182015677Y-71019685D01*
G37*
%TD.AperFunction*%
%TD*%
M02*
