%TF.GenerationSoftware,KiCad,Pcbnew,8.0.1*%
%TF.CreationDate,2024-07-08T16:56:45+05:30*%
%TF.ProjectId,FA,46412e6b-6963-4616-945f-706362585858,rev?*%
%TF.SameCoordinates,Original*%
%TF.FileFunction,Drillmap*%
%TF.FilePolarity,Positive*%
%FSLAX45Y45*%
G04 Gerber Fmt 4.5, Leading zero omitted, Abs format (unit mm)*
G04 Created by KiCad (PCBNEW 8.0.1) date 2024-07-08 16:56:45*
%MOMM*%
%LPD*%
G01*
G04 APERTURE LIST*
%ADD10C,0.050000*%
%ADD11C,0.200000*%
G04 APERTURE END LIST*
D10*
X8854920Y-6896000D02*
X19014920Y-6896000D01*
X19014920Y-14516000D01*
X8854920Y-14516000D01*
X8854920Y-6896000D01*
D11*
X9113197Y-14829984D02*
X9113197Y-14629984D01*
X9113197Y-14629984D02*
X9160816Y-14629984D01*
X9160816Y-14629984D02*
X9189387Y-14639508D01*
X9189387Y-14639508D02*
X9208435Y-14658555D01*
X9208435Y-14658555D02*
X9217959Y-14677603D01*
X9217959Y-14677603D02*
X9227483Y-14715698D01*
X9227483Y-14715698D02*
X9227483Y-14744269D01*
X9227483Y-14744269D02*
X9217959Y-14782365D01*
X9217959Y-14782365D02*
X9208435Y-14801412D01*
X9208435Y-14801412D02*
X9189387Y-14820460D01*
X9189387Y-14820460D02*
X9160816Y-14829984D01*
X9160816Y-14829984D02*
X9113197Y-14829984D01*
X9313197Y-14829984D02*
X9313197Y-14696650D01*
X9313197Y-14734746D02*
X9322721Y-14715698D01*
X9322721Y-14715698D02*
X9332244Y-14706174D01*
X9332244Y-14706174D02*
X9351292Y-14696650D01*
X9351292Y-14696650D02*
X9370340Y-14696650D01*
X9437006Y-14829984D02*
X9437006Y-14696650D01*
X9437006Y-14629984D02*
X9427483Y-14639508D01*
X9427483Y-14639508D02*
X9437006Y-14649031D01*
X9437006Y-14649031D02*
X9446530Y-14639508D01*
X9446530Y-14639508D02*
X9437006Y-14629984D01*
X9437006Y-14629984D02*
X9437006Y-14649031D01*
X9560816Y-14829984D02*
X9541768Y-14820460D01*
X9541768Y-14820460D02*
X9532244Y-14801412D01*
X9532244Y-14801412D02*
X9532244Y-14629984D01*
X9665578Y-14829984D02*
X9646530Y-14820460D01*
X9646530Y-14820460D02*
X9637006Y-14801412D01*
X9637006Y-14801412D02*
X9637006Y-14629984D01*
X9894149Y-14829984D02*
X9894149Y-14629984D01*
X9894149Y-14629984D02*
X9960816Y-14772841D01*
X9960816Y-14772841D02*
X10027483Y-14629984D01*
X10027483Y-14629984D02*
X10027483Y-14829984D01*
X10208435Y-14829984D02*
X10208435Y-14725222D01*
X10208435Y-14725222D02*
X10198911Y-14706174D01*
X10198911Y-14706174D02*
X10179864Y-14696650D01*
X10179864Y-14696650D02*
X10141768Y-14696650D01*
X10141768Y-14696650D02*
X10122721Y-14706174D01*
X10208435Y-14820460D02*
X10189387Y-14829984D01*
X10189387Y-14829984D02*
X10141768Y-14829984D01*
X10141768Y-14829984D02*
X10122721Y-14820460D01*
X10122721Y-14820460D02*
X10113197Y-14801412D01*
X10113197Y-14801412D02*
X10113197Y-14782365D01*
X10113197Y-14782365D02*
X10122721Y-14763317D01*
X10122721Y-14763317D02*
X10141768Y-14753793D01*
X10141768Y-14753793D02*
X10189387Y-14753793D01*
X10189387Y-14753793D02*
X10208435Y-14744269D01*
X10303673Y-14696650D02*
X10303673Y-14896650D01*
X10303673Y-14706174D02*
X10322721Y-14696650D01*
X10322721Y-14696650D02*
X10360816Y-14696650D01*
X10360816Y-14696650D02*
X10379864Y-14706174D01*
X10379864Y-14706174D02*
X10389387Y-14715698D01*
X10389387Y-14715698D02*
X10398911Y-14734746D01*
X10398911Y-14734746D02*
X10398911Y-14791888D01*
X10398911Y-14791888D02*
X10389387Y-14810936D01*
X10389387Y-14810936D02*
X10379864Y-14820460D01*
X10379864Y-14820460D02*
X10360816Y-14829984D01*
X10360816Y-14829984D02*
X10322721Y-14829984D01*
X10322721Y-14829984D02*
X10303673Y-14820460D01*
X10484625Y-14810936D02*
X10494149Y-14820460D01*
X10494149Y-14820460D02*
X10484625Y-14829984D01*
X10484625Y-14829984D02*
X10475102Y-14820460D01*
X10475102Y-14820460D02*
X10484625Y-14810936D01*
X10484625Y-14810936D02*
X10484625Y-14829984D01*
X10484625Y-14706174D02*
X10494149Y-14715698D01*
X10494149Y-14715698D02*
X10484625Y-14725222D01*
X10484625Y-14725222D02*
X10475102Y-14715698D01*
X10475102Y-14715698D02*
X10484625Y-14706174D01*
X10484625Y-14706174D02*
X10484625Y-14725222D01*
M02*
