M48
; DRILL file {KiCad 8.0.1} date 2024-07-08T16:56:43+0530
; FORMAT={-:-/ absolute / inch / decimal}
; #@! TF.CreationDate,2024-07-08T16:56:43+05:30
; #@! TF.GenerationSoftware,Kicad,Pcbnew,8.0.1
; #@! TF.FileFunction,Plated,1,2,PTH
FMAT,2
INCH
; #@! TA.AperFunction,Plated,PTH,ComponentDrill
T1C0.0307
; #@! TA.AperFunction,Plated,PTH,ComponentDrill
T2C0.0315
; #@! TA.AperFunction,Plated,PTH,ComponentDrill
T3C0.0350
; #@! TA.AperFunction,Plated,PTH,ComponentDrill
T4C0.0354
; #@! TA.AperFunction,Plated,PTH,ComponentDrill
T5C0.0421
; #@! TA.AperFunction,Plated,PTH,ComponentDrill
T6C0.0440
%
G90
G05
T1
X5.8252Y-4.2937
X5.8252Y-4.6063
X5.9252Y-4.2937
X5.9252Y-4.6063
X6.0252Y-4.2937
X6.0252Y-4.6063
X6.1252Y-4.2937
X6.1252Y-4.6063
X6.2252Y-4.2937
X6.2252Y-4.6063
X6.3252Y-4.2937
X6.3252Y-4.6063
X6.4252Y-4.2937
X6.4252Y-4.6063
X6.5252Y-4.2937
X6.5252Y-4.6063
T2
X5.4709Y-5.2043
X5.4709Y-5.5043
X5.5709Y-5.2043
X5.5709Y-5.5043
X5.6496Y-3.4055
X5.6496Y-3.8386
X5.6709Y-5.2043
X5.6709Y-5.5043
X5.8449Y-5.2043
X5.8449Y-5.5043
X5.9449Y-5.2043
X5.9449Y-5.5043
X6.0449Y-5.2043
X6.0449Y-5.5043
X6.5157Y-3.2874
X6.5157Y-3.7205
T3
X5.0Y-3.1102
T4
X5.4026Y-3.0512
X5.5026Y-3.0512
X5.8646Y-3.0512
X5.9646Y-3.0512
T5
X3.878Y-4.0929
X3.878Y-4.1929
X3.878Y-4.2929
X3.878Y-4.3929
X5.0984Y-5.1846
X5.0984Y-5.2846
X5.0984Y-5.3846
X5.0984Y-5.4846
T6
X4.6772Y-3.6961
X4.6772Y-3.9961
X4.7559Y-4.4488
X4.7559Y-4.7488
X4.7772Y-3.6961
X4.7772Y-3.9961
X4.8559Y-4.4488
X4.8559Y-4.7488
X4.8772Y-3.6961
X4.8772Y-3.9961
X4.9559Y-4.4488
X4.9559Y-4.7488
X4.9772Y-3.6961
X4.9772Y-3.9961
X5.0559Y-4.4488
X5.0559Y-4.7488
X5.0772Y-3.6961
X5.0772Y-3.9961
X5.1559Y-4.4488
X5.1559Y-4.7488
X5.1772Y-3.6961
X5.1772Y-3.9961
X5.2559Y-4.4488
X5.2559Y-4.7488
X5.2772Y-3.6961
X5.2772Y-3.9961
X5.3559Y-4.4488
X5.3559Y-4.7488
M30
